G04 #@! TF.GenerationSoftware,KiCad,Pcbnew,(5.1.0-0)*
G04 #@! TF.CreationDate,2019-06-12T16:48:35+08:00*
G04 #@! TF.ProjectId,Palm,50616c6d-2e6b-4696-9361-645f70636258,V1.0*
G04 #@! TF.SameCoordinates,Original*
G04 #@! TF.FileFunction,Legend,Bot*
G04 #@! TF.FilePolarity,Positive*
%FSLAX46Y46*%
G04 Gerber Fmt 4.6, Leading zero omitted, Abs format (unit mm)*
G04 Created by KiCad (PCBNEW (5.1.0-0)) date 2019-06-12 16:48:35*
%MOMM*%
%LPD*%
G04 APERTURE LIST*
%ADD10C,0.150000*%
%ADD11C,0.010000*%
%ADD12C,0.120000*%
G04 APERTURE END LIST*
D10*
X144645000Y-101352380D02*
X144692619Y-101447619D01*
X144692619Y-101590476D01*
X144645000Y-101733333D01*
X144549761Y-101828571D01*
X144454523Y-101876190D01*
X144264047Y-101923809D01*
X144121190Y-101923809D01*
X143930714Y-101876190D01*
X143835476Y-101828571D01*
X143740238Y-101733333D01*
X143692619Y-101590476D01*
X143692619Y-101495238D01*
X143740238Y-101352380D01*
X143787857Y-101304761D01*
X144121190Y-101304761D01*
X144121190Y-101495238D01*
X143740238Y-100495238D02*
X143692619Y-100590476D01*
X143692619Y-100780952D01*
X143740238Y-100876190D01*
X143835476Y-100923809D01*
X144216428Y-100923809D01*
X144311666Y-100876190D01*
X144359285Y-100780952D01*
X144359285Y-100590476D01*
X144311666Y-100495238D01*
X144216428Y-100447619D01*
X144121190Y-100447619D01*
X144025952Y-100923809D01*
X144359285Y-100161904D02*
X144359285Y-99780952D01*
X144692619Y-100019047D02*
X143835476Y-100019047D01*
X143740238Y-99971428D01*
X143692619Y-99876190D01*
X143692619Y-99780952D01*
X143740238Y-98733333D02*
X143692619Y-98638095D01*
X143692619Y-98447619D01*
X143740238Y-98352380D01*
X143835476Y-98304761D01*
X143883095Y-98304761D01*
X143978333Y-98352380D01*
X144025952Y-98447619D01*
X144025952Y-98590476D01*
X144073571Y-98685714D01*
X144168809Y-98733333D01*
X144216428Y-98733333D01*
X144311666Y-98685714D01*
X144359285Y-98590476D01*
X144359285Y-98447619D01*
X144311666Y-98352380D01*
X144359285Y-98019047D02*
X144359285Y-97638095D01*
X144692619Y-97876190D02*
X143835476Y-97876190D01*
X143740238Y-97828571D01*
X143692619Y-97733333D01*
X143692619Y-97638095D01*
X143692619Y-96876190D02*
X144216428Y-96876190D01*
X144311666Y-96923809D01*
X144359285Y-97019047D01*
X144359285Y-97209523D01*
X144311666Y-97304761D01*
X143740238Y-96876190D02*
X143692619Y-96971428D01*
X143692619Y-97209523D01*
X143740238Y-97304761D01*
X143835476Y-97352380D01*
X143930714Y-97352380D01*
X144025952Y-97304761D01*
X144073571Y-97209523D01*
X144073571Y-96971428D01*
X144121190Y-96876190D01*
X143692619Y-96400000D02*
X144359285Y-96400000D01*
X144168809Y-96400000D02*
X144264047Y-96352380D01*
X144311666Y-96304761D01*
X144359285Y-96209523D01*
X144359285Y-96114285D01*
X144359285Y-95923809D02*
X144359285Y-95542857D01*
X144692619Y-95780952D02*
X143835476Y-95780952D01*
X143740238Y-95733333D01*
X143692619Y-95638095D01*
X143692619Y-95542857D01*
X143740238Y-94828571D02*
X143692619Y-94923809D01*
X143692619Y-95114285D01*
X143740238Y-95209523D01*
X143835476Y-95257142D01*
X144216428Y-95257142D01*
X144311666Y-95209523D01*
X144359285Y-95114285D01*
X144359285Y-94923809D01*
X144311666Y-94828571D01*
X144216428Y-94780952D01*
X144121190Y-94780952D01*
X144025952Y-95257142D01*
X143692619Y-93923809D02*
X144692619Y-93923809D01*
X143740238Y-93923809D02*
X143692619Y-94019047D01*
X143692619Y-94209523D01*
X143740238Y-94304761D01*
X143787857Y-94352380D01*
X143883095Y-94400000D01*
X144168809Y-94400000D01*
X144264047Y-94352380D01*
X144311666Y-94304761D01*
X144359285Y-94209523D01*
X144359285Y-94019047D01*
X144311666Y-93923809D01*
X143692619Y-92257142D02*
X144216428Y-92257142D01*
X144311666Y-92304761D01*
X144359285Y-92400000D01*
X144359285Y-92590476D01*
X144311666Y-92685714D01*
X143740238Y-92257142D02*
X143692619Y-92352380D01*
X143692619Y-92590476D01*
X143740238Y-92685714D01*
X143835476Y-92733333D01*
X143930714Y-92733333D01*
X144025952Y-92685714D01*
X144073571Y-92590476D01*
X144073571Y-92352380D01*
X144121190Y-92257142D01*
X144359285Y-91923809D02*
X144359285Y-91542857D01*
X144692619Y-91780952D02*
X143835476Y-91780952D01*
X143740238Y-91733333D01*
X143692619Y-91638095D01*
X143692619Y-91542857D01*
X143692619Y-90447619D02*
X144692619Y-90447619D01*
X143692619Y-90019047D02*
X144216428Y-90019047D01*
X144311666Y-90066666D01*
X144359285Y-90161904D01*
X144359285Y-90304761D01*
X144311666Y-90400000D01*
X144264047Y-90447619D01*
X144359285Y-89114285D02*
X143692619Y-89114285D01*
X144359285Y-89542857D02*
X143835476Y-89542857D01*
X143740238Y-89495238D01*
X143692619Y-89400000D01*
X143692619Y-89257142D01*
X143740238Y-89161904D01*
X143787857Y-89114285D01*
X144359285Y-88780952D02*
X144359285Y-88400000D01*
X144692619Y-88638095D02*
X143835476Y-88638095D01*
X143740238Y-88590476D01*
X143692619Y-88495238D01*
X143692619Y-88400000D01*
X143740238Y-88114285D02*
X143692619Y-88019047D01*
X143692619Y-87828571D01*
X143740238Y-87733333D01*
X143835476Y-87685714D01*
X143883095Y-87685714D01*
X143978333Y-87733333D01*
X144025952Y-87828571D01*
X144025952Y-87971428D01*
X144073571Y-88066666D01*
X144168809Y-88114285D01*
X144216428Y-88114285D01*
X144311666Y-88066666D01*
X144359285Y-87971428D01*
X144359285Y-87828571D01*
X144311666Y-87733333D01*
X143740238Y-86828571D02*
X143692619Y-86923809D01*
X143692619Y-87114285D01*
X143740238Y-87209523D01*
X143787857Y-87257142D01*
X143883095Y-87304761D01*
X144168809Y-87304761D01*
X144264047Y-87257142D01*
X144311666Y-87209523D01*
X144359285Y-87114285D01*
X144359285Y-86923809D01*
X144311666Y-86828571D01*
X143692619Y-85971428D02*
X144216428Y-85971428D01*
X144311666Y-86019047D01*
X144359285Y-86114285D01*
X144359285Y-86304761D01*
X144311666Y-86400000D01*
X143740238Y-85971428D02*
X143692619Y-86066666D01*
X143692619Y-86304761D01*
X143740238Y-86400000D01*
X143835476Y-86447619D01*
X143930714Y-86447619D01*
X144025952Y-86400000D01*
X144073571Y-86304761D01*
X144073571Y-86066666D01*
X144121190Y-85971428D01*
X144359285Y-85495238D02*
X143359285Y-85495238D01*
X144311666Y-85495238D02*
X144359285Y-85400000D01*
X144359285Y-85209523D01*
X144311666Y-85114285D01*
X144264047Y-85066666D01*
X144168809Y-85019047D01*
X143883095Y-85019047D01*
X143787857Y-85066666D01*
X143740238Y-85114285D01*
X143692619Y-85209523D01*
X143692619Y-85400000D01*
X143740238Y-85495238D01*
X143740238Y-84209523D02*
X143692619Y-84304761D01*
X143692619Y-84495238D01*
X143740238Y-84590476D01*
X143835476Y-84638095D01*
X144216428Y-84638095D01*
X144311666Y-84590476D01*
X144359285Y-84495238D01*
X144359285Y-84304761D01*
X144311666Y-84209523D01*
X144216428Y-84161904D01*
X144121190Y-84161904D01*
X144025952Y-84638095D01*
X143787857Y-83733333D02*
X143740238Y-83685714D01*
X143692619Y-83733333D01*
X143740238Y-83780952D01*
X143787857Y-83733333D01*
X143692619Y-83733333D01*
X143740238Y-82828571D02*
X143692619Y-82923809D01*
X143692619Y-83114285D01*
X143740238Y-83209523D01*
X143787857Y-83257142D01*
X143883095Y-83304761D01*
X144168809Y-83304761D01*
X144264047Y-83257142D01*
X144311666Y-83209523D01*
X144359285Y-83114285D01*
X144359285Y-82923809D01*
X144311666Y-82828571D01*
X143692619Y-82257142D02*
X143740238Y-82352380D01*
X143787857Y-82400000D01*
X143883095Y-82447619D01*
X144168809Y-82447619D01*
X144264047Y-82400000D01*
X144311666Y-82352380D01*
X144359285Y-82257142D01*
X144359285Y-82114285D01*
X144311666Y-82019047D01*
X144264047Y-81971428D01*
X144168809Y-81923809D01*
X143883095Y-81923809D01*
X143787857Y-81971428D01*
X143740238Y-82019047D01*
X143692619Y-82114285D01*
X143692619Y-82257142D01*
X143692619Y-81495238D02*
X144359285Y-81495238D01*
X144264047Y-81495238D02*
X144311666Y-81447619D01*
X144359285Y-81352380D01*
X144359285Y-81209523D01*
X144311666Y-81114285D01*
X144216428Y-81066666D01*
X143692619Y-81066666D01*
X144216428Y-81066666D02*
X144311666Y-81019047D01*
X144359285Y-80923809D01*
X144359285Y-80780952D01*
X144311666Y-80685714D01*
X144216428Y-80638095D01*
X143692619Y-80638095D01*
X144740238Y-79447619D02*
X143454523Y-80304761D01*
X144359285Y-79114285D02*
X143359285Y-79114285D01*
X144311666Y-79114285D02*
X144359285Y-79019047D01*
X144359285Y-78828571D01*
X144311666Y-78733333D01*
X144264047Y-78685714D01*
X144168809Y-78638095D01*
X143883095Y-78638095D01*
X143787857Y-78685714D01*
X143740238Y-78733333D01*
X143692619Y-78828571D01*
X143692619Y-79019047D01*
X143740238Y-79114285D01*
X143692619Y-77780952D02*
X144216428Y-77780952D01*
X144311666Y-77828571D01*
X144359285Y-77923809D01*
X144359285Y-78114285D01*
X144311666Y-78209523D01*
X143740238Y-77780952D02*
X143692619Y-77876190D01*
X143692619Y-78114285D01*
X143740238Y-78209523D01*
X143835476Y-78257142D01*
X143930714Y-78257142D01*
X144025952Y-78209523D01*
X144073571Y-78114285D01*
X144073571Y-77876190D01*
X144121190Y-77780952D01*
X143692619Y-77161904D02*
X143740238Y-77257142D01*
X143835476Y-77304761D01*
X144692619Y-77304761D01*
X143692619Y-76780952D02*
X144359285Y-76780952D01*
X144264047Y-76780952D02*
X144311666Y-76733333D01*
X144359285Y-76638095D01*
X144359285Y-76495238D01*
X144311666Y-76400000D01*
X144216428Y-76352380D01*
X143692619Y-76352380D01*
X144216428Y-76352380D02*
X144311666Y-76304761D01*
X144359285Y-76209523D01*
X144359285Y-76066666D01*
X144311666Y-75971428D01*
X144216428Y-75923809D01*
X143692619Y-75923809D01*
X153852619Y-98900000D02*
X154852619Y-98900000D01*
X154852619Y-98519047D01*
X154805000Y-98423809D01*
X154757380Y-98376190D01*
X154662142Y-98328571D01*
X154519285Y-98328571D01*
X154424047Y-98376190D01*
X154376428Y-98423809D01*
X154328809Y-98519047D01*
X154328809Y-98900000D01*
X153852619Y-97471428D02*
X154376428Y-97471428D01*
X154471666Y-97519047D01*
X154519285Y-97614285D01*
X154519285Y-97804761D01*
X154471666Y-97900000D01*
X153900238Y-97471428D02*
X153852619Y-97566666D01*
X153852619Y-97804761D01*
X153900238Y-97900000D01*
X153995476Y-97947619D01*
X154090714Y-97947619D01*
X154185952Y-97900000D01*
X154233571Y-97804761D01*
X154233571Y-97566666D01*
X154281190Y-97471428D01*
X153852619Y-96852380D02*
X153900238Y-96947619D01*
X153995476Y-96995238D01*
X154852619Y-96995238D01*
X153852619Y-96471428D02*
X154519285Y-96471428D01*
X154424047Y-96471428D02*
X154471666Y-96423809D01*
X154519285Y-96328571D01*
X154519285Y-96185714D01*
X154471666Y-96090476D01*
X154376428Y-96042857D01*
X153852619Y-96042857D01*
X154376428Y-96042857D02*
X154471666Y-95995238D01*
X154519285Y-95900000D01*
X154519285Y-95757142D01*
X154471666Y-95661904D01*
X154376428Y-95614285D01*
X153852619Y-95614285D01*
X154328809Y-94519047D02*
X154376428Y-94566666D01*
X154424047Y-94661904D01*
X154424047Y-94757142D01*
X154376428Y-94852380D01*
X154328809Y-94900000D01*
X154233571Y-94947619D01*
X154138333Y-94947619D01*
X154043095Y-94900000D01*
X153995476Y-94852380D01*
X153947857Y-94757142D01*
X153947857Y-94661904D01*
X153995476Y-94566666D01*
X154043095Y-94519047D01*
X154424047Y-94519047D02*
X154043095Y-94519047D01*
X153995476Y-94471428D01*
X153995476Y-94423809D01*
X154043095Y-94328571D01*
X154138333Y-94280952D01*
X154376428Y-94280952D01*
X154519285Y-94376190D01*
X154614523Y-94519047D01*
X154662142Y-94709523D01*
X154614523Y-94900000D01*
X154519285Y-95042857D01*
X154376428Y-95138095D01*
X154185952Y-95185714D01*
X153995476Y-95138095D01*
X153852619Y-95042857D01*
X153757380Y-94900000D01*
X153709761Y-94709523D01*
X153757380Y-94519047D01*
X153852619Y-94376190D01*
X153852619Y-93852380D02*
X154852619Y-93852380D01*
X154376428Y-93852380D02*
X154376428Y-93280952D01*
X153852619Y-93280952D02*
X154852619Y-93280952D01*
X154519285Y-92376190D02*
X153852619Y-92376190D01*
X154519285Y-92804761D02*
X153995476Y-92804761D01*
X153900238Y-92757142D01*
X153852619Y-92661904D01*
X153852619Y-92519047D01*
X153900238Y-92423809D01*
X153947857Y-92376190D01*
X154519285Y-92042857D02*
X154519285Y-91661904D01*
X154852619Y-91900000D02*
X153995476Y-91900000D01*
X153900238Y-91852380D01*
X153852619Y-91757142D01*
X153852619Y-91661904D01*
X153900238Y-91376190D02*
X153852619Y-91280952D01*
X153852619Y-91090476D01*
X153900238Y-90995238D01*
X153995476Y-90947619D01*
X154043095Y-90947619D01*
X154138333Y-90995238D01*
X154185952Y-91090476D01*
X154185952Y-91233333D01*
X154233571Y-91328571D01*
X154328809Y-91376190D01*
X154376428Y-91376190D01*
X154471666Y-91328571D01*
X154519285Y-91233333D01*
X154519285Y-91090476D01*
X154471666Y-90995238D01*
X153900238Y-90090476D02*
X153852619Y-90185714D01*
X153852619Y-90376190D01*
X153900238Y-90471428D01*
X153947857Y-90519047D01*
X154043095Y-90566666D01*
X154328809Y-90566666D01*
X154424047Y-90519047D01*
X154471666Y-90471428D01*
X154519285Y-90376190D01*
X154519285Y-90185714D01*
X154471666Y-90090476D01*
X153852619Y-89233333D02*
X154376428Y-89233333D01*
X154471666Y-89280952D01*
X154519285Y-89376190D01*
X154519285Y-89566666D01*
X154471666Y-89661904D01*
X153900238Y-89233333D02*
X153852619Y-89328571D01*
X153852619Y-89566666D01*
X153900238Y-89661904D01*
X153995476Y-89709523D01*
X154090714Y-89709523D01*
X154185952Y-89661904D01*
X154233571Y-89566666D01*
X154233571Y-89328571D01*
X154281190Y-89233333D01*
X154519285Y-88757142D02*
X153519285Y-88757142D01*
X154471666Y-88757142D02*
X154519285Y-88661904D01*
X154519285Y-88471428D01*
X154471666Y-88376190D01*
X154424047Y-88328571D01*
X154328809Y-88280952D01*
X154043095Y-88280952D01*
X153947857Y-88328571D01*
X153900238Y-88376190D01*
X153852619Y-88471428D01*
X153852619Y-88661904D01*
X153900238Y-88757142D01*
X153900238Y-87471428D02*
X153852619Y-87566666D01*
X153852619Y-87757142D01*
X153900238Y-87852380D01*
X153995476Y-87900000D01*
X154376428Y-87900000D01*
X154471666Y-87852380D01*
X154519285Y-87757142D01*
X154519285Y-87566666D01*
X154471666Y-87471428D01*
X154376428Y-87423809D01*
X154281190Y-87423809D01*
X154185952Y-87900000D01*
X154852619Y-86376190D02*
X153852619Y-86042857D01*
X154852619Y-85709523D01*
X153852619Y-84852380D02*
X153852619Y-85423809D01*
X153852619Y-85138095D02*
X154852619Y-85138095D01*
X154709761Y-85233333D01*
X154614523Y-85328571D01*
X154566904Y-85423809D01*
X153947857Y-84423809D02*
X153900238Y-84376190D01*
X153852619Y-84423809D01*
X153900238Y-84471428D01*
X153947857Y-84423809D01*
X153852619Y-84423809D01*
X154852619Y-83757142D02*
X154852619Y-83661904D01*
X154805000Y-83566666D01*
X154757380Y-83519047D01*
X154662142Y-83471428D01*
X154471666Y-83423809D01*
X154233571Y-83423809D01*
X154043095Y-83471428D01*
X153947857Y-83519047D01*
X153900238Y-83566666D01*
X153852619Y-83661904D01*
X153852619Y-83757142D01*
X153900238Y-83852380D01*
X153947857Y-83900000D01*
X154043095Y-83947619D01*
X154233571Y-83995238D01*
X154471666Y-83995238D01*
X154662142Y-83947619D01*
X154757380Y-83900000D01*
X154805000Y-83852380D01*
X154852619Y-83757142D01*
X154757380Y-82280952D02*
X154805000Y-82233333D01*
X154852619Y-82138095D01*
X154852619Y-81900000D01*
X154805000Y-81804761D01*
X154757380Y-81757142D01*
X154662142Y-81709523D01*
X154566904Y-81709523D01*
X154424047Y-81757142D01*
X153852619Y-82328571D01*
X153852619Y-81709523D01*
X154852619Y-81090476D02*
X154852619Y-80995238D01*
X154805000Y-80900000D01*
X154757380Y-80852380D01*
X154662142Y-80804761D01*
X154471666Y-80757142D01*
X154233571Y-80757142D01*
X154043095Y-80804761D01*
X153947857Y-80852380D01*
X153900238Y-80900000D01*
X153852619Y-80995238D01*
X153852619Y-81090476D01*
X153900238Y-81185714D01*
X153947857Y-81233333D01*
X154043095Y-81280952D01*
X154233571Y-81328571D01*
X154471666Y-81328571D01*
X154662142Y-81280952D01*
X154757380Y-81233333D01*
X154805000Y-81185714D01*
X154852619Y-81090476D01*
X153852619Y-79804761D02*
X153852619Y-80376190D01*
X153852619Y-80090476D02*
X154852619Y-80090476D01*
X154709761Y-80185714D01*
X154614523Y-80280952D01*
X154566904Y-80376190D01*
X153852619Y-79328571D02*
X153852619Y-79138095D01*
X153900238Y-79042857D01*
X153947857Y-78995238D01*
X154090714Y-78900000D01*
X154281190Y-78852380D01*
X154662142Y-78852380D01*
X154757380Y-78900000D01*
X154805000Y-78947619D01*
X154852619Y-79042857D01*
X154852619Y-79233333D01*
X154805000Y-79328571D01*
X154757380Y-79376190D01*
X154662142Y-79423809D01*
X154424047Y-79423809D01*
X154328809Y-79376190D01*
X154281190Y-79328571D01*
X154233571Y-79233333D01*
X154233571Y-79042857D01*
X154281190Y-78947619D01*
X154328809Y-78900000D01*
X154424047Y-78852380D01*
D11*
G36*
X152826424Y-88399036D02*
G01*
X152425678Y-88323487D01*
X152195846Y-87765959D01*
X152423252Y-87431535D01*
X152486569Y-87337878D01*
X152543104Y-87253218D01*
X152590273Y-87181505D01*
X152625498Y-87126689D01*
X152646195Y-87092720D01*
X152650658Y-87083470D01*
X152639180Y-87066805D01*
X152607449Y-87031194D01*
X152559517Y-86980629D01*
X152499438Y-86919100D01*
X152431267Y-86850601D01*
X152359055Y-86779121D01*
X152286858Y-86708653D01*
X152218727Y-86643189D01*
X152158717Y-86586720D01*
X152110881Y-86543237D01*
X152079273Y-86516732D01*
X152068695Y-86510395D01*
X152049194Y-86519514D01*
X152006469Y-86545080D01*
X151944702Y-86584403D01*
X151868069Y-86634797D01*
X151780752Y-86693573D01*
X151730948Y-86727632D01*
X151640007Y-86789711D01*
X151557941Y-86844874D01*
X151488837Y-86890446D01*
X151436778Y-86923750D01*
X151405850Y-86942110D01*
X151399350Y-86944869D01*
X151380879Y-86938615D01*
X151337828Y-86921566D01*
X151276251Y-86896297D01*
X151202201Y-86865378D01*
X151121730Y-86831382D01*
X151040893Y-86796882D01*
X150965742Y-86764449D01*
X150902329Y-86736657D01*
X150856707Y-86716077D01*
X150834931Y-86705281D01*
X150834074Y-86704644D01*
X150829916Y-86687693D01*
X150820639Y-86642549D01*
X150807156Y-86573890D01*
X150790379Y-86486398D01*
X150771219Y-86384750D01*
X150760170Y-86325444D01*
X150739490Y-86216828D01*
X150719811Y-86118723D01*
X150702211Y-86036091D01*
X150687767Y-85973896D01*
X150677554Y-85937101D01*
X150674314Y-85929704D01*
X150652383Y-85922460D01*
X150602853Y-85916615D01*
X150531515Y-85912165D01*
X150444161Y-85909107D01*
X150346583Y-85907435D01*
X150244574Y-85907147D01*
X150143925Y-85908239D01*
X150050428Y-85910706D01*
X149969875Y-85914544D01*
X149908058Y-85919750D01*
X149870770Y-85926319D01*
X149863007Y-85930259D01*
X149853702Y-85953812D01*
X149840400Y-86003718D01*
X149824663Y-86073377D01*
X149808054Y-86156187D01*
X149802681Y-86185095D01*
X149777152Y-86324469D01*
X149756592Y-86434564D01*
X149740185Y-86519018D01*
X149727113Y-86581470D01*
X149716559Y-86625556D01*
X149707706Y-86654915D01*
X149699737Y-86673185D01*
X149691835Y-86684002D01*
X149690273Y-86685515D01*
X149665114Y-86700623D01*
X149616150Y-86723671D01*
X149549379Y-86752356D01*
X149470795Y-86784378D01*
X149386393Y-86817435D01*
X149302170Y-86849227D01*
X149224121Y-86877451D01*
X149158241Y-86899807D01*
X149110527Y-86913993D01*
X149086973Y-86917707D01*
X149086148Y-86917398D01*
X149066896Y-86904811D01*
X149024537Y-86876256D01*
X148963479Y-86834733D01*
X148888132Y-86783244D01*
X148802904Y-86724789D01*
X148778685Y-86708142D01*
X148690877Y-86648785D01*
X148610762Y-86596553D01*
X148542938Y-86554292D01*
X148492007Y-86524847D01*
X148462569Y-86511063D01*
X148458952Y-86510395D01*
X148439943Y-86521976D01*
X148402286Y-86553976D01*
X148350027Y-86602282D01*
X148287214Y-86662780D01*
X148217894Y-86731356D01*
X148146115Y-86803896D01*
X148075923Y-86876288D01*
X148011365Y-86944416D01*
X147956490Y-87004168D01*
X147915344Y-87051429D01*
X147891974Y-87082087D01*
X147888158Y-87090568D01*
X147897145Y-87110309D01*
X147921384Y-87150726D01*
X147956791Y-87205237D01*
X147985289Y-87247177D01*
X148037582Y-87323171D01*
X148099155Y-87413166D01*
X148160630Y-87503436D01*
X148193531Y-87551968D01*
X148304641Y-87716238D01*
X148230084Y-87854131D01*
X148197422Y-87916951D01*
X148172034Y-87970371D01*
X148157554Y-88006516D01*
X148155540Y-88015716D01*
X148170416Y-88026779D01*
X148212453Y-88048606D01*
X148277773Y-88079566D01*
X148362500Y-88118030D01*
X148462755Y-88162368D01*
X148574661Y-88210953D01*
X148694341Y-88262154D01*
X148817916Y-88314341D01*
X148941509Y-88365887D01*
X149061243Y-88415160D01*
X149173241Y-88460533D01*
X149273623Y-88500375D01*
X149358514Y-88533058D01*
X149424035Y-88556951D01*
X149466310Y-88570426D01*
X149480828Y-88572594D01*
X149499347Y-88555417D01*
X149529410Y-88517810D01*
X149564768Y-88467634D01*
X149567566Y-88463422D01*
X149671375Y-88333736D01*
X149792485Y-88229166D01*
X149927024Y-88150619D01*
X150071118Y-88099001D01*
X150220895Y-88075218D01*
X150372483Y-88080177D01*
X150522008Y-88114783D01*
X150665600Y-88179943D01*
X150697016Y-88199114D01*
X150823875Y-88298826D01*
X150925745Y-88416623D01*
X151002096Y-88548429D01*
X151052398Y-88690167D01*
X151076121Y-88837758D01*
X151072735Y-88987127D01*
X151041712Y-89134197D01*
X150982520Y-89274889D01*
X150894631Y-89405127D01*
X150858958Y-89445414D01*
X150747294Y-89547945D01*
X150629743Y-89622659D01*
X150497980Y-89673910D01*
X150367493Y-89702454D01*
X150220784Y-89709500D01*
X150073347Y-89686004D01*
X149930166Y-89634351D01*
X149796223Y-89556929D01*
X149676502Y-89456125D01*
X149575986Y-89334324D01*
X149565391Y-89318316D01*
X149530694Y-89267602D01*
X149500630Y-89229050D01*
X149481435Y-89210619D01*
X149480828Y-89210351D01*
X149460064Y-89214308D01*
X149412938Y-89229993D01*
X149343327Y-89255778D01*
X149255107Y-89290031D01*
X149152156Y-89331123D01*
X149038350Y-89377424D01*
X148917565Y-89427304D01*
X148793679Y-89479133D01*
X148670568Y-89531281D01*
X148552109Y-89582118D01*
X148442177Y-89630013D01*
X148344651Y-89673338D01*
X148263407Y-89710462D01*
X148202321Y-89739756D01*
X148165270Y-89759588D01*
X148155540Y-89767574D01*
X148163117Y-89791979D01*
X148183440Y-89837642D01*
X148212875Y-89896690D01*
X148230084Y-89929160D01*
X148304641Y-90067053D01*
X148193531Y-90231323D01*
X148136610Y-90315179D01*
X148073970Y-90406987D01*
X148014989Y-90493020D01*
X147985289Y-90536113D01*
X147944590Y-90596723D01*
X147912337Y-90648045D01*
X147892616Y-90683385D01*
X147888446Y-90694863D01*
X147899693Y-90711570D01*
X147931089Y-90748546D01*
X147979376Y-90802205D01*
X148041292Y-90868962D01*
X148113579Y-90945234D01*
X148159992Y-90993473D01*
X148242913Y-91077867D01*
X148317080Y-91150803D01*
X148379320Y-91209331D01*
X148426459Y-91250503D01*
X148455327Y-91271372D01*
X148461185Y-91273374D01*
X148483468Y-91264083D01*
X148528523Y-91238409D01*
X148591789Y-91199200D01*
X148668705Y-91149303D01*
X148754708Y-91091567D01*
X148778685Y-91075149D01*
X148865830Y-91015323D01*
X148944290Y-90961650D01*
X149009655Y-90917130D01*
X149057516Y-90884765D01*
X149083465Y-90867555D01*
X149086148Y-90865893D01*
X149106828Y-90868379D01*
X149152296Y-90881577D01*
X149216556Y-90903186D01*
X149293613Y-90930904D01*
X149377471Y-90962430D01*
X149462134Y-90995463D01*
X149541608Y-91027701D01*
X149609896Y-91056843D01*
X149661003Y-91080588D01*
X149688933Y-91096635D01*
X149690273Y-91097775D01*
X149698255Y-91107588D01*
X149706149Y-91124161D01*
X149714771Y-91151132D01*
X149724938Y-91192139D01*
X149737469Y-91250820D01*
X149753179Y-91330813D01*
X149772887Y-91435755D01*
X149797408Y-91569285D01*
X149802681Y-91598196D01*
X149819236Y-91683882D01*
X149835431Y-91758582D01*
X149849704Y-91815694D01*
X149860492Y-91848617D01*
X149863007Y-91853031D01*
X149885304Y-91860306D01*
X149935131Y-91866219D01*
X150006696Y-91870766D01*
X150094207Y-91873945D01*
X150191872Y-91875749D01*
X150293899Y-91876177D01*
X150394497Y-91875223D01*
X150487873Y-91872884D01*
X150568235Y-91869156D01*
X150629791Y-91864034D01*
X150666750Y-91857516D01*
X150674314Y-91853586D01*
X150681944Y-91831708D01*
X150694358Y-91781891D01*
X150710478Y-91709097D01*
X150729227Y-91618289D01*
X150749529Y-91514431D01*
X150760170Y-91457846D01*
X150780240Y-91350486D01*
X150798420Y-91254746D01*
X150813801Y-91175306D01*
X150825469Y-91116846D01*
X150832512Y-91084045D01*
X150834074Y-91078646D01*
X150851678Y-91069522D01*
X150894082Y-91050235D01*
X150955228Y-91023355D01*
X151029057Y-90991454D01*
X151109511Y-90957102D01*
X151190532Y-90922871D01*
X151266063Y-90891331D01*
X151330045Y-90865054D01*
X151376420Y-90846611D01*
X151399131Y-90838571D01*
X151400124Y-90838422D01*
X151418039Y-90847535D01*
X151459267Y-90873086D01*
X151519709Y-90912388D01*
X151595269Y-90962757D01*
X151681848Y-91021506D01*
X151731579Y-91055658D01*
X151822764Y-91117890D01*
X151905551Y-91173164D01*
X151975751Y-91218782D01*
X152029176Y-91252048D01*
X152061639Y-91270264D01*
X152068917Y-91272895D01*
X152085855Y-91261586D01*
X152122022Y-91230319D01*
X152173365Y-91183090D01*
X152235833Y-91123892D01*
X152305374Y-91056719D01*
X152377935Y-90985566D01*
X152449465Y-90914426D01*
X152515913Y-90847293D01*
X152573226Y-90788161D01*
X152617353Y-90741025D01*
X152644241Y-90709877D01*
X152650658Y-90699457D01*
X152641635Y-90682491D01*
X152616285Y-90641911D01*
X152577190Y-90581663D01*
X152526929Y-90505693D01*
X152468083Y-90417946D01*
X152423252Y-90351756D01*
X152195846Y-90017332D01*
X152310762Y-89738567D01*
X152425678Y-89459803D01*
X152826424Y-89384254D01*
X153227171Y-89308706D01*
X153227171Y-88474585D01*
X152826424Y-88399036D01*
X152826424Y-88399036D01*
G37*
X152826424Y-88399036D02*
X152425678Y-88323487D01*
X152195846Y-87765959D01*
X152423252Y-87431535D01*
X152486569Y-87337878D01*
X152543104Y-87253218D01*
X152590273Y-87181505D01*
X152625498Y-87126689D01*
X152646195Y-87092720D01*
X152650658Y-87083470D01*
X152639180Y-87066805D01*
X152607449Y-87031194D01*
X152559517Y-86980629D01*
X152499438Y-86919100D01*
X152431267Y-86850601D01*
X152359055Y-86779121D01*
X152286858Y-86708653D01*
X152218727Y-86643189D01*
X152158717Y-86586720D01*
X152110881Y-86543237D01*
X152079273Y-86516732D01*
X152068695Y-86510395D01*
X152049194Y-86519514D01*
X152006469Y-86545080D01*
X151944702Y-86584403D01*
X151868069Y-86634797D01*
X151780752Y-86693573D01*
X151730948Y-86727632D01*
X151640007Y-86789711D01*
X151557941Y-86844874D01*
X151488837Y-86890446D01*
X151436778Y-86923750D01*
X151405850Y-86942110D01*
X151399350Y-86944869D01*
X151380879Y-86938615D01*
X151337828Y-86921566D01*
X151276251Y-86896297D01*
X151202201Y-86865378D01*
X151121730Y-86831382D01*
X151040893Y-86796882D01*
X150965742Y-86764449D01*
X150902329Y-86736657D01*
X150856707Y-86716077D01*
X150834931Y-86705281D01*
X150834074Y-86704644D01*
X150829916Y-86687693D01*
X150820639Y-86642549D01*
X150807156Y-86573890D01*
X150790379Y-86486398D01*
X150771219Y-86384750D01*
X150760170Y-86325444D01*
X150739490Y-86216828D01*
X150719811Y-86118723D01*
X150702211Y-86036091D01*
X150687767Y-85973896D01*
X150677554Y-85937101D01*
X150674314Y-85929704D01*
X150652383Y-85922460D01*
X150602853Y-85916615D01*
X150531515Y-85912165D01*
X150444161Y-85909107D01*
X150346583Y-85907435D01*
X150244574Y-85907147D01*
X150143925Y-85908239D01*
X150050428Y-85910706D01*
X149969875Y-85914544D01*
X149908058Y-85919750D01*
X149870770Y-85926319D01*
X149863007Y-85930259D01*
X149853702Y-85953812D01*
X149840400Y-86003718D01*
X149824663Y-86073377D01*
X149808054Y-86156187D01*
X149802681Y-86185095D01*
X149777152Y-86324469D01*
X149756592Y-86434564D01*
X149740185Y-86519018D01*
X149727113Y-86581470D01*
X149716559Y-86625556D01*
X149707706Y-86654915D01*
X149699737Y-86673185D01*
X149691835Y-86684002D01*
X149690273Y-86685515D01*
X149665114Y-86700623D01*
X149616150Y-86723671D01*
X149549379Y-86752356D01*
X149470795Y-86784378D01*
X149386393Y-86817435D01*
X149302170Y-86849227D01*
X149224121Y-86877451D01*
X149158241Y-86899807D01*
X149110527Y-86913993D01*
X149086973Y-86917707D01*
X149086148Y-86917398D01*
X149066896Y-86904811D01*
X149024537Y-86876256D01*
X148963479Y-86834733D01*
X148888132Y-86783244D01*
X148802904Y-86724789D01*
X148778685Y-86708142D01*
X148690877Y-86648785D01*
X148610762Y-86596553D01*
X148542938Y-86554292D01*
X148492007Y-86524847D01*
X148462569Y-86511063D01*
X148458952Y-86510395D01*
X148439943Y-86521976D01*
X148402286Y-86553976D01*
X148350027Y-86602282D01*
X148287214Y-86662780D01*
X148217894Y-86731356D01*
X148146115Y-86803896D01*
X148075923Y-86876288D01*
X148011365Y-86944416D01*
X147956490Y-87004168D01*
X147915344Y-87051429D01*
X147891974Y-87082087D01*
X147888158Y-87090568D01*
X147897145Y-87110309D01*
X147921384Y-87150726D01*
X147956791Y-87205237D01*
X147985289Y-87247177D01*
X148037582Y-87323171D01*
X148099155Y-87413166D01*
X148160630Y-87503436D01*
X148193531Y-87551968D01*
X148304641Y-87716238D01*
X148230084Y-87854131D01*
X148197422Y-87916951D01*
X148172034Y-87970371D01*
X148157554Y-88006516D01*
X148155540Y-88015716D01*
X148170416Y-88026779D01*
X148212453Y-88048606D01*
X148277773Y-88079566D01*
X148362500Y-88118030D01*
X148462755Y-88162368D01*
X148574661Y-88210953D01*
X148694341Y-88262154D01*
X148817916Y-88314341D01*
X148941509Y-88365887D01*
X149061243Y-88415160D01*
X149173241Y-88460533D01*
X149273623Y-88500375D01*
X149358514Y-88533058D01*
X149424035Y-88556951D01*
X149466310Y-88570426D01*
X149480828Y-88572594D01*
X149499347Y-88555417D01*
X149529410Y-88517810D01*
X149564768Y-88467634D01*
X149567566Y-88463422D01*
X149671375Y-88333736D01*
X149792485Y-88229166D01*
X149927024Y-88150619D01*
X150071118Y-88099001D01*
X150220895Y-88075218D01*
X150372483Y-88080177D01*
X150522008Y-88114783D01*
X150665600Y-88179943D01*
X150697016Y-88199114D01*
X150823875Y-88298826D01*
X150925745Y-88416623D01*
X151002096Y-88548429D01*
X151052398Y-88690167D01*
X151076121Y-88837758D01*
X151072735Y-88987127D01*
X151041712Y-89134197D01*
X150982520Y-89274889D01*
X150894631Y-89405127D01*
X150858958Y-89445414D01*
X150747294Y-89547945D01*
X150629743Y-89622659D01*
X150497980Y-89673910D01*
X150367493Y-89702454D01*
X150220784Y-89709500D01*
X150073347Y-89686004D01*
X149930166Y-89634351D01*
X149796223Y-89556929D01*
X149676502Y-89456125D01*
X149575986Y-89334324D01*
X149565391Y-89318316D01*
X149530694Y-89267602D01*
X149500630Y-89229050D01*
X149481435Y-89210619D01*
X149480828Y-89210351D01*
X149460064Y-89214308D01*
X149412938Y-89229993D01*
X149343327Y-89255778D01*
X149255107Y-89290031D01*
X149152156Y-89331123D01*
X149038350Y-89377424D01*
X148917565Y-89427304D01*
X148793679Y-89479133D01*
X148670568Y-89531281D01*
X148552109Y-89582118D01*
X148442177Y-89630013D01*
X148344651Y-89673338D01*
X148263407Y-89710462D01*
X148202321Y-89739756D01*
X148165270Y-89759588D01*
X148155540Y-89767574D01*
X148163117Y-89791979D01*
X148183440Y-89837642D01*
X148212875Y-89896690D01*
X148230084Y-89929160D01*
X148304641Y-90067053D01*
X148193531Y-90231323D01*
X148136610Y-90315179D01*
X148073970Y-90406987D01*
X148014989Y-90493020D01*
X147985289Y-90536113D01*
X147944590Y-90596723D01*
X147912337Y-90648045D01*
X147892616Y-90683385D01*
X147888446Y-90694863D01*
X147899693Y-90711570D01*
X147931089Y-90748546D01*
X147979376Y-90802205D01*
X148041292Y-90868962D01*
X148113579Y-90945234D01*
X148159992Y-90993473D01*
X148242913Y-91077867D01*
X148317080Y-91150803D01*
X148379320Y-91209331D01*
X148426459Y-91250503D01*
X148455327Y-91271372D01*
X148461185Y-91273374D01*
X148483468Y-91264083D01*
X148528523Y-91238409D01*
X148591789Y-91199200D01*
X148668705Y-91149303D01*
X148754708Y-91091567D01*
X148778685Y-91075149D01*
X148865830Y-91015323D01*
X148944290Y-90961650D01*
X149009655Y-90917130D01*
X149057516Y-90884765D01*
X149083465Y-90867555D01*
X149086148Y-90865893D01*
X149106828Y-90868379D01*
X149152296Y-90881577D01*
X149216556Y-90903186D01*
X149293613Y-90930904D01*
X149377471Y-90962430D01*
X149462134Y-90995463D01*
X149541608Y-91027701D01*
X149609896Y-91056843D01*
X149661003Y-91080588D01*
X149688933Y-91096635D01*
X149690273Y-91097775D01*
X149698255Y-91107588D01*
X149706149Y-91124161D01*
X149714771Y-91151132D01*
X149724938Y-91192139D01*
X149737469Y-91250820D01*
X149753179Y-91330813D01*
X149772887Y-91435755D01*
X149797408Y-91569285D01*
X149802681Y-91598196D01*
X149819236Y-91683882D01*
X149835431Y-91758582D01*
X149849704Y-91815694D01*
X149860492Y-91848617D01*
X149863007Y-91853031D01*
X149885304Y-91860306D01*
X149935131Y-91866219D01*
X150006696Y-91870766D01*
X150094207Y-91873945D01*
X150191872Y-91875749D01*
X150293899Y-91876177D01*
X150394497Y-91875223D01*
X150487873Y-91872884D01*
X150568235Y-91869156D01*
X150629791Y-91864034D01*
X150666750Y-91857516D01*
X150674314Y-91853586D01*
X150681944Y-91831708D01*
X150694358Y-91781891D01*
X150710478Y-91709097D01*
X150729227Y-91618289D01*
X150749529Y-91514431D01*
X150760170Y-91457846D01*
X150780240Y-91350486D01*
X150798420Y-91254746D01*
X150813801Y-91175306D01*
X150825469Y-91116846D01*
X150832512Y-91084045D01*
X150834074Y-91078646D01*
X150851678Y-91069522D01*
X150894082Y-91050235D01*
X150955228Y-91023355D01*
X151029057Y-90991454D01*
X151109511Y-90957102D01*
X151190532Y-90922871D01*
X151266063Y-90891331D01*
X151330045Y-90865054D01*
X151376420Y-90846611D01*
X151399131Y-90838571D01*
X151400124Y-90838422D01*
X151418039Y-90847535D01*
X151459267Y-90873086D01*
X151519709Y-90912388D01*
X151595269Y-90962757D01*
X151681848Y-91021506D01*
X151731579Y-91055658D01*
X151822764Y-91117890D01*
X151905551Y-91173164D01*
X151975751Y-91218782D01*
X152029176Y-91252048D01*
X152061639Y-91270264D01*
X152068917Y-91272895D01*
X152085855Y-91261586D01*
X152122022Y-91230319D01*
X152173365Y-91183090D01*
X152235833Y-91123892D01*
X152305374Y-91056719D01*
X152377935Y-90985566D01*
X152449465Y-90914426D01*
X152515913Y-90847293D01*
X152573226Y-90788161D01*
X152617353Y-90741025D01*
X152644241Y-90709877D01*
X152650658Y-90699457D01*
X152641635Y-90682491D01*
X152616285Y-90641911D01*
X152577190Y-90581663D01*
X152526929Y-90505693D01*
X152468083Y-90417946D01*
X152423252Y-90351756D01*
X152195846Y-90017332D01*
X152310762Y-89738567D01*
X152425678Y-89459803D01*
X152826424Y-89384254D01*
X153227171Y-89308706D01*
X153227171Y-88474585D01*
X152826424Y-88399036D01*
G36*
X147287355Y-86508612D02*
G01*
X147269794Y-86451135D01*
X147247605Y-86414128D01*
X147230058Y-86402073D01*
X147209258Y-86405391D01*
X147176581Y-86426921D01*
X147153438Y-86445126D01*
X147111598Y-86482656D01*
X147093995Y-86510852D01*
X147095144Y-86534889D01*
X147113290Y-86606192D01*
X147112466Y-86658558D01*
X147091902Y-86701082D01*
X147079866Y-86715358D01*
X147037517Y-86761053D01*
X146484474Y-86761053D01*
X146484474Y-86944869D01*
X147286579Y-86944869D01*
X147286579Y-86852961D01*
X147284397Y-86797781D01*
X147276649Y-86769312D01*
X147261532Y-86761057D01*
X147261084Y-86761053D01*
X147245251Y-86757155D01*
X147247316Y-86739526D01*
X147258739Y-86715099D01*
X147279995Y-86664650D01*
X147292784Y-86623684D01*
X147296062Y-86570972D01*
X147287355Y-86508612D01*
X147287355Y-86508612D01*
G37*
X147287355Y-86508612D02*
X147269794Y-86451135D01*
X147247605Y-86414128D01*
X147230058Y-86402073D01*
X147209258Y-86405391D01*
X147176581Y-86426921D01*
X147153438Y-86445126D01*
X147111598Y-86482656D01*
X147093995Y-86510852D01*
X147095144Y-86534889D01*
X147113290Y-86606192D01*
X147112466Y-86658558D01*
X147091902Y-86701082D01*
X147079866Y-86715358D01*
X147037517Y-86761053D01*
X146484474Y-86761053D01*
X146484474Y-86944869D01*
X147286579Y-86944869D01*
X147286579Y-86852961D01*
X147284397Y-86797781D01*
X147276649Y-86769312D01*
X147261532Y-86761057D01*
X147261084Y-86761053D01*
X147245251Y-86757155D01*
X147247316Y-86739526D01*
X147258739Y-86715099D01*
X147279995Y-86664650D01*
X147292784Y-86623684D01*
X147296062Y-86570972D01*
X147287355Y-86508612D01*
G36*
X147272774Y-89902043D02*
G01*
X147252910Y-89860454D01*
X147224216Y-89820175D01*
X147191191Y-89789490D01*
X147149069Y-89767139D01*
X147093085Y-89751864D01*
X147018472Y-89742408D01*
X146920465Y-89737513D01*
X146794298Y-89735919D01*
X146781086Y-89735894D01*
X146484474Y-89735527D01*
X146484474Y-89919343D01*
X146757919Y-89919343D01*
X146859223Y-89919473D01*
X146932647Y-89920379D01*
X146983729Y-89922827D01*
X147018010Y-89927586D01*
X147041029Y-89935426D01*
X147058327Y-89947115D01*
X147075419Y-89963398D01*
X147112143Y-90020366D01*
X147118958Y-90082555D01*
X147095739Y-90141801D01*
X147078457Y-90162405D01*
X147062209Y-90177530D01*
X147044809Y-90188390D01*
X147020788Y-90195690D01*
X146984678Y-90200137D01*
X146931012Y-90202436D01*
X146854320Y-90203296D01*
X146760957Y-90203422D01*
X146484474Y-90203422D01*
X146484474Y-90387237D01*
X147286579Y-90387237D01*
X147286579Y-90295329D01*
X147284397Y-90240149D01*
X147276649Y-90211680D01*
X147261532Y-90203425D01*
X147261084Y-90203422D01*
X147246280Y-90199592D01*
X147247960Y-90182699D01*
X147264227Y-90149112D01*
X147288160Y-90072937D01*
X147290822Y-89985800D01*
X147272774Y-89902043D01*
X147272774Y-89902043D01*
G37*
X147272774Y-89902043D02*
X147252910Y-89860454D01*
X147224216Y-89820175D01*
X147191191Y-89789490D01*
X147149069Y-89767139D01*
X147093085Y-89751864D01*
X147018472Y-89742408D01*
X146920465Y-89737513D01*
X146794298Y-89735919D01*
X146781086Y-89735894D01*
X146484474Y-89735527D01*
X146484474Y-89919343D01*
X146757919Y-89919343D01*
X146859223Y-89919473D01*
X146932647Y-89920379D01*
X146983729Y-89922827D01*
X147018010Y-89927586D01*
X147041029Y-89935426D01*
X147058327Y-89947115D01*
X147075419Y-89963398D01*
X147112143Y-90020366D01*
X147118958Y-90082555D01*
X147095739Y-90141801D01*
X147078457Y-90162405D01*
X147062209Y-90177530D01*
X147044809Y-90188390D01*
X147020788Y-90195690D01*
X146984678Y-90200137D01*
X146931012Y-90202436D01*
X146854320Y-90203296D01*
X146760957Y-90203422D01*
X146484474Y-90203422D01*
X146484474Y-90387237D01*
X147286579Y-90387237D01*
X147286579Y-90295329D01*
X147284397Y-90240149D01*
X147276649Y-90211680D01*
X147261532Y-90203425D01*
X147261084Y-90203422D01*
X147246280Y-90199592D01*
X147247960Y-90182699D01*
X147264227Y-90149112D01*
X147288160Y-90072937D01*
X147290822Y-89985800D01*
X147272774Y-89902043D01*
G36*
X147289446Y-85341216D02*
G01*
X147279051Y-85298426D01*
X147240987Y-85216391D01*
X147182851Y-85146243D01*
X147113148Y-85097695D01*
X147097498Y-85091025D01*
X147056504Y-85081876D01*
X146995862Y-85075471D01*
X146934570Y-85073290D01*
X146818684Y-85073290D01*
X146818684Y-85315593D01*
X146818307Y-85415529D01*
X146816013Y-85485931D01*
X146810062Y-85530687D01*
X146798715Y-85553685D01*
X146780229Y-85558811D01*
X146752864Y-85549952D01*
X146720845Y-85534083D01*
X146667408Y-85489816D01*
X146640785Y-85428301D01*
X146641653Y-85353115D01*
X146670629Y-85267947D01*
X146706389Y-85194341D01*
X146658096Y-85133266D01*
X146609803Y-85072190D01*
X146556715Y-85129649D01*
X146506555Y-85206359D01*
X146476312Y-85300698D01*
X146467849Y-85402173D01*
X146483026Y-85500289D01*
X146488176Y-85516119D01*
X146533209Y-85602353D01*
X146600348Y-85666499D01*
X146691595Y-85709909D01*
X146808956Y-85733936D01*
X146811471Y-85734216D01*
X146939373Y-85736367D01*
X146985003Y-85727671D01*
X146985003Y-85557895D01*
X146977987Y-85542303D01*
X146972612Y-85499971D01*
X146969543Y-85437566D01*
X146969079Y-85398019D01*
X146969370Y-85324272D01*
X146971217Y-85278160D01*
X146976088Y-85253900D01*
X146985445Y-85245706D01*
X147000755Y-85247794D01*
X147006678Y-85249545D01*
X147062332Y-85279440D01*
X147107185Y-85326458D01*
X147126895Y-85367951D01*
X147125705Y-85423074D01*
X147101125Y-85478932D01*
X147060430Y-85525788D01*
X147010892Y-85553906D01*
X146985003Y-85557895D01*
X146985003Y-85727671D01*
X147051867Y-85714926D01*
X147146273Y-85672389D01*
X147219912Y-85611253D01*
X147270107Y-85534015D01*
X147294178Y-85443170D01*
X147289446Y-85341216D01*
X147289446Y-85341216D01*
G37*
X147289446Y-85341216D02*
X147279051Y-85298426D01*
X147240987Y-85216391D01*
X147182851Y-85146243D01*
X147113148Y-85097695D01*
X147097498Y-85091025D01*
X147056504Y-85081876D01*
X146995862Y-85075471D01*
X146934570Y-85073290D01*
X146818684Y-85073290D01*
X146818684Y-85315593D01*
X146818307Y-85415529D01*
X146816013Y-85485931D01*
X146810062Y-85530687D01*
X146798715Y-85553685D01*
X146780229Y-85558811D01*
X146752864Y-85549952D01*
X146720845Y-85534083D01*
X146667408Y-85489816D01*
X146640785Y-85428301D01*
X146641653Y-85353115D01*
X146670629Y-85267947D01*
X146706389Y-85194341D01*
X146658096Y-85133266D01*
X146609803Y-85072190D01*
X146556715Y-85129649D01*
X146506555Y-85206359D01*
X146476312Y-85300698D01*
X146467849Y-85402173D01*
X146483026Y-85500289D01*
X146488176Y-85516119D01*
X146533209Y-85602353D01*
X146600348Y-85666499D01*
X146691595Y-85709909D01*
X146808956Y-85733936D01*
X146811471Y-85734216D01*
X146939373Y-85736367D01*
X146985003Y-85727671D01*
X146985003Y-85557895D01*
X146977987Y-85542303D01*
X146972612Y-85499971D01*
X146969543Y-85437566D01*
X146969079Y-85398019D01*
X146969370Y-85324272D01*
X146971217Y-85278160D01*
X146976088Y-85253900D01*
X146985445Y-85245706D01*
X147000755Y-85247794D01*
X147006678Y-85249545D01*
X147062332Y-85279440D01*
X147107185Y-85326458D01*
X147126895Y-85367951D01*
X147125705Y-85423074D01*
X147101125Y-85478932D01*
X147060430Y-85525788D01*
X147010892Y-85553906D01*
X146985003Y-85557895D01*
X146985003Y-85727671D01*
X147051867Y-85714926D01*
X147146273Y-85672389D01*
X147219912Y-85611253D01*
X147270107Y-85534015D01*
X147294178Y-85443170D01*
X147289446Y-85341216D01*
G36*
X147279581Y-85953424D02*
G01*
X147238451Y-85856605D01*
X147218429Y-85826110D01*
X147187660Y-85787135D01*
X147163467Y-85762669D01*
X147155587Y-85758422D01*
X147138101Y-85770416D01*
X147108430Y-85801113D01*
X147087721Y-85825688D01*
X147033664Y-85892954D01*
X147078358Y-85946070D01*
X147107211Y-85987116D01*
X147117171Y-86027137D01*
X147114739Y-86072941D01*
X147096655Y-86145676D01*
X147059119Y-86195744D01*
X146998438Y-86226171D01*
X146910919Y-86239983D01*
X146910864Y-86239987D01*
X146813042Y-86238792D01*
X146741270Y-86220228D01*
X146692405Y-86183196D01*
X146675857Y-86157950D01*
X146655251Y-86090903D01*
X146655238Y-86019291D01*
X146675232Y-85956985D01*
X146685000Y-85942237D01*
X146709953Y-85905250D01*
X146714042Y-85876332D01*
X146695470Y-85845144D01*
X146662113Y-85810664D01*
X146605804Y-85756088D01*
X146555858Y-85816682D01*
X146499487Y-85910302D01*
X146471707Y-86015875D01*
X146473718Y-86126202D01*
X146492138Y-86198657D01*
X146537690Y-86283344D01*
X146609350Y-86351073D01*
X146659934Y-86381843D01*
X146732512Y-86406764D01*
X146824431Y-86419234D01*
X146924052Y-86419330D01*
X147019733Y-86407130D01*
X147099831Y-86382710D01*
X147108044Y-86378864D01*
X147188587Y-86321907D01*
X147247229Y-86244791D01*
X147282753Y-86153610D01*
X147293943Y-86054457D01*
X147279581Y-85953424D01*
X147279581Y-85953424D01*
G37*
X147279581Y-85953424D02*
X147238451Y-85856605D01*
X147218429Y-85826110D01*
X147187660Y-85787135D01*
X147163467Y-85762669D01*
X147155587Y-85758422D01*
X147138101Y-85770416D01*
X147108430Y-85801113D01*
X147087721Y-85825688D01*
X147033664Y-85892954D01*
X147078358Y-85946070D01*
X147107211Y-85987116D01*
X147117171Y-86027137D01*
X147114739Y-86072941D01*
X147096655Y-86145676D01*
X147059119Y-86195744D01*
X146998438Y-86226171D01*
X146910919Y-86239983D01*
X146910864Y-86239987D01*
X146813042Y-86238792D01*
X146741270Y-86220228D01*
X146692405Y-86183196D01*
X146675857Y-86157950D01*
X146655251Y-86090903D01*
X146655238Y-86019291D01*
X146675232Y-85956985D01*
X146685000Y-85942237D01*
X146709953Y-85905250D01*
X146714042Y-85876332D01*
X146695470Y-85845144D01*
X146662113Y-85810664D01*
X146605804Y-85756088D01*
X146555858Y-85816682D01*
X146499487Y-85910302D01*
X146471707Y-86015875D01*
X146473718Y-86126202D01*
X146492138Y-86198657D01*
X146537690Y-86283344D01*
X146609350Y-86351073D01*
X146659934Y-86381843D01*
X146732512Y-86406764D01*
X146824431Y-86419234D01*
X146924052Y-86419330D01*
X147019733Y-86407130D01*
X147099831Y-86382710D01*
X147108044Y-86378864D01*
X147188587Y-86321907D01*
X147247229Y-86244791D01*
X147282753Y-86153610D01*
X147293943Y-86054457D01*
X147279581Y-85953424D01*
G36*
X147026467Y-87579869D02*
G01*
X146903911Y-87578290D01*
X146810821Y-87572519D01*
X146743349Y-87561009D01*
X146697645Y-87542210D01*
X146669861Y-87514574D01*
X146656146Y-87476552D01*
X146652642Y-87429474D01*
X146656568Y-87380168D01*
X146670911Y-87342717D01*
X146699522Y-87315572D01*
X146746249Y-87297185D01*
X146814942Y-87286007D01*
X146909450Y-87280489D01*
X147026467Y-87279079D01*
X147286579Y-87279079D01*
X147286579Y-87095264D01*
X146484474Y-87095264D01*
X146484474Y-87187172D01*
X146486719Y-87242578D01*
X146494604Y-87271109D01*
X146509572Y-87279079D01*
X146522903Y-87283880D01*
X146520083Y-87302986D01*
X146501217Y-87341496D01*
X146472113Y-87429761D01*
X146474175Y-87523377D01*
X146505779Y-87613079D01*
X146530743Y-87655796D01*
X146557774Y-87688379D01*
X146591595Y-87712183D01*
X146636932Y-87728561D01*
X146698511Y-87738869D01*
X146781057Y-87744459D01*
X146889295Y-87746688D01*
X146972996Y-87746974D01*
X147286579Y-87746974D01*
X147286579Y-87579869D01*
X147026467Y-87579869D01*
X147026467Y-87579869D01*
G37*
X147026467Y-87579869D02*
X146903911Y-87578290D01*
X146810821Y-87572519D01*
X146743349Y-87561009D01*
X146697645Y-87542210D01*
X146669861Y-87514574D01*
X146656146Y-87476552D01*
X146652642Y-87429474D01*
X146656568Y-87380168D01*
X146670911Y-87342717D01*
X146699522Y-87315572D01*
X146746249Y-87297185D01*
X146814942Y-87286007D01*
X146909450Y-87280489D01*
X147026467Y-87279079D01*
X147286579Y-87279079D01*
X147286579Y-87095264D01*
X146484474Y-87095264D01*
X146484474Y-87187172D01*
X146486719Y-87242578D01*
X146494604Y-87271109D01*
X146509572Y-87279079D01*
X146522903Y-87283880D01*
X146520083Y-87302986D01*
X146501217Y-87341496D01*
X146472113Y-87429761D01*
X146474175Y-87523377D01*
X146505779Y-87613079D01*
X146530743Y-87655796D01*
X146557774Y-87688379D01*
X146591595Y-87712183D01*
X146636932Y-87728561D01*
X146698511Y-87738869D01*
X146781057Y-87744459D01*
X146889295Y-87746688D01*
X146972996Y-87746974D01*
X147286579Y-87746974D01*
X147286579Y-87579869D01*
X147026467Y-87579869D01*
G36*
X147276690Y-88088331D02*
G01*
X147230660Y-88003808D01*
X147157994Y-87937679D01*
X147098894Y-87906522D01*
X147046695Y-87893145D01*
X146972281Y-87884478D01*
X146886558Y-87880763D01*
X146800431Y-87882246D01*
X146724807Y-87889169D01*
X146684416Y-87897255D01*
X146629160Y-87924535D01*
X146570470Y-87971780D01*
X146519148Y-88028718D01*
X146485995Y-88085076D01*
X146485469Y-88086450D01*
X146470982Y-88156384D01*
X146470623Y-88239263D01*
X146483812Y-88318023D01*
X146494383Y-88348434D01*
X146538799Y-88426761D01*
X146596993Y-88482857D01*
X146674035Y-88519714D01*
X146774999Y-88540320D01*
X146827884Y-88544982D01*
X146894337Y-88544387D01*
X146894337Y-88365264D01*
X146797370Y-88359230D01*
X146723477Y-88341862D01*
X146676264Y-88314260D01*
X146662763Y-88294596D01*
X146653349Y-88244213D01*
X146656136Y-88184327D01*
X146669684Y-88132551D01*
X146677138Y-88118973D01*
X146720549Y-88083151D01*
X146786986Y-88059507D01*
X146867839Y-88049442D01*
X146954498Y-88054358D01*
X147006651Y-88065345D01*
X147067049Y-88096891D01*
X147104803Y-88146689D01*
X147117857Y-88206663D01*
X147104151Y-88268736D01*
X147070628Y-88316418D01*
X147042969Y-88341475D01*
X147015706Y-88356100D01*
X146978810Y-88363071D01*
X146922250Y-88365167D01*
X146894337Y-88365264D01*
X146894337Y-88544387D01*
X146969006Y-88543718D01*
X147084729Y-88520735D01*
X147175059Y-88476028D01*
X147240000Y-88409595D01*
X147279555Y-88321435D01*
X147284142Y-88302505D01*
X147294910Y-88188734D01*
X147276690Y-88088331D01*
X147276690Y-88088331D01*
G37*
X147276690Y-88088331D02*
X147230660Y-88003808D01*
X147157994Y-87937679D01*
X147098894Y-87906522D01*
X147046695Y-87893145D01*
X146972281Y-87884478D01*
X146886558Y-87880763D01*
X146800431Y-87882246D01*
X146724807Y-87889169D01*
X146684416Y-87897255D01*
X146629160Y-87924535D01*
X146570470Y-87971780D01*
X146519148Y-88028718D01*
X146485995Y-88085076D01*
X146485469Y-88086450D01*
X146470982Y-88156384D01*
X146470623Y-88239263D01*
X146483812Y-88318023D01*
X146494383Y-88348434D01*
X146538799Y-88426761D01*
X146596993Y-88482857D01*
X146674035Y-88519714D01*
X146774999Y-88540320D01*
X146827884Y-88544982D01*
X146894337Y-88544387D01*
X146894337Y-88365264D01*
X146797370Y-88359230D01*
X146723477Y-88341862D01*
X146676264Y-88314260D01*
X146662763Y-88294596D01*
X146653349Y-88244213D01*
X146656136Y-88184327D01*
X146669684Y-88132551D01*
X146677138Y-88118973D01*
X146720549Y-88083151D01*
X146786986Y-88059507D01*
X146867839Y-88049442D01*
X146954498Y-88054358D01*
X147006651Y-88065345D01*
X147067049Y-88096891D01*
X147104803Y-88146689D01*
X147117857Y-88206663D01*
X147104151Y-88268736D01*
X147070628Y-88316418D01*
X147042969Y-88341475D01*
X147015706Y-88356100D01*
X146978810Y-88363071D01*
X146922250Y-88365167D01*
X146894337Y-88365264D01*
X146894337Y-88544387D01*
X146969006Y-88543718D01*
X147084729Y-88520735D01*
X147175059Y-88476028D01*
X147240000Y-88409595D01*
X147279555Y-88321435D01*
X147284142Y-88302505D01*
X147294910Y-88188734D01*
X147276690Y-88088331D01*
G36*
X147289453Y-88881372D02*
G01*
X147277452Y-88818092D01*
X147252352Y-88752443D01*
X147249152Y-88745428D01*
X147222974Y-88695644D01*
X147198647Y-88661166D01*
X147183063Y-88650022D01*
X147157647Y-88660634D01*
X147120147Y-88686412D01*
X147106148Y-88697854D01*
X147051046Y-88745008D01*
X147086914Y-88805799D01*
X147110808Y-88863653D01*
X147123580Y-88930500D01*
X147124387Y-88994606D01*
X147112385Y-89044236D01*
X147104895Y-89056146D01*
X147070550Y-89078828D01*
X147030987Y-89081584D01*
X147000080Y-89064612D01*
X146994087Y-89054573D01*
X146986643Y-89024490D01*
X146977894Y-88971611D01*
X146969533Y-88906425D01*
X146968222Y-88894400D01*
X146950112Y-88789703D01*
X146919349Y-88713768D01*
X146873093Y-88663408D01*
X146808503Y-88635436D01*
X146729613Y-88626722D01*
X146639935Y-88638760D01*
X146569514Y-88677849D01*
X146518223Y-88744145D01*
X146485933Y-88837806D01*
X146473193Y-88941777D01*
X146473346Y-89026562D01*
X146484917Y-89095335D01*
X146500891Y-89142303D01*
X146528725Y-89201650D01*
X146561027Y-89256494D01*
X146575245Y-89275987D01*
X146616165Y-89326119D01*
X146738523Y-89205197D01*
X146693033Y-89136457D01*
X146658867Y-89067512D01*
X146640996Y-88993889D01*
X146639111Y-88923117D01*
X146652899Y-88862726D01*
X146682051Y-88820243D01*
X146706648Y-88806526D01*
X146746096Y-88808583D01*
X146776263Y-88842670D01*
X146797094Y-88908692D01*
X146806721Y-88981026D01*
X146825090Y-89092348D01*
X146859746Y-89175048D01*
X146911703Y-89230235D01*
X146981977Y-89259012D01*
X147065293Y-89262999D01*
X147152319Y-89243307D01*
X147218098Y-89198411D01*
X147262932Y-89127909D01*
X147287121Y-89031399D01*
X147291863Y-88959900D01*
X147289453Y-88881372D01*
X147289453Y-88881372D01*
G37*
X147289453Y-88881372D02*
X147277452Y-88818092D01*
X147252352Y-88752443D01*
X147249152Y-88745428D01*
X147222974Y-88695644D01*
X147198647Y-88661166D01*
X147183063Y-88650022D01*
X147157647Y-88660634D01*
X147120147Y-88686412D01*
X147106148Y-88697854D01*
X147051046Y-88745008D01*
X147086914Y-88805799D01*
X147110808Y-88863653D01*
X147123580Y-88930500D01*
X147124387Y-88994606D01*
X147112385Y-89044236D01*
X147104895Y-89056146D01*
X147070550Y-89078828D01*
X147030987Y-89081584D01*
X147000080Y-89064612D01*
X146994087Y-89054573D01*
X146986643Y-89024490D01*
X146977894Y-88971611D01*
X146969533Y-88906425D01*
X146968222Y-88894400D01*
X146950112Y-88789703D01*
X146919349Y-88713768D01*
X146873093Y-88663408D01*
X146808503Y-88635436D01*
X146729613Y-88626722D01*
X146639935Y-88638760D01*
X146569514Y-88677849D01*
X146518223Y-88744145D01*
X146485933Y-88837806D01*
X146473193Y-88941777D01*
X146473346Y-89026562D01*
X146484917Y-89095335D01*
X146500891Y-89142303D01*
X146528725Y-89201650D01*
X146561027Y-89256494D01*
X146575245Y-89275987D01*
X146616165Y-89326119D01*
X146738523Y-89205197D01*
X146693033Y-89136457D01*
X146658867Y-89067512D01*
X146640996Y-88993889D01*
X146639111Y-88923117D01*
X146652899Y-88862726D01*
X146682051Y-88820243D01*
X146706648Y-88806526D01*
X146746096Y-88808583D01*
X146776263Y-88842670D01*
X146797094Y-88908692D01*
X146806721Y-88981026D01*
X146825090Y-89092348D01*
X146859746Y-89175048D01*
X146911703Y-89230235D01*
X146981977Y-89259012D01*
X147065293Y-89262999D01*
X147152319Y-89243307D01*
X147218098Y-89198411D01*
X147262932Y-89127909D01*
X147287121Y-89031399D01*
X147291863Y-88959900D01*
X147289453Y-88881372D01*
G36*
X147267973Y-90702982D02*
G01*
X147260134Y-90686330D01*
X147217914Y-90628695D01*
X147156300Y-90574195D01*
X147088457Y-90533501D01*
X147057266Y-90521926D01*
X147001551Y-90511366D01*
X146934219Y-90505069D01*
X146906415Y-90504304D01*
X146818684Y-90504211D01*
X146818684Y-91009150D01*
X146772730Y-90998387D01*
X146718380Y-90971967D01*
X146671409Y-90925778D01*
X146641152Y-90870828D01*
X146634869Y-90835811D01*
X146642494Y-90788323D01*
X146661617Y-90731665D01*
X146670416Y-90712418D01*
X146705964Y-90641241D01*
X146659633Y-90580498D01*
X146628297Y-90545448D01*
X146602433Y-90526798D01*
X146594842Y-90525853D01*
X146576444Y-90542515D01*
X146548485Y-90579030D01*
X146526673Y-90612172D01*
X146487463Y-90701607D01*
X146469715Y-90801871D01*
X146474330Y-90901246D01*
X146498449Y-90980461D01*
X146550116Y-91062120D01*
X146618144Y-91120151D01*
X146706157Y-91156454D01*
X146817784Y-91172928D01*
X146868862Y-91174389D01*
X146985909Y-91168543D01*
X146989314Y-91167825D01*
X146989314Y-91000511D01*
X146978338Y-90995903D01*
X146972285Y-90976964D01*
X146969690Y-90937902D01*
X146969090Y-90872923D01*
X146969079Y-90847903D01*
X146969986Y-90771779D01*
X146973280Y-90723504D01*
X146979819Y-90697540D01*
X146990463Y-90688352D01*
X146993881Y-90688027D01*
X147021044Y-90698513D01*
X147059097Y-90724758D01*
X147072421Y-90736041D01*
X147110104Y-90777928D01*
X147124920Y-90821591D01*
X147126158Y-90845115D01*
X147110671Y-90908757D01*
X147069070Y-90962127D01*
X147008647Y-90995981D01*
X147006678Y-90996581D01*
X146989314Y-91000511D01*
X146989314Y-91167825D01*
X147078072Y-91149101D01*
X147151810Y-91114078D01*
X147204152Y-91071244D01*
X147260908Y-90992052D01*
X147291238Y-90898960D01*
X147293979Y-90799945D01*
X147267973Y-90702982D01*
X147267973Y-90702982D01*
G37*
X147267973Y-90702982D02*
X147260134Y-90686330D01*
X147217914Y-90628695D01*
X147156300Y-90574195D01*
X147088457Y-90533501D01*
X147057266Y-90521926D01*
X147001551Y-90511366D01*
X146934219Y-90505069D01*
X146906415Y-90504304D01*
X146818684Y-90504211D01*
X146818684Y-91009150D01*
X146772730Y-90998387D01*
X146718380Y-90971967D01*
X146671409Y-90925778D01*
X146641152Y-90870828D01*
X146634869Y-90835811D01*
X146642494Y-90788323D01*
X146661617Y-90731665D01*
X146670416Y-90712418D01*
X146705964Y-90641241D01*
X146659633Y-90580498D01*
X146628297Y-90545448D01*
X146602433Y-90526798D01*
X146594842Y-90525853D01*
X146576444Y-90542515D01*
X146548485Y-90579030D01*
X146526673Y-90612172D01*
X146487463Y-90701607D01*
X146469715Y-90801871D01*
X146474330Y-90901246D01*
X146498449Y-90980461D01*
X146550116Y-91062120D01*
X146618144Y-91120151D01*
X146706157Y-91156454D01*
X146817784Y-91172928D01*
X146868862Y-91174389D01*
X146985909Y-91168543D01*
X146989314Y-91167825D01*
X146989314Y-91000511D01*
X146978338Y-90995903D01*
X146972285Y-90976964D01*
X146969690Y-90937902D01*
X146969090Y-90872923D01*
X146969079Y-90847903D01*
X146969986Y-90771779D01*
X146973280Y-90723504D01*
X146979819Y-90697540D01*
X146990463Y-90688352D01*
X146993881Y-90688027D01*
X147021044Y-90698513D01*
X147059097Y-90724758D01*
X147072421Y-90736041D01*
X147110104Y-90777928D01*
X147124920Y-90821591D01*
X147126158Y-90845115D01*
X147110671Y-90908757D01*
X147069070Y-90962127D01*
X147008647Y-90995981D01*
X147006678Y-90996581D01*
X146989314Y-91000511D01*
X146989314Y-91167825D01*
X147078072Y-91149101D01*
X147151810Y-91114078D01*
X147204152Y-91071244D01*
X147260908Y-90992052D01*
X147291238Y-90898960D01*
X147293979Y-90799945D01*
X147267973Y-90702982D01*
G36*
X147277896Y-92273216D02*
G01*
X147239246Y-92185795D01*
X147174710Y-92119430D01*
X147084188Y-92074024D01*
X146967582Y-92049482D01*
X146949376Y-92047723D01*
X146821016Y-92046344D01*
X146708504Y-92064216D01*
X146617312Y-92100250D01*
X146587978Y-92119545D01*
X146525894Y-92186755D01*
X146485684Y-92272350D01*
X146468997Y-92368110D01*
X146477483Y-92465813D01*
X146503620Y-92540083D01*
X146547665Y-92603953D01*
X146605413Y-92656154D01*
X146606764Y-92657057D01*
X146642407Y-92678256D01*
X146678248Y-92692033D01*
X146723481Y-92700376D01*
X146787299Y-92705273D01*
X146839632Y-92707431D01*
X146887090Y-92708329D01*
X146887090Y-92541257D01*
X146839846Y-92539624D01*
X146776954Y-92533696D01*
X146736593Y-92523239D01*
X146707878Y-92504381D01*
X146691104Y-92486719D01*
X146655984Y-92424106D01*
X146651290Y-92358592D01*
X146676560Y-92297579D01*
X146704876Y-92267072D01*
X146733411Y-92245089D01*
X146760716Y-92232231D01*
X146796250Y-92226588D01*
X146849476Y-92226249D01*
X146898494Y-92227988D01*
X146968518Y-92231729D01*
X147013936Y-92237659D01*
X147043560Y-92248347D01*
X147066203Y-92266361D01*
X147079145Y-92280637D01*
X147113140Y-92340349D01*
X147114835Y-92404766D01*
X147094699Y-92458781D01*
X147052648Y-92504860D01*
X146983572Y-92532311D01*
X146887090Y-92541257D01*
X146887090Y-92708329D01*
X146943701Y-92709401D01*
X147021532Y-92706036D01*
X147080070Y-92695955D01*
X147126263Y-92677774D01*
X147167058Y-92650110D01*
X147179172Y-92639854D01*
X147239526Y-92575722D01*
X147274780Y-92506934D01*
X147289550Y-92422811D01*
X147290757Y-92381791D01*
X147277896Y-92273216D01*
X147277896Y-92273216D01*
G37*
X147277896Y-92273216D02*
X147239246Y-92185795D01*
X147174710Y-92119430D01*
X147084188Y-92074024D01*
X146967582Y-92049482D01*
X146949376Y-92047723D01*
X146821016Y-92046344D01*
X146708504Y-92064216D01*
X146617312Y-92100250D01*
X146587978Y-92119545D01*
X146525894Y-92186755D01*
X146485684Y-92272350D01*
X146468997Y-92368110D01*
X146477483Y-92465813D01*
X146503620Y-92540083D01*
X146547665Y-92603953D01*
X146605413Y-92656154D01*
X146606764Y-92657057D01*
X146642407Y-92678256D01*
X146678248Y-92692033D01*
X146723481Y-92700376D01*
X146787299Y-92705273D01*
X146839632Y-92707431D01*
X146887090Y-92708329D01*
X146887090Y-92541257D01*
X146839846Y-92539624D01*
X146776954Y-92533696D01*
X146736593Y-92523239D01*
X146707878Y-92504381D01*
X146691104Y-92486719D01*
X146655984Y-92424106D01*
X146651290Y-92358592D01*
X146676560Y-92297579D01*
X146704876Y-92267072D01*
X146733411Y-92245089D01*
X146760716Y-92232231D01*
X146796250Y-92226588D01*
X146849476Y-92226249D01*
X146898494Y-92227988D01*
X146968518Y-92231729D01*
X147013936Y-92237659D01*
X147043560Y-92248347D01*
X147066203Y-92266361D01*
X147079145Y-92280637D01*
X147113140Y-92340349D01*
X147114835Y-92404766D01*
X147094699Y-92458781D01*
X147052648Y-92504860D01*
X146983572Y-92532311D01*
X146887090Y-92541257D01*
X146887090Y-92708329D01*
X146943701Y-92709401D01*
X147021532Y-92706036D01*
X147080070Y-92695955D01*
X147126263Y-92677774D01*
X147167058Y-92650110D01*
X147179172Y-92639854D01*
X147239526Y-92575722D01*
X147274780Y-92506934D01*
X147289550Y-92422811D01*
X147290757Y-92381791D01*
X147277896Y-92273216D01*
G36*
X146028922Y-86198807D02*
G01*
X146008155Y-86118932D01*
X145965295Y-86052038D01*
X145933277Y-86019649D01*
X145857587Y-85966555D01*
X145769784Y-85936127D01*
X145661850Y-85925673D01*
X145653125Y-85925620D01*
X145565395Y-85925527D01*
X145565395Y-86430466D01*
X145519441Y-86419702D01*
X145477822Y-86400268D01*
X145434456Y-86366255D01*
X145427533Y-86359140D01*
X145390065Y-86297997D01*
X145383711Y-86228271D01*
X145408362Y-86148013D01*
X145415000Y-86134408D01*
X145435181Y-86092681D01*
X145446679Y-86064732D01*
X145447742Y-86059855D01*
X145437417Y-86042832D01*
X145412155Y-86010367D01*
X145398350Y-85993886D01*
X145366639Y-85959736D01*
X145345701Y-85948522D01*
X145326440Y-85956305D01*
X145321173Y-85960465D01*
X145298122Y-85988643D01*
X145270108Y-86035138D01*
X145253754Y-86067566D01*
X145224941Y-86159615D01*
X145215605Y-86261524D01*
X145226668Y-86358037D01*
X145234588Y-86385066D01*
X145279419Y-86468724D01*
X145348402Y-86530734D01*
X145442206Y-86571455D01*
X145561502Y-86591245D01*
X145623882Y-86593418D01*
X145714702Y-86587074D01*
X145714702Y-86426843D01*
X145707988Y-86411345D01*
X145702720Y-86369688D01*
X145699611Y-86309124D01*
X145699079Y-86268093D01*
X145699592Y-86194289D01*
X145701994Y-86147707D01*
X145707578Y-86122152D01*
X145717639Y-86111431D01*
X145732237Y-86109343D01*
X145777204Y-86123669D01*
X145821647Y-86159738D01*
X145855758Y-86207185D01*
X145869712Y-86254651D01*
X145857334Y-86319121D01*
X145821548Y-86374930D01*
X145769967Y-86413626D01*
X145714702Y-86426843D01*
X145714702Y-86587074D01*
X145756134Y-86584179D01*
X145861502Y-86555664D01*
X145940822Y-86507271D01*
X145994929Y-86438396D01*
X146024657Y-86348435D01*
X146030382Y-86299700D01*
X146028922Y-86198807D01*
X146028922Y-86198807D01*
G37*
X146028922Y-86198807D02*
X146008155Y-86118932D01*
X145965295Y-86052038D01*
X145933277Y-86019649D01*
X145857587Y-85966555D01*
X145769784Y-85936127D01*
X145661850Y-85925673D01*
X145653125Y-85925620D01*
X145565395Y-85925527D01*
X145565395Y-86430466D01*
X145519441Y-86419702D01*
X145477822Y-86400268D01*
X145434456Y-86366255D01*
X145427533Y-86359140D01*
X145390065Y-86297997D01*
X145383711Y-86228271D01*
X145408362Y-86148013D01*
X145415000Y-86134408D01*
X145435181Y-86092681D01*
X145446679Y-86064732D01*
X145447742Y-86059855D01*
X145437417Y-86042832D01*
X145412155Y-86010367D01*
X145398350Y-85993886D01*
X145366639Y-85959736D01*
X145345701Y-85948522D01*
X145326440Y-85956305D01*
X145321173Y-85960465D01*
X145298122Y-85988643D01*
X145270108Y-86035138D01*
X145253754Y-86067566D01*
X145224941Y-86159615D01*
X145215605Y-86261524D01*
X145226668Y-86358037D01*
X145234588Y-86385066D01*
X145279419Y-86468724D01*
X145348402Y-86530734D01*
X145442206Y-86571455D01*
X145561502Y-86591245D01*
X145623882Y-86593418D01*
X145714702Y-86587074D01*
X145714702Y-86426843D01*
X145707988Y-86411345D01*
X145702720Y-86369688D01*
X145699611Y-86309124D01*
X145699079Y-86268093D01*
X145699592Y-86194289D01*
X145701994Y-86147707D01*
X145707578Y-86122152D01*
X145717639Y-86111431D01*
X145732237Y-86109343D01*
X145777204Y-86123669D01*
X145821647Y-86159738D01*
X145855758Y-86207185D01*
X145869712Y-86254651D01*
X145857334Y-86319121D01*
X145821548Y-86374930D01*
X145769967Y-86413626D01*
X145714702Y-86426843D01*
X145714702Y-86587074D01*
X145756134Y-86584179D01*
X145861502Y-86555664D01*
X145940822Y-86507271D01*
X145994929Y-86438396D01*
X146024657Y-86348435D01*
X146030382Y-86299700D01*
X146028922Y-86198807D01*
G36*
X146033553Y-86726833D02*
G01*
X146020888Y-86662592D01*
X146002136Y-86626020D01*
X145970983Y-86587547D01*
X145901873Y-86642283D01*
X145860021Y-86676031D01*
X145839602Y-86698947D01*
X145836483Y-86721721D01*
X145846528Y-86755044D01*
X145852211Y-86770686D01*
X145860596Y-86834458D01*
X145842622Y-86892860D01*
X145802018Y-86935736D01*
X145789071Y-86942701D01*
X145754776Y-86950287D01*
X145691573Y-86956141D01*
X145603940Y-86959989D01*
X145496360Y-86961557D01*
X145481056Y-86961579D01*
X145214474Y-86961579D01*
X145214474Y-87145395D01*
X146033290Y-87145395D01*
X146033290Y-87053487D01*
X146031906Y-87000493D01*
X146025748Y-86972885D01*
X146011806Y-86962676D01*
X145998656Y-86961579D01*
X145964022Y-86961579D01*
X145998656Y-86917550D01*
X146022284Y-86867063D01*
X146033967Y-86799240D01*
X146033553Y-86726833D01*
X146033553Y-86726833D01*
G37*
X146033553Y-86726833D02*
X146020888Y-86662592D01*
X146002136Y-86626020D01*
X145970983Y-86587547D01*
X145901873Y-86642283D01*
X145860021Y-86676031D01*
X145839602Y-86698947D01*
X145836483Y-86721721D01*
X145846528Y-86755044D01*
X145852211Y-86770686D01*
X145860596Y-86834458D01*
X145842622Y-86892860D01*
X145802018Y-86935736D01*
X145789071Y-86942701D01*
X145754776Y-86950287D01*
X145691573Y-86956141D01*
X145603940Y-86959989D01*
X145496360Y-86961557D01*
X145481056Y-86961579D01*
X145214474Y-86961579D01*
X145214474Y-87145395D01*
X146033290Y-87145395D01*
X146033290Y-87053487D01*
X146031906Y-87000493D01*
X146025748Y-86972885D01*
X146011806Y-86962676D01*
X145998656Y-86961579D01*
X145964022Y-86961579D01*
X145998656Y-86917550D01*
X146022284Y-86867063D01*
X146033967Y-86799240D01*
X146033553Y-86726833D01*
G36*
X146028327Y-87520008D02*
G01*
X146011220Y-87449573D01*
X146002156Y-87429213D01*
X145978417Y-87389747D01*
X145951679Y-87359459D01*
X145917301Y-87337048D01*
X145870640Y-87321214D01*
X145807054Y-87310657D01*
X145721901Y-87304076D01*
X145610538Y-87300172D01*
X145536151Y-87298690D01*
X145214474Y-87293235D01*
X145214474Y-87386420D01*
X145216844Y-87442953D01*
X145224945Y-87472078D01*
X145238549Y-87479606D01*
X145253259Y-87483580D01*
X145250446Y-87501348D01*
X145238652Y-87525560D01*
X145220573Y-87586172D01*
X145215701Y-87664071D01*
X145223670Y-87746005D01*
X145244111Y-87818719D01*
X145246949Y-87825241D01*
X145293635Y-87891698D01*
X145358536Y-87935509D01*
X145434400Y-87955668D01*
X145461656Y-87954128D01*
X145461656Y-87789655D01*
X145424976Y-87775163D01*
X145398691Y-87732195D01*
X145384583Y-87662871D01*
X145382710Y-87625823D01*
X145387506Y-87564081D01*
X145406142Y-87523040D01*
X145415000Y-87513027D01*
X145463194Y-87485900D01*
X145506908Y-87479606D01*
X145565395Y-87479606D01*
X145565395Y-87561070D01*
X145560568Y-87655766D01*
X145545387Y-87722187D01*
X145518800Y-87764154D01*
X145506948Y-87773551D01*
X145461656Y-87789655D01*
X145461656Y-87954128D01*
X145513974Y-87951171D01*
X145590005Y-87921015D01*
X145641388Y-87879869D01*
X145663603Y-87854948D01*
X145678202Y-87830552D01*
X145687103Y-87798809D01*
X145692225Y-87751848D01*
X145695485Y-87681796D01*
X145696423Y-87654010D01*
X145702121Y-87479606D01*
X145754909Y-87479862D01*
X145810397Y-87486616D01*
X145843948Y-87511036D01*
X145865382Y-87560370D01*
X145865764Y-87561694D01*
X145874192Y-87631640D01*
X145863184Y-87700086D01*
X145836415Y-87750953D01*
X145823197Y-87771363D01*
X145825026Y-87793346D01*
X145844176Y-87827174D01*
X145857692Y-87847039D01*
X145886568Y-87885894D01*
X145908214Y-87909962D01*
X145914411Y-87913824D01*
X145946481Y-87897921D01*
X145984781Y-87850935D01*
X145997703Y-87830527D01*
X146019959Y-87771857D01*
X146032568Y-87692788D01*
X146035400Y-87604959D01*
X146028327Y-87520008D01*
X146028327Y-87520008D01*
G37*
X146028327Y-87520008D02*
X146011220Y-87449573D01*
X146002156Y-87429213D01*
X145978417Y-87389747D01*
X145951679Y-87359459D01*
X145917301Y-87337048D01*
X145870640Y-87321214D01*
X145807054Y-87310657D01*
X145721901Y-87304076D01*
X145610538Y-87300172D01*
X145536151Y-87298690D01*
X145214474Y-87293235D01*
X145214474Y-87386420D01*
X145216844Y-87442953D01*
X145224945Y-87472078D01*
X145238549Y-87479606D01*
X145253259Y-87483580D01*
X145250446Y-87501348D01*
X145238652Y-87525560D01*
X145220573Y-87586172D01*
X145215701Y-87664071D01*
X145223670Y-87746005D01*
X145244111Y-87818719D01*
X145246949Y-87825241D01*
X145293635Y-87891698D01*
X145358536Y-87935509D01*
X145434400Y-87955668D01*
X145461656Y-87954128D01*
X145461656Y-87789655D01*
X145424976Y-87775163D01*
X145398691Y-87732195D01*
X145384583Y-87662871D01*
X145382710Y-87625823D01*
X145387506Y-87564081D01*
X145406142Y-87523040D01*
X145415000Y-87513027D01*
X145463194Y-87485900D01*
X145506908Y-87479606D01*
X145565395Y-87479606D01*
X145565395Y-87561070D01*
X145560568Y-87655766D01*
X145545387Y-87722187D01*
X145518800Y-87764154D01*
X145506948Y-87773551D01*
X145461656Y-87789655D01*
X145461656Y-87954128D01*
X145513974Y-87951171D01*
X145590005Y-87921015D01*
X145641388Y-87879869D01*
X145663603Y-87854948D01*
X145678202Y-87830552D01*
X145687103Y-87798809D01*
X145692225Y-87751848D01*
X145695485Y-87681796D01*
X145696423Y-87654010D01*
X145702121Y-87479606D01*
X145754909Y-87479862D01*
X145810397Y-87486616D01*
X145843948Y-87511036D01*
X145865382Y-87560370D01*
X145865764Y-87561694D01*
X145874192Y-87631640D01*
X145863184Y-87700086D01*
X145836415Y-87750953D01*
X145823197Y-87771363D01*
X145825026Y-87793346D01*
X145844176Y-87827174D01*
X145857692Y-87847039D01*
X145886568Y-87885894D01*
X145908214Y-87909962D01*
X145914411Y-87913824D01*
X145946481Y-87897921D01*
X145984781Y-87850935D01*
X145997703Y-87830527D01*
X146019959Y-87771857D01*
X146032568Y-87692788D01*
X146035400Y-87604959D01*
X146028327Y-87520008D01*
G36*
X146029896Y-88525870D02*
G01*
X146024934Y-88459780D01*
X145765921Y-88373374D01*
X145506908Y-88286969D01*
X145598816Y-88259876D01*
X145655616Y-88243572D01*
X145732375Y-88222125D01*
X145816749Y-88198965D01*
X145862007Y-88186720D01*
X146033290Y-88140656D01*
X146033290Y-87950613D01*
X145853651Y-88007418D01*
X145765296Y-88035393D01*
X145658719Y-88069187D01*
X145547546Y-88104480D01*
X145448421Y-88135987D01*
X145222829Y-88207750D01*
X145212747Y-88362714D01*
X145351472Y-88404730D01*
X145437649Y-88430641D01*
X145532653Y-88458917D01*
X145616559Y-88483631D01*
X145619898Y-88484606D01*
X145676752Y-88503065D01*
X145715544Y-88519351D01*
X145730213Y-88530758D01*
X145728517Y-88533102D01*
X145705775Y-88541329D01*
X145657060Y-88556962D01*
X145588498Y-88578096D01*
X145506215Y-88602830D01*
X145460954Y-88616213D01*
X145214474Y-88688689D01*
X145214474Y-88842505D01*
X145602994Y-88965469D01*
X145711978Y-89000012D01*
X145810952Y-89031479D01*
X145895264Y-89058384D01*
X145960266Y-89079241D01*
X146001308Y-89092562D01*
X146013299Y-89096612D01*
X146025577Y-89093406D01*
X146030954Y-89068235D01*
X146030416Y-89015854D01*
X146030010Y-89007655D01*
X146024934Y-88910518D01*
X145790987Y-88846900D01*
X145705667Y-88823516D01*
X145630665Y-88802619D01*
X145572493Y-88786049D01*
X145537663Y-88775646D01*
X145531984Y-88773724D01*
X145538514Y-88765759D01*
X145572346Y-88749696D01*
X145628873Y-88727379D01*
X145703490Y-88700655D01*
X145770893Y-88678063D01*
X146034857Y-88591959D01*
X146029896Y-88525870D01*
X146029896Y-88525870D01*
G37*
X146029896Y-88525870D02*
X146024934Y-88459780D01*
X145765921Y-88373374D01*
X145506908Y-88286969D01*
X145598816Y-88259876D01*
X145655616Y-88243572D01*
X145732375Y-88222125D01*
X145816749Y-88198965D01*
X145862007Y-88186720D01*
X146033290Y-88140656D01*
X146033290Y-87950613D01*
X145853651Y-88007418D01*
X145765296Y-88035393D01*
X145658719Y-88069187D01*
X145547546Y-88104480D01*
X145448421Y-88135987D01*
X145222829Y-88207750D01*
X145212747Y-88362714D01*
X145351472Y-88404730D01*
X145437649Y-88430641D01*
X145532653Y-88458917D01*
X145616559Y-88483631D01*
X145619898Y-88484606D01*
X145676752Y-88503065D01*
X145715544Y-88519351D01*
X145730213Y-88530758D01*
X145728517Y-88533102D01*
X145705775Y-88541329D01*
X145657060Y-88556962D01*
X145588498Y-88578096D01*
X145506215Y-88602830D01*
X145460954Y-88616213D01*
X145214474Y-88688689D01*
X145214474Y-88842505D01*
X145602994Y-88965469D01*
X145711978Y-89000012D01*
X145810952Y-89031479D01*
X145895264Y-89058384D01*
X145960266Y-89079241D01*
X146001308Y-89092562D01*
X146013299Y-89096612D01*
X146025577Y-89093406D01*
X146030954Y-89068235D01*
X146030416Y-89015854D01*
X146030010Y-89007655D01*
X146024934Y-88910518D01*
X145790987Y-88846900D01*
X145705667Y-88823516D01*
X145630665Y-88802619D01*
X145572493Y-88786049D01*
X145537663Y-88775646D01*
X145531984Y-88773724D01*
X145538514Y-88765759D01*
X145572346Y-88749696D01*
X145628873Y-88727379D01*
X145703490Y-88700655D01*
X145770893Y-88678063D01*
X146034857Y-88591959D01*
X146029896Y-88525870D01*
G36*
X145214474Y-89167369D02*
G01*
X145214474Y-89259277D01*
X145216038Y-89312623D01*
X145222515Y-89340407D01*
X145236582Y-89350410D01*
X145246094Y-89351185D01*
X145265168Y-89352872D01*
X145268826Y-89363510D01*
X145257068Y-89391465D01*
X145246094Y-89413205D01*
X145220089Y-89496668D01*
X145218584Y-89587396D01*
X145237979Y-89661158D01*
X145284835Y-89729846D01*
X145353996Y-89782206D01*
X145435573Y-89810878D01*
X145440134Y-89811608D01*
X145489899Y-89815868D01*
X145561341Y-89817986D01*
X145615374Y-89817816D01*
X145615374Y-89635280D01*
X145543559Y-89631051D01*
X145484366Y-89621432D01*
X145450940Y-89608410D01*
X145405260Y-89559144D01*
X145388885Y-89500650D01*
X145402127Y-89440329D01*
X145441627Y-89388783D01*
X145468193Y-89369262D01*
X145499894Y-89357848D01*
X145546168Y-89352502D01*
X145615672Y-89351185D01*
X145684501Y-89353542D01*
X145744974Y-89359767D01*
X145785444Y-89368592D01*
X145789071Y-89370063D01*
X145832198Y-89405653D01*
X145855876Y-89457600D01*
X145859699Y-89515722D01*
X145843262Y-89569840D01*
X145806160Y-89609774D01*
X145798778Y-89613917D01*
X145753761Y-89626884D01*
X145689033Y-89633948D01*
X145615374Y-89635280D01*
X145615374Y-89817816D01*
X145642770Y-89817729D01*
X145686595Y-89816528D01*
X145795012Y-89808355D01*
X145876412Y-89791370D01*
X145936588Y-89763113D01*
X145981334Y-89721128D01*
X146007600Y-89680368D01*
X146026065Y-89623419D01*
X146032398Y-89552589D01*
X146027240Y-89480059D01*
X146011231Y-89418014D01*
X145992080Y-89385232D01*
X145961268Y-89351185D01*
X146350790Y-89351185D01*
X146350790Y-89167369D01*
X145214474Y-89167369D01*
X145214474Y-89167369D01*
G37*
X145214474Y-89167369D02*
X145214474Y-89259277D01*
X145216038Y-89312623D01*
X145222515Y-89340407D01*
X145236582Y-89350410D01*
X145246094Y-89351185D01*
X145265168Y-89352872D01*
X145268826Y-89363510D01*
X145257068Y-89391465D01*
X145246094Y-89413205D01*
X145220089Y-89496668D01*
X145218584Y-89587396D01*
X145237979Y-89661158D01*
X145284835Y-89729846D01*
X145353996Y-89782206D01*
X145435573Y-89810878D01*
X145440134Y-89811608D01*
X145489899Y-89815868D01*
X145561341Y-89817986D01*
X145615374Y-89817816D01*
X145615374Y-89635280D01*
X145543559Y-89631051D01*
X145484366Y-89621432D01*
X145450940Y-89608410D01*
X145405260Y-89559144D01*
X145388885Y-89500650D01*
X145402127Y-89440329D01*
X145441627Y-89388783D01*
X145468193Y-89369262D01*
X145499894Y-89357848D01*
X145546168Y-89352502D01*
X145615672Y-89351185D01*
X145684501Y-89353542D01*
X145744974Y-89359767D01*
X145785444Y-89368592D01*
X145789071Y-89370063D01*
X145832198Y-89405653D01*
X145855876Y-89457600D01*
X145859699Y-89515722D01*
X145843262Y-89569840D01*
X145806160Y-89609774D01*
X145798778Y-89613917D01*
X145753761Y-89626884D01*
X145689033Y-89633948D01*
X145615374Y-89635280D01*
X145615374Y-89817816D01*
X145642770Y-89817729D01*
X145686595Y-89816528D01*
X145795012Y-89808355D01*
X145876412Y-89791370D01*
X145936588Y-89763113D01*
X145981334Y-89721128D01*
X146007600Y-89680368D01*
X146026065Y-89623419D01*
X146032398Y-89552589D01*
X146027240Y-89480059D01*
X146011231Y-89418014D01*
X145992080Y-89385232D01*
X145961268Y-89351185D01*
X146350790Y-89351185D01*
X146350790Y-89167369D01*
X145214474Y-89167369D01*
G36*
X146031514Y-90220119D02*
G01*
X146024018Y-90195112D01*
X146007549Y-90187050D01*
X146000114Y-90186711D01*
X145979406Y-90185264D01*
X145976155Y-90175302D01*
X145990352Y-90148388D01*
X146000052Y-90132402D01*
X146020825Y-90081967D01*
X146031096Y-90021728D01*
X146031886Y-89958566D01*
X146024214Y-89899363D01*
X146009102Y-89850998D01*
X145987568Y-89820354D01*
X145960634Y-89814311D01*
X145953340Y-89817361D01*
X145923063Y-89839594D01*
X145885825Y-89874070D01*
X145879805Y-89880306D01*
X145852125Y-89913167D01*
X145843182Y-89941520D01*
X145849424Y-89981173D01*
X145853571Y-89997058D01*
X145863533Y-90046491D01*
X145859053Y-90081248D01*
X145843254Y-90110600D01*
X145822051Y-90137487D01*
X145795386Y-90157290D01*
X145758173Y-90171052D01*
X145705327Y-90179816D01*
X145631763Y-90184626D01*
X145532395Y-90186526D01*
X145472399Y-90186711D01*
X145214474Y-90186711D01*
X145214474Y-90353816D01*
X146033290Y-90353816D01*
X146033290Y-90270264D01*
X146031514Y-90220119D01*
X146031514Y-90220119D01*
G37*
X146031514Y-90220119D02*
X146024018Y-90195112D01*
X146007549Y-90187050D01*
X146000114Y-90186711D01*
X145979406Y-90185264D01*
X145976155Y-90175302D01*
X145990352Y-90148388D01*
X146000052Y-90132402D01*
X146020825Y-90081967D01*
X146031096Y-90021728D01*
X146031886Y-89958566D01*
X146024214Y-89899363D01*
X146009102Y-89850998D01*
X145987568Y-89820354D01*
X145960634Y-89814311D01*
X145953340Y-89817361D01*
X145923063Y-89839594D01*
X145885825Y-89874070D01*
X145879805Y-89880306D01*
X145852125Y-89913167D01*
X145843182Y-89941520D01*
X145849424Y-89981173D01*
X145853571Y-89997058D01*
X145863533Y-90046491D01*
X145859053Y-90081248D01*
X145843254Y-90110600D01*
X145822051Y-90137487D01*
X145795386Y-90157290D01*
X145758173Y-90171052D01*
X145705327Y-90179816D01*
X145631763Y-90184626D01*
X145532395Y-90186526D01*
X145472399Y-90186711D01*
X145214474Y-90186711D01*
X145214474Y-90353816D01*
X146033290Y-90353816D01*
X146033290Y-90270264D01*
X146031514Y-90220119D01*
G36*
X146026816Y-90739543D02*
G01*
X146005840Y-90660930D01*
X145967820Y-90601084D01*
X145918022Y-90558853D01*
X145896770Y-90545725D01*
X145874508Y-90536032D01*
X145846030Y-90529256D01*
X145806129Y-90524877D01*
X145749599Y-90522376D01*
X145671233Y-90521232D01*
X145565824Y-90520928D01*
X145537858Y-90520922D01*
X145214474Y-90520922D01*
X145214474Y-90601132D01*
X145218057Y-90652294D01*
X145227134Y-90690123D01*
X145232732Y-90699601D01*
X145242394Y-90725512D01*
X145232732Y-90751976D01*
X145220670Y-90795548D01*
X145215815Y-90858840D01*
X145217922Y-90928990D01*
X145226744Y-90993140D01*
X145238063Y-91030593D01*
X145284588Y-91103067D01*
X145349154Y-91148360D01*
X145435000Y-91168722D01*
X145437204Y-91168912D01*
X145475287Y-91167125D01*
X145475287Y-91005527D01*
X145431970Y-90991399D01*
X145407592Y-90968388D01*
X145389155Y-90922196D01*
X145381795Y-90861225D01*
X145385417Y-90799051D01*
X145399926Y-90749249D01*
X145409235Y-90735297D01*
X145452247Y-90710915D01*
X145501143Y-90704737D01*
X145565395Y-90704737D01*
X145565395Y-90797182D01*
X145558634Y-90885005D01*
X145539480Y-90951582D01*
X145509624Y-90992998D01*
X145475287Y-91005527D01*
X145475287Y-91167125D01*
X145530996Y-91164510D01*
X145605153Y-91133576D01*
X145661233Y-91075419D01*
X145666335Y-91067380D01*
X145682945Y-91032837D01*
X145693004Y-90990082D01*
X145697893Y-90930314D01*
X145699017Y-90859310D01*
X145699079Y-90704737D01*
X145763875Y-90704737D01*
X145814150Y-90711294D01*
X145847831Y-90728025D01*
X145849624Y-90729984D01*
X145864358Y-90767217D01*
X145870069Y-90823420D01*
X145867263Y-90885533D01*
X145856444Y-90940490D01*
X145840218Y-90973101D01*
X145827220Y-90990772D01*
X145824738Y-91009431D01*
X145835387Y-91035181D01*
X145861782Y-91074127D01*
X145906535Y-91132370D01*
X145910727Y-91137716D01*
X145926240Y-91134977D01*
X145952040Y-91112124D01*
X145980711Y-91077391D01*
X146004834Y-91039010D01*
X146010530Y-91026952D01*
X146021897Y-90982966D01*
X146030005Y-90918513D01*
X146033257Y-90846503D01*
X146033264Y-90843136D01*
X146026816Y-90739543D01*
X146026816Y-90739543D01*
G37*
X146026816Y-90739543D02*
X146005840Y-90660930D01*
X145967820Y-90601084D01*
X145918022Y-90558853D01*
X145896770Y-90545725D01*
X145874508Y-90536032D01*
X145846030Y-90529256D01*
X145806129Y-90524877D01*
X145749599Y-90522376D01*
X145671233Y-90521232D01*
X145565824Y-90520928D01*
X145537858Y-90520922D01*
X145214474Y-90520922D01*
X145214474Y-90601132D01*
X145218057Y-90652294D01*
X145227134Y-90690123D01*
X145232732Y-90699601D01*
X145242394Y-90725512D01*
X145232732Y-90751976D01*
X145220670Y-90795548D01*
X145215815Y-90858840D01*
X145217922Y-90928990D01*
X145226744Y-90993140D01*
X145238063Y-91030593D01*
X145284588Y-91103067D01*
X145349154Y-91148360D01*
X145435000Y-91168722D01*
X145437204Y-91168912D01*
X145475287Y-91167125D01*
X145475287Y-91005527D01*
X145431970Y-90991399D01*
X145407592Y-90968388D01*
X145389155Y-90922196D01*
X145381795Y-90861225D01*
X145385417Y-90799051D01*
X145399926Y-90749249D01*
X145409235Y-90735297D01*
X145452247Y-90710915D01*
X145501143Y-90704737D01*
X145565395Y-90704737D01*
X145565395Y-90797182D01*
X145558634Y-90885005D01*
X145539480Y-90951582D01*
X145509624Y-90992998D01*
X145475287Y-91005527D01*
X145475287Y-91167125D01*
X145530996Y-91164510D01*
X145605153Y-91133576D01*
X145661233Y-91075419D01*
X145666335Y-91067380D01*
X145682945Y-91032837D01*
X145693004Y-90990082D01*
X145697893Y-90930314D01*
X145699017Y-90859310D01*
X145699079Y-90704737D01*
X145763875Y-90704737D01*
X145814150Y-90711294D01*
X145847831Y-90728025D01*
X145849624Y-90729984D01*
X145864358Y-90767217D01*
X145870069Y-90823420D01*
X145867263Y-90885533D01*
X145856444Y-90940490D01*
X145840218Y-90973101D01*
X145827220Y-90990772D01*
X145824738Y-91009431D01*
X145835387Y-91035181D01*
X145861782Y-91074127D01*
X145906535Y-91132370D01*
X145910727Y-91137716D01*
X145926240Y-91134977D01*
X145952040Y-91112124D01*
X145980711Y-91077391D01*
X146004834Y-91039010D01*
X146010530Y-91026952D01*
X146021897Y-90982966D01*
X146030005Y-90918513D01*
X146033257Y-90846503D01*
X146033264Y-90843136D01*
X146026816Y-90739543D01*
G36*
X147272532Y-91436640D02*
G01*
X147255126Y-91401408D01*
X147224794Y-91357960D01*
X147191717Y-91326294D01*
X147150183Y-91304606D01*
X147094478Y-91291097D01*
X147018889Y-91283962D01*
X146917704Y-91281400D01*
X146874203Y-91281250D01*
X146778865Y-91281688D01*
X146710729Y-91283504D01*
X146663582Y-91287455D01*
X146631210Y-91294298D01*
X146607400Y-91304789D01*
X146591157Y-91315704D01*
X146522048Y-91385381D01*
X146480479Y-91467434D01*
X146467977Y-91555950D01*
X146486066Y-91645019D01*
X146498858Y-91673237D01*
X146534069Y-91740790D01*
X145982300Y-91740790D01*
X146007795Y-91691488D01*
X146027520Y-91626527D01*
X146032573Y-91546680D01*
X146023244Y-91466948D01*
X146002286Y-91406735D01*
X145962373Y-91356792D01*
X145905259Y-91314119D01*
X145899395Y-91310910D01*
X145871773Y-91297378D01*
X145843932Y-91287495D01*
X145810206Y-91280691D01*
X145764929Y-91276399D01*
X145702438Y-91274049D01*
X145617065Y-91273072D01*
X145520990Y-91272895D01*
X145214474Y-91272895D01*
X145214474Y-91456711D01*
X145779661Y-91456711D01*
X145822923Y-91508125D01*
X145857528Y-91561534D01*
X145863820Y-91612112D01*
X145847628Y-91662970D01*
X145831773Y-91690075D01*
X145809190Y-91710249D01*
X145775060Y-91724597D01*
X145724566Y-91734224D01*
X145652889Y-91740237D01*
X145555212Y-91743740D01*
X145490198Y-91744974D01*
X145222829Y-91749145D01*
X145217778Y-91836875D01*
X145212727Y-91924606D01*
X146871899Y-91924606D01*
X146871899Y-91740790D01*
X146779400Y-91736104D01*
X146715191Y-91720312D01*
X146675241Y-91690817D01*
X146655520Y-91645020D01*
X146651579Y-91598750D01*
X146656108Y-91546372D01*
X146673931Y-91511610D01*
X146697481Y-91489872D01*
X146722811Y-91472760D01*
X146751031Y-91462573D01*
X146790569Y-91458040D01*
X146849858Y-91457891D01*
X146899502Y-91459416D01*
X146974290Y-91462919D01*
X147023389Y-91468133D01*
X147054533Y-91476913D01*
X147075455Y-91491114D01*
X147087548Y-91504516D01*
X147113919Y-91560513D01*
X147118178Y-91626789D01*
X147109094Y-91664844D01*
X147076804Y-91702523D01*
X147013994Y-91727481D01*
X146921106Y-91739578D01*
X146871899Y-91740790D01*
X146871899Y-91924606D01*
X147286579Y-91924606D01*
X147286579Y-91832698D01*
X147284397Y-91777517D01*
X147276649Y-91749048D01*
X147261532Y-91740794D01*
X147261084Y-91740790D01*
X147246280Y-91736960D01*
X147247961Y-91720067D01*
X147264228Y-91686481D01*
X147289113Y-91608222D01*
X147291729Y-91520173D01*
X147272532Y-91436640D01*
X147272532Y-91436640D01*
G37*
X147272532Y-91436640D02*
X147255126Y-91401408D01*
X147224794Y-91357960D01*
X147191717Y-91326294D01*
X147150183Y-91304606D01*
X147094478Y-91291097D01*
X147018889Y-91283962D01*
X146917704Y-91281400D01*
X146874203Y-91281250D01*
X146778865Y-91281688D01*
X146710729Y-91283504D01*
X146663582Y-91287455D01*
X146631210Y-91294298D01*
X146607400Y-91304789D01*
X146591157Y-91315704D01*
X146522048Y-91385381D01*
X146480479Y-91467434D01*
X146467977Y-91555950D01*
X146486066Y-91645019D01*
X146498858Y-91673237D01*
X146534069Y-91740790D01*
X145982300Y-91740790D01*
X146007795Y-91691488D01*
X146027520Y-91626527D01*
X146032573Y-91546680D01*
X146023244Y-91466948D01*
X146002286Y-91406735D01*
X145962373Y-91356792D01*
X145905259Y-91314119D01*
X145899395Y-91310910D01*
X145871773Y-91297378D01*
X145843932Y-91287495D01*
X145810206Y-91280691D01*
X145764929Y-91276399D01*
X145702438Y-91274049D01*
X145617065Y-91273072D01*
X145520990Y-91272895D01*
X145214474Y-91272895D01*
X145214474Y-91456711D01*
X145779661Y-91456711D01*
X145822923Y-91508125D01*
X145857528Y-91561534D01*
X145863820Y-91612112D01*
X145847628Y-91662970D01*
X145831773Y-91690075D01*
X145809190Y-91710249D01*
X145775060Y-91724597D01*
X145724566Y-91734224D01*
X145652889Y-91740237D01*
X145555212Y-91743740D01*
X145490198Y-91744974D01*
X145222829Y-91749145D01*
X145217778Y-91836875D01*
X145212727Y-91924606D01*
X146871899Y-91924606D01*
X146871899Y-91740790D01*
X146779400Y-91736104D01*
X146715191Y-91720312D01*
X146675241Y-91690817D01*
X146655520Y-91645020D01*
X146651579Y-91598750D01*
X146656108Y-91546372D01*
X146673931Y-91511610D01*
X146697481Y-91489872D01*
X146722811Y-91472760D01*
X146751031Y-91462573D01*
X146790569Y-91458040D01*
X146849858Y-91457891D01*
X146899502Y-91459416D01*
X146974290Y-91462919D01*
X147023389Y-91468133D01*
X147054533Y-91476913D01*
X147075455Y-91491114D01*
X147087548Y-91504516D01*
X147113919Y-91560513D01*
X147118178Y-91626789D01*
X147109094Y-91664844D01*
X147076804Y-91702523D01*
X147013994Y-91727481D01*
X146921106Y-91739578D01*
X146871899Y-91740790D01*
X146871899Y-91924606D01*
X147286579Y-91924606D01*
X147286579Y-91832698D01*
X147284397Y-91777517D01*
X147276649Y-91749048D01*
X147261532Y-91740794D01*
X147261084Y-91740790D01*
X147246280Y-91736960D01*
X147247961Y-91720067D01*
X147264228Y-91686481D01*
X147289113Y-91608222D01*
X147291729Y-91520173D01*
X147272532Y-91436640D01*
D12*
X159435800Y-71069200D02*
X159435800Y-120345200D01*
X136575800Y-70053200D02*
X158419800Y-70053200D01*
X135559800Y-120345200D02*
X135559800Y-71069200D01*
X158419800Y-121361200D02*
X136575800Y-121361200D01*
X158419800Y-70053200D02*
G75*
G02X159435800Y-71069200I0J-1016000D01*
G01*
X135559800Y-71069200D02*
G75*
G02X136575800Y-70053200I1016000J0D01*
G01*
X136575800Y-121361200D02*
G75*
G02X135559800Y-120345200I0J1016000D01*
G01*
X159435800Y-120345200D02*
G75*
G02X158419800Y-121361200I-1016000J0D01*
G01*
X144857327Y-68190970D02*
G75*
G03X146138901Y-69430899I1294273J55470D01*
G01*
X144830800Y-53708300D02*
X144856200Y-68173600D01*
X146177000Y-69418200D02*
X158902400Y-69481700D01*
X160070800Y-68326000D02*
X160070800Y-53619400D01*
X158855968Y-69481218D02*
G75*
G03X160070800Y-68300600I33732J1180618D01*
G01*
X144831911Y-53691283D02*
G75*
G02X146113500Y-52450998I1294288J-55114D01*
G01*
X158856722Y-52451460D02*
G75*
G02X160070800Y-53632100I32978J-1180640D01*
G01*
X158851600Y-52463700D02*
X146113500Y-52451000D01*
X139775000Y-61333748D02*
X139775000Y-61856252D01*
X138355000Y-61333748D02*
X138355000Y-61856252D01*
X142315000Y-61333748D02*
X142315000Y-61856252D01*
X140895000Y-61333748D02*
X140895000Y-61856252D01*
X144855000Y-61333748D02*
X144855000Y-61856252D01*
X143435000Y-61333748D02*
X143435000Y-61856252D01*
X148328748Y-64210000D02*
X148851252Y-64210000D01*
X148328748Y-62790000D02*
X148851252Y-62790000D01*
D10*
X142051404Y-99401380D02*
X142051404Y-100210904D01*
X142003785Y-100306142D01*
X141956166Y-100353761D01*
X141860928Y-100401380D01*
X141670452Y-100401380D01*
X141575214Y-100353761D01*
X141527595Y-100306142D01*
X141479976Y-100210904D01*
X141479976Y-99401380D01*
X141051404Y-100353761D02*
X140908547Y-100401380D01*
X140670452Y-100401380D01*
X140575214Y-100353761D01*
X140527595Y-100306142D01*
X140479976Y-100210904D01*
X140479976Y-100115666D01*
X140527595Y-100020428D01*
X140575214Y-99972809D01*
X140670452Y-99925190D01*
X140860928Y-99877571D01*
X140956166Y-99829952D01*
X141003785Y-99782333D01*
X141051404Y-99687095D01*
X141051404Y-99591857D01*
X141003785Y-99496619D01*
X140956166Y-99449000D01*
X140860928Y-99401380D01*
X140622833Y-99401380D01*
X140479976Y-99449000D01*
X139718071Y-99877571D02*
X139575214Y-99925190D01*
X139527595Y-99972809D01*
X139479976Y-100068047D01*
X139479976Y-100210904D01*
X139527595Y-100306142D01*
X139575214Y-100353761D01*
X139670452Y-100401380D01*
X140051404Y-100401380D01*
X140051404Y-99401380D01*
X139718071Y-99401380D01*
X139622833Y-99449000D01*
X139575214Y-99496619D01*
X139527595Y-99591857D01*
X139527595Y-99687095D01*
X139575214Y-99782333D01*
X139622833Y-99829952D01*
X139718071Y-99877571D01*
X140051404Y-99877571D01*
X141003785Y-102544571D02*
X140670452Y-102544571D01*
X140527595Y-103068380D02*
X141003785Y-103068380D01*
X141003785Y-102068380D01*
X140527595Y-102068380D01*
X140099023Y-103068380D02*
X140099023Y-102068380D01*
X139527595Y-103068380D01*
X139527595Y-102068380D01*
X142797452Y-104608380D02*
X142464119Y-105608380D01*
X142130785Y-104608380D01*
X141464119Y-105084571D02*
X141321261Y-105132190D01*
X141273642Y-105179809D01*
X141226023Y-105275047D01*
X141226023Y-105417904D01*
X141273642Y-105513142D01*
X141321261Y-105560761D01*
X141416500Y-105608380D01*
X141797452Y-105608380D01*
X141797452Y-104608380D01*
X141464119Y-104608380D01*
X141368880Y-104656000D01*
X141321261Y-104703619D01*
X141273642Y-104798857D01*
X141273642Y-104894095D01*
X141321261Y-104989333D01*
X141368880Y-105036952D01*
X141464119Y-105084571D01*
X141797452Y-105084571D01*
X140845071Y-105322666D02*
X140368880Y-105322666D01*
X140940309Y-105608380D02*
X140606976Y-104608380D01*
X140273642Y-105608380D01*
X140083166Y-104608380D02*
X139511738Y-104608380D01*
X139797452Y-105608380D02*
X139797452Y-104608380D01*
X154715595Y-107069000D02*
X154810833Y-107021380D01*
X154953690Y-107021380D01*
X155096547Y-107069000D01*
X155191785Y-107164238D01*
X155239404Y-107259476D01*
X155287023Y-107449952D01*
X155287023Y-107592809D01*
X155239404Y-107783285D01*
X155191785Y-107878523D01*
X155096547Y-107973761D01*
X154953690Y-108021380D01*
X154858452Y-108021380D01*
X154715595Y-107973761D01*
X154667976Y-107926142D01*
X154667976Y-107592809D01*
X154858452Y-107592809D01*
X154239404Y-108021380D02*
X154239404Y-107021380D01*
X153667976Y-108021380D01*
X153667976Y-107021380D01*
X153191785Y-108021380D02*
X153191785Y-107021380D01*
X152953690Y-107021380D01*
X152810833Y-107069000D01*
X152715595Y-107164238D01*
X152667976Y-107259476D01*
X152620357Y-107449952D01*
X152620357Y-107592809D01*
X152667976Y-107783285D01*
X152715595Y-107878523D01*
X152810833Y-107973761D01*
X152953690Y-108021380D01*
X153191785Y-108021380D01*
X155160023Y-110656666D02*
X154683833Y-110656666D01*
X155255261Y-110942380D02*
X154921928Y-109942380D01*
X154588595Y-110942380D01*
X153683833Y-110942380D02*
X154017166Y-110466190D01*
X154255261Y-110942380D02*
X154255261Y-109942380D01*
X153874309Y-109942380D01*
X153779071Y-109990000D01*
X153731452Y-110037619D01*
X153683833Y-110132857D01*
X153683833Y-110275714D01*
X153731452Y-110370952D01*
X153779071Y-110418571D01*
X153874309Y-110466190D01*
X154255261Y-110466190D01*
X153255261Y-110418571D02*
X152921928Y-110418571D01*
X152779071Y-110942380D02*
X153255261Y-110942380D01*
X153255261Y-109942380D01*
X152779071Y-109942380D01*
X152017166Y-110418571D02*
X152350500Y-110418571D01*
X152350500Y-110942380D02*
X152350500Y-109942380D01*
X151874309Y-109942380D01*
X150779071Y-109894761D02*
X151636214Y-111180476D01*
X150540976Y-109942380D02*
X149921928Y-109942380D01*
X150255261Y-110323333D01*
X150112404Y-110323333D01*
X150017166Y-110370952D01*
X149969547Y-110418571D01*
X149921928Y-110513809D01*
X149921928Y-110751904D01*
X149969547Y-110847142D01*
X150017166Y-110894761D01*
X150112404Y-110942380D01*
X150398119Y-110942380D01*
X150493357Y-110894761D01*
X150540976Y-110847142D01*
X149636214Y-109942380D02*
X149302880Y-110942380D01*
X148969547Y-109942380D01*
X155207642Y-112355380D02*
X154588595Y-112355380D01*
X154921928Y-112736333D01*
X154779071Y-112736333D01*
X154683833Y-112783952D01*
X154636214Y-112831571D01*
X154588595Y-112926809D01*
X154588595Y-113164904D01*
X154636214Y-113260142D01*
X154683833Y-113307761D01*
X154779071Y-113355380D01*
X155064785Y-113355380D01*
X155160023Y-113307761D01*
X155207642Y-113260142D01*
X154302880Y-112355380D02*
X153969547Y-113355380D01*
X153636214Y-112355380D01*
X154725619Y-115768380D02*
X155058952Y-115292190D01*
X155297047Y-115768380D02*
X155297047Y-114768380D01*
X154916095Y-114768380D01*
X154820857Y-114816000D01*
X154773238Y-114863619D01*
X154725619Y-114958857D01*
X154725619Y-115101714D01*
X154773238Y-115196952D01*
X154820857Y-115244571D01*
X154916095Y-115292190D01*
X155297047Y-115292190D01*
X154344666Y-115720761D02*
X154201809Y-115768380D01*
X153963714Y-115768380D01*
X153868476Y-115720761D01*
X153820857Y-115673142D01*
X153773238Y-115577904D01*
X153773238Y-115482666D01*
X153820857Y-115387428D01*
X153868476Y-115339809D01*
X153963714Y-115292190D01*
X154154190Y-115244571D01*
X154249428Y-115196952D01*
X154297047Y-115149333D01*
X154344666Y-115054095D01*
X154344666Y-114958857D01*
X154297047Y-114863619D01*
X154249428Y-114816000D01*
X154154190Y-114768380D01*
X153916095Y-114768380D01*
X153773238Y-114816000D01*
X153487523Y-114768380D02*
X152916095Y-114768380D01*
X153201809Y-115768380D02*
X153201809Y-114768380D01*
X156278742Y-72175714D02*
X156278742Y-72842380D01*
X156278742Y-72270952D02*
X156231123Y-72223333D01*
X156135885Y-72175714D01*
X155993028Y-72175714D01*
X155897790Y-72223333D01*
X155850171Y-72318571D01*
X155850171Y-72842380D01*
X154802552Y-72842380D02*
X155135885Y-72366190D01*
X155373980Y-72842380D02*
X155373980Y-71842380D01*
X154993028Y-71842380D01*
X154897790Y-71890000D01*
X154850171Y-71937619D01*
X154802552Y-72032857D01*
X154802552Y-72175714D01*
X154850171Y-72270952D01*
X154897790Y-72318571D01*
X154993028Y-72366190D01*
X155373980Y-72366190D01*
X154040647Y-72318571D02*
X154373980Y-72318571D01*
X154373980Y-72842380D02*
X154373980Y-71842380D01*
X153897790Y-71842380D01*
X153040647Y-71842380D02*
X153516838Y-71842380D01*
X153564457Y-72318571D01*
X153516838Y-72270952D01*
X153421600Y-72223333D01*
X153183504Y-72223333D01*
X153088266Y-72270952D01*
X153040647Y-72318571D01*
X152993028Y-72413809D01*
X152993028Y-72651904D01*
X153040647Y-72747142D01*
X153088266Y-72794761D01*
X153183504Y-72842380D01*
X153421600Y-72842380D01*
X153516838Y-72794761D01*
X153564457Y-72747142D01*
X152612076Y-71937619D02*
X152564457Y-71890000D01*
X152469219Y-71842380D01*
X152231123Y-71842380D01*
X152135885Y-71890000D01*
X152088266Y-71937619D01*
X152040647Y-72032857D01*
X152040647Y-72128095D01*
X152088266Y-72270952D01*
X152659695Y-72842380D01*
X152040647Y-72842380D01*
X150516838Y-72318571D02*
X150373980Y-72366190D01*
X150326361Y-72413809D01*
X150278742Y-72509047D01*
X150278742Y-72651904D01*
X150326361Y-72747142D01*
X150373980Y-72794761D01*
X150469219Y-72842380D01*
X150850171Y-72842380D01*
X150850171Y-71842380D01*
X150516838Y-71842380D01*
X150421600Y-71890000D01*
X150373980Y-71937619D01*
X150326361Y-72032857D01*
X150326361Y-72128095D01*
X150373980Y-72223333D01*
X150421600Y-72270952D01*
X150516838Y-72318571D01*
X150850171Y-72318571D01*
X149707314Y-72842380D02*
X149802552Y-72794761D01*
X149850171Y-72699523D01*
X149850171Y-71842380D01*
X148897790Y-72175714D02*
X148897790Y-72842380D01*
X149326361Y-72175714D02*
X149326361Y-72699523D01*
X149278742Y-72794761D01*
X149183504Y-72842380D01*
X149040647Y-72842380D01*
X148945409Y-72794761D01*
X148897790Y-72747142D01*
X148040647Y-72794761D02*
X148135885Y-72842380D01*
X148326361Y-72842380D01*
X148421600Y-72794761D01*
X148469219Y-72699523D01*
X148469219Y-72318571D01*
X148421600Y-72223333D01*
X148326361Y-72175714D01*
X148135885Y-72175714D01*
X148040647Y-72223333D01*
X147993028Y-72318571D01*
X147993028Y-72413809D01*
X148469219Y-72509047D01*
X147707314Y-72175714D02*
X147326361Y-72175714D01*
X147564457Y-72842380D02*
X147564457Y-71985238D01*
X147516838Y-71890000D01*
X147421600Y-71842380D01*
X147326361Y-71842380D01*
X146993028Y-72842380D02*
X146993028Y-72175714D01*
X146993028Y-72366190D02*
X146945409Y-72270952D01*
X146897790Y-72223333D01*
X146802552Y-72175714D01*
X146707314Y-72175714D01*
X145945409Y-72175714D02*
X145945409Y-72842380D01*
X146373980Y-72175714D02*
X146373980Y-72699523D01*
X146326361Y-72794761D01*
X146231123Y-72842380D01*
X146088266Y-72842380D01*
X145993028Y-72794761D01*
X145945409Y-72747142D01*
X145469219Y-72842380D02*
X145469219Y-72175714D01*
X145469219Y-71842380D02*
X145516838Y-71890000D01*
X145469219Y-71937619D01*
X145421600Y-71890000D01*
X145469219Y-71842380D01*
X145469219Y-71937619D01*
X145135885Y-72175714D02*
X144754933Y-72175714D01*
X144993028Y-71842380D02*
X144993028Y-72699523D01*
X144945409Y-72794761D01*
X144850171Y-72842380D01*
X144754933Y-72842380D01*
X143326361Y-72318571D02*
X143659695Y-72318571D01*
X143659695Y-72842380D02*
X143659695Y-71842380D01*
X143183504Y-71842380D01*
X142421600Y-72794761D02*
X142516838Y-72842380D01*
X142707314Y-72842380D01*
X142802552Y-72794761D01*
X142850171Y-72699523D01*
X142850171Y-72318571D01*
X142802552Y-72223333D01*
X142707314Y-72175714D01*
X142516838Y-72175714D01*
X142421600Y-72223333D01*
X142373980Y-72318571D01*
X142373980Y-72413809D01*
X142850171Y-72509047D01*
X141516838Y-72842380D02*
X141516838Y-72318571D01*
X141564457Y-72223333D01*
X141659695Y-72175714D01*
X141850171Y-72175714D01*
X141945409Y-72223333D01*
X141516838Y-72794761D02*
X141612076Y-72842380D01*
X141850171Y-72842380D01*
X141945409Y-72794761D01*
X141993028Y-72699523D01*
X141993028Y-72604285D01*
X141945409Y-72509047D01*
X141850171Y-72461428D01*
X141612076Y-72461428D01*
X141516838Y-72413809D01*
X141183504Y-72175714D02*
X140802552Y-72175714D01*
X141040647Y-71842380D02*
X141040647Y-72699523D01*
X140993028Y-72794761D01*
X140897790Y-72842380D01*
X140802552Y-72842380D01*
X140469219Y-72842380D02*
X140469219Y-71842380D01*
X140040647Y-72842380D02*
X140040647Y-72318571D01*
X140088266Y-72223333D01*
X140183504Y-72175714D01*
X140326361Y-72175714D01*
X140421600Y-72223333D01*
X140469219Y-72270952D01*
X139183504Y-72794761D02*
X139278742Y-72842380D01*
X139469219Y-72842380D01*
X139564457Y-72794761D01*
X139612076Y-72699523D01*
X139612076Y-72318571D01*
X139564457Y-72223333D01*
X139469219Y-72175714D01*
X139278742Y-72175714D01*
X139183504Y-72223333D01*
X139135885Y-72318571D01*
X139135885Y-72413809D01*
X139612076Y-72509047D01*
X138707314Y-72842380D02*
X138707314Y-72175714D01*
X138707314Y-72366190D02*
X138659695Y-72270952D01*
X138612076Y-72223333D01*
X138516838Y-72175714D01*
X138421600Y-72175714D01*
X155939666Y-57872380D02*
X155606333Y-58872380D01*
X155273000Y-57872380D01*
X154939666Y-58348571D02*
X154606333Y-58348571D01*
X154463476Y-58872380D02*
X154939666Y-58872380D01*
X154939666Y-57872380D01*
X154463476Y-57872380D01*
X154034904Y-58872380D02*
X154034904Y-57872380D01*
X153701571Y-58586666D01*
X153368238Y-57872380D01*
X153368238Y-58872380D01*
X152415857Y-58872380D02*
X152892047Y-58872380D01*
X152892047Y-57872380D01*
X151653952Y-57872380D02*
X151844428Y-57872380D01*
X151939666Y-57920000D01*
X151987285Y-57967619D01*
X152082523Y-58110476D01*
X152130142Y-58300952D01*
X152130142Y-58681904D01*
X152082523Y-58777142D01*
X152034904Y-58824761D01*
X151939666Y-58872380D01*
X151749190Y-58872380D01*
X151653952Y-58824761D01*
X151606333Y-58777142D01*
X151558714Y-58681904D01*
X151558714Y-58443809D01*
X151606333Y-58348571D01*
X151653952Y-58300952D01*
X151749190Y-58253333D01*
X151939666Y-58253333D01*
X152034904Y-58300952D01*
X152082523Y-58348571D01*
X152130142Y-58443809D01*
X150939666Y-57872380D02*
X150844428Y-57872380D01*
X150749190Y-57920000D01*
X150701571Y-57967619D01*
X150653952Y-58062857D01*
X150606333Y-58253333D01*
X150606333Y-58491428D01*
X150653952Y-58681904D01*
X150701571Y-58777142D01*
X150749190Y-58824761D01*
X150844428Y-58872380D01*
X150939666Y-58872380D01*
X151034904Y-58824761D01*
X151082523Y-58777142D01*
X151130142Y-58681904D01*
X151177761Y-58491428D01*
X151177761Y-58253333D01*
X151130142Y-58062857D01*
X151082523Y-57967619D01*
X151034904Y-57920000D01*
X150939666Y-57872380D01*
X150273000Y-57872380D02*
X149606333Y-57872380D01*
X150034904Y-58872380D01*
X148749190Y-57872380D02*
X149225380Y-57872380D01*
X149273000Y-58348571D01*
X149225380Y-58300952D01*
X149130142Y-58253333D01*
X148892047Y-58253333D01*
X148796809Y-58300952D01*
X148749190Y-58348571D01*
X148701571Y-58443809D01*
X148701571Y-58681904D01*
X148749190Y-58777142D01*
X148796809Y-58824761D01*
X148892047Y-58872380D01*
X149130142Y-58872380D01*
X149225380Y-58824761D01*
X149273000Y-58777142D01*
X139231666Y-64587380D02*
X139565000Y-64111190D01*
X139803095Y-64587380D02*
X139803095Y-63587380D01*
X139422142Y-63587380D01*
X139326904Y-63635000D01*
X139279285Y-63682619D01*
X139231666Y-63777857D01*
X139231666Y-63920714D01*
X139279285Y-64015952D01*
X139326904Y-64063571D01*
X139422142Y-64111190D01*
X139803095Y-64111190D01*
X138898333Y-63587380D02*
X138279285Y-63587380D01*
X138612619Y-63968333D01*
X138469761Y-63968333D01*
X138374523Y-64015952D01*
X138326904Y-64063571D01*
X138279285Y-64158809D01*
X138279285Y-64396904D01*
X138326904Y-64492142D01*
X138374523Y-64539761D01*
X138469761Y-64587380D01*
X138755476Y-64587380D01*
X138850714Y-64539761D01*
X138898333Y-64492142D01*
X141771666Y-64587380D02*
X142105000Y-64111190D01*
X142343095Y-64587380D02*
X142343095Y-63587380D01*
X141962142Y-63587380D01*
X141866904Y-63635000D01*
X141819285Y-63682619D01*
X141771666Y-63777857D01*
X141771666Y-63920714D01*
X141819285Y-64015952D01*
X141866904Y-64063571D01*
X141962142Y-64111190D01*
X142343095Y-64111190D01*
X141390714Y-63682619D02*
X141343095Y-63635000D01*
X141247857Y-63587380D01*
X141009761Y-63587380D01*
X140914523Y-63635000D01*
X140866904Y-63682619D01*
X140819285Y-63777857D01*
X140819285Y-63873095D01*
X140866904Y-64015952D01*
X141438333Y-64587380D01*
X140819285Y-64587380D01*
X144311666Y-64587380D02*
X144645000Y-64111190D01*
X144883095Y-64587380D02*
X144883095Y-63587380D01*
X144502142Y-63587380D01*
X144406904Y-63635000D01*
X144359285Y-63682619D01*
X144311666Y-63777857D01*
X144311666Y-63920714D01*
X144359285Y-64015952D01*
X144406904Y-64063571D01*
X144502142Y-64111190D01*
X144883095Y-64111190D01*
X143359285Y-64587380D02*
X143930714Y-64587380D01*
X143645000Y-64587380D02*
X143645000Y-63587380D01*
X143740238Y-63730238D01*
X143835476Y-63825476D01*
X143930714Y-63873095D01*
X151931666Y-63952380D02*
X152265000Y-63476190D01*
X152503095Y-63952380D02*
X152503095Y-62952380D01*
X152122142Y-62952380D01*
X152026904Y-63000000D01*
X151979285Y-63047619D01*
X151931666Y-63142857D01*
X151931666Y-63285714D01*
X151979285Y-63380952D01*
X152026904Y-63428571D01*
X152122142Y-63476190D01*
X152503095Y-63476190D01*
X151074523Y-63285714D02*
X151074523Y-63952380D01*
X151312619Y-62904761D02*
X151550714Y-63619047D01*
X150931666Y-63619047D01*
M02*
