G04 #@! TF.GenerationSoftware,KiCad,Pcbnew,(5.1.0-0)*
G04 #@! TF.CreationDate,2019-06-12T16:48:35+08:00*
G04 #@! TF.ProjectId,Palm,50616c6d-2e6b-4696-9361-645f70636258,V1.0*
G04 #@! TF.SameCoordinates,Original*
G04 #@! TF.FileFunction,Copper,L1,Top*
G04 #@! TF.FilePolarity,Positive*
%FSLAX46Y46*%
G04 Gerber Fmt 4.6, Leading zero omitted, Abs format (unit mm)*
G04 Created by KiCad (PCBNEW (5.1.0-0)) date 2019-06-12 16:48:35*
%MOMM*%
%LPD*%
G04 APERTURE LIST*
%ADD10C,1.700000*%
%ADD11O,1.700000X1.700000*%
%ADD12R,1.300000X2.600000*%
%ADD13R,0.800000X1.000000*%
%ADD14R,1.500000X0.700000*%
%ADD15R,0.800000X0.900000*%
%ADD16C,0.100000*%
%ADD17C,1.000000*%
%ADD18C,1.500000*%
%ADD19C,0.800000*%
%ADD20C,0.700000*%
%ADD21C,0.250000*%
%ADD22C,0.400000*%
%ADD23C,0.254000*%
G04 APERTURE END LIST*
D10*
X157632400Y-89903300D03*
X157632400Y-94983300D03*
X157632400Y-92443300D03*
X157632400Y-112763300D03*
X157632400Y-105143300D03*
X137312400Y-102603300D03*
X137312400Y-97523300D03*
X157632400Y-77203300D03*
X137312400Y-82283300D03*
X157632400Y-82283300D03*
X137312400Y-94983300D03*
X137312400Y-79743300D03*
X157632400Y-87363300D03*
X137312400Y-84823300D03*
X157632400Y-110223300D03*
X137312400Y-100063300D03*
X157632400Y-100063300D03*
X157632400Y-79743300D03*
X137312400Y-105143300D03*
X157632400Y-102603300D03*
X157632400Y-115303300D03*
X157632400Y-97523300D03*
X137312400Y-87363300D03*
X157632400Y-107683300D03*
X137312400Y-89903300D03*
X137312400Y-92443300D03*
X137312400Y-77203300D03*
X157632400Y-84823300D03*
X147320000Y-66929000D03*
D11*
X149860000Y-66929000D03*
X152400000Y-66929000D03*
X157480000Y-66929000D03*
X154940000Y-66929000D03*
D12*
X139805000Y-58480000D03*
X141605000Y-58480000D03*
X143405000Y-58480000D03*
X139805000Y-53280000D03*
X141605000Y-53280000D03*
X143405000Y-53280000D03*
D13*
X132860000Y-96680000D03*
X132860000Y-103980000D03*
X130650000Y-103980000D03*
X130650000Y-96680000D03*
D14*
X133510000Y-102580000D03*
X133510000Y-101080000D03*
X133510000Y-98080000D03*
D13*
X132860000Y-75725000D03*
X132860000Y-83025000D03*
X130650000Y-83025000D03*
X130650000Y-75725000D03*
D14*
X133510000Y-81625000D03*
X133510000Y-80125000D03*
X133510000Y-77125000D03*
D15*
X143428720Y-70216520D03*
X144378720Y-72216520D03*
X142478720Y-72216520D03*
D16*
G36*
X139629504Y-63271204D02*
G01*
X139653773Y-63274804D01*
X139677571Y-63280765D01*
X139700671Y-63289030D01*
X139722849Y-63299520D01*
X139743893Y-63312133D01*
X139763598Y-63326747D01*
X139781777Y-63343223D01*
X139798253Y-63361402D01*
X139812867Y-63381107D01*
X139825480Y-63402151D01*
X139835970Y-63424329D01*
X139844235Y-63447429D01*
X139850196Y-63471227D01*
X139853796Y-63495496D01*
X139855000Y-63520000D01*
X139855000Y-64020000D01*
X139853796Y-64044504D01*
X139850196Y-64068773D01*
X139844235Y-64092571D01*
X139835970Y-64115671D01*
X139825480Y-64137849D01*
X139812867Y-64158893D01*
X139798253Y-64178598D01*
X139781777Y-64196777D01*
X139763598Y-64213253D01*
X139743893Y-64227867D01*
X139722849Y-64240480D01*
X139700671Y-64250970D01*
X139677571Y-64259235D01*
X139653773Y-64265196D01*
X139629504Y-64268796D01*
X139605000Y-64270000D01*
X136605000Y-64270000D01*
X136580496Y-64268796D01*
X136556227Y-64265196D01*
X136532429Y-64259235D01*
X136509329Y-64250970D01*
X136487151Y-64240480D01*
X136466107Y-64227867D01*
X136446402Y-64213253D01*
X136428223Y-64196777D01*
X136411747Y-64178598D01*
X136397133Y-64158893D01*
X136384520Y-64137849D01*
X136374030Y-64115671D01*
X136365765Y-64092571D01*
X136359804Y-64068773D01*
X136356204Y-64044504D01*
X136355000Y-64020000D01*
X136355000Y-63520000D01*
X136356204Y-63495496D01*
X136359804Y-63471227D01*
X136365765Y-63447429D01*
X136374030Y-63424329D01*
X136384520Y-63402151D01*
X136397133Y-63381107D01*
X136411747Y-63361402D01*
X136428223Y-63343223D01*
X136446402Y-63326747D01*
X136466107Y-63312133D01*
X136487151Y-63299520D01*
X136509329Y-63289030D01*
X136532429Y-63280765D01*
X136556227Y-63274804D01*
X136580496Y-63271204D01*
X136605000Y-63270000D01*
X139605000Y-63270000D01*
X139629504Y-63271204D01*
X139629504Y-63271204D01*
G37*
D17*
X138105000Y-63770000D03*
D16*
G36*
X139629504Y-65271204D02*
G01*
X139653773Y-65274804D01*
X139677571Y-65280765D01*
X139700671Y-65289030D01*
X139722849Y-65299520D01*
X139743893Y-65312133D01*
X139763598Y-65326747D01*
X139781777Y-65343223D01*
X139798253Y-65361402D01*
X139812867Y-65381107D01*
X139825480Y-65402151D01*
X139835970Y-65424329D01*
X139844235Y-65447429D01*
X139850196Y-65471227D01*
X139853796Y-65495496D01*
X139855000Y-65520000D01*
X139855000Y-66020000D01*
X139853796Y-66044504D01*
X139850196Y-66068773D01*
X139844235Y-66092571D01*
X139835970Y-66115671D01*
X139825480Y-66137849D01*
X139812867Y-66158893D01*
X139798253Y-66178598D01*
X139781777Y-66196777D01*
X139763598Y-66213253D01*
X139743893Y-66227867D01*
X139722849Y-66240480D01*
X139700671Y-66250970D01*
X139677571Y-66259235D01*
X139653773Y-66265196D01*
X139629504Y-66268796D01*
X139605000Y-66270000D01*
X136605000Y-66270000D01*
X136580496Y-66268796D01*
X136556227Y-66265196D01*
X136532429Y-66259235D01*
X136509329Y-66250970D01*
X136487151Y-66240480D01*
X136466107Y-66227867D01*
X136446402Y-66213253D01*
X136428223Y-66196777D01*
X136411747Y-66178598D01*
X136397133Y-66158893D01*
X136384520Y-66137849D01*
X136374030Y-66115671D01*
X136365765Y-66092571D01*
X136359804Y-66068773D01*
X136356204Y-66044504D01*
X136355000Y-66020000D01*
X136355000Y-65520000D01*
X136356204Y-65495496D01*
X136359804Y-65471227D01*
X136365765Y-65447429D01*
X136374030Y-65424329D01*
X136384520Y-65402151D01*
X136397133Y-65381107D01*
X136411747Y-65361402D01*
X136428223Y-65343223D01*
X136446402Y-65326747D01*
X136466107Y-65312133D01*
X136487151Y-65299520D01*
X136509329Y-65289030D01*
X136532429Y-65280765D01*
X136556227Y-65274804D01*
X136580496Y-65271204D01*
X136605000Y-65270000D01*
X139605000Y-65270000D01*
X139629504Y-65271204D01*
X139629504Y-65271204D01*
G37*
D17*
X138105000Y-65770000D03*
D16*
G36*
X133829504Y-60671204D02*
G01*
X133853773Y-60674804D01*
X133877571Y-60680765D01*
X133900671Y-60689030D01*
X133922849Y-60699520D01*
X133943893Y-60712133D01*
X133963598Y-60726747D01*
X133981777Y-60743223D01*
X133998253Y-60761402D01*
X134012867Y-60781107D01*
X134025480Y-60802151D01*
X134035970Y-60824329D01*
X134044235Y-60847429D01*
X134050196Y-60871227D01*
X134053796Y-60895496D01*
X134055000Y-60920000D01*
X134055000Y-61920000D01*
X134053796Y-61944504D01*
X134050196Y-61968773D01*
X134044235Y-61992571D01*
X134035970Y-62015671D01*
X134025480Y-62037849D01*
X134012867Y-62058893D01*
X133998253Y-62078598D01*
X133981777Y-62096777D01*
X133963598Y-62113253D01*
X133943893Y-62127867D01*
X133922849Y-62140480D01*
X133900671Y-62150970D01*
X133877571Y-62159235D01*
X133853773Y-62165196D01*
X133829504Y-62168796D01*
X133805000Y-62170000D01*
X130905000Y-62170000D01*
X130880496Y-62168796D01*
X130856227Y-62165196D01*
X130832429Y-62159235D01*
X130809329Y-62150970D01*
X130787151Y-62140480D01*
X130766107Y-62127867D01*
X130746402Y-62113253D01*
X130728223Y-62096777D01*
X130711747Y-62078598D01*
X130697133Y-62058893D01*
X130684520Y-62037849D01*
X130674030Y-62015671D01*
X130665765Y-61992571D01*
X130659804Y-61968773D01*
X130656204Y-61944504D01*
X130655000Y-61920000D01*
X130655000Y-60920000D01*
X130656204Y-60895496D01*
X130659804Y-60871227D01*
X130665765Y-60847429D01*
X130674030Y-60824329D01*
X130684520Y-60802151D01*
X130697133Y-60781107D01*
X130711747Y-60761402D01*
X130728223Y-60743223D01*
X130746402Y-60726747D01*
X130766107Y-60712133D01*
X130787151Y-60699520D01*
X130809329Y-60689030D01*
X130832429Y-60680765D01*
X130856227Y-60674804D01*
X130880496Y-60671204D01*
X130905000Y-60670000D01*
X133805000Y-60670000D01*
X133829504Y-60671204D01*
X133829504Y-60671204D01*
G37*
D18*
X132355000Y-61420000D03*
D16*
G36*
X133829504Y-67371204D02*
G01*
X133853773Y-67374804D01*
X133877571Y-67380765D01*
X133900671Y-67389030D01*
X133922849Y-67399520D01*
X133943893Y-67412133D01*
X133963598Y-67426747D01*
X133981777Y-67443223D01*
X133998253Y-67461402D01*
X134012867Y-67481107D01*
X134025480Y-67502151D01*
X134035970Y-67524329D01*
X134044235Y-67547429D01*
X134050196Y-67571227D01*
X134053796Y-67595496D01*
X134055000Y-67620000D01*
X134055000Y-68620000D01*
X134053796Y-68644504D01*
X134050196Y-68668773D01*
X134044235Y-68692571D01*
X134035970Y-68715671D01*
X134025480Y-68737849D01*
X134012867Y-68758893D01*
X133998253Y-68778598D01*
X133981777Y-68796777D01*
X133963598Y-68813253D01*
X133943893Y-68827867D01*
X133922849Y-68840480D01*
X133900671Y-68850970D01*
X133877571Y-68859235D01*
X133853773Y-68865196D01*
X133829504Y-68868796D01*
X133805000Y-68870000D01*
X130905000Y-68870000D01*
X130880496Y-68868796D01*
X130856227Y-68865196D01*
X130832429Y-68859235D01*
X130809329Y-68850970D01*
X130787151Y-68840480D01*
X130766107Y-68827867D01*
X130746402Y-68813253D01*
X130728223Y-68796777D01*
X130711747Y-68778598D01*
X130697133Y-68758893D01*
X130684520Y-68737849D01*
X130674030Y-68715671D01*
X130665765Y-68692571D01*
X130659804Y-68668773D01*
X130656204Y-68644504D01*
X130655000Y-68620000D01*
X130655000Y-67620000D01*
X130656204Y-67595496D01*
X130659804Y-67571227D01*
X130665765Y-67547429D01*
X130674030Y-67524329D01*
X130684520Y-67502151D01*
X130697133Y-67481107D01*
X130711747Y-67461402D01*
X130728223Y-67443223D01*
X130746402Y-67426747D01*
X130766107Y-67412133D01*
X130787151Y-67399520D01*
X130809329Y-67389030D01*
X130832429Y-67380765D01*
X130856227Y-67374804D01*
X130880496Y-67371204D01*
X130905000Y-67370000D01*
X133805000Y-67370000D01*
X133829504Y-67371204D01*
X133829504Y-67371204D01*
G37*
D18*
X132355000Y-68120000D03*
D19*
X141605000Y-55880000D03*
X143510000Y-55880000D03*
D20*
X134620000Y-104140000D03*
X141605000Y-66675000D03*
D19*
X142478720Y-91836280D03*
X139700000Y-55880000D03*
X133985000Y-99695000D03*
X154940000Y-69850000D03*
X140076760Y-78389480D03*
X139700000Y-74930000D03*
X157480000Y-69850000D03*
D21*
X141605000Y-53280000D02*
X141605000Y-55880000D01*
X143405000Y-55775000D02*
X143510000Y-55880000D01*
X143405000Y-53280000D02*
X143405000Y-55775000D01*
D22*
X138105000Y-65770000D02*
X140700000Y-65770000D01*
X140700000Y-65770000D02*
X141605000Y-66675000D01*
X133510000Y-102580000D02*
X133910000Y-102580000D01*
X134620000Y-103290000D02*
X134620000Y-104140000D01*
X133910000Y-102580000D02*
X134620000Y-103290000D01*
X133910000Y-77125000D02*
X133510000Y-77125000D01*
X135255000Y-75780000D02*
X133910000Y-77125000D01*
X135255000Y-64135000D02*
X135255000Y-75780000D01*
X135620000Y-63770000D02*
X138105000Y-63770000D01*
X135255000Y-64135000D02*
X135620000Y-63770000D01*
D21*
X144032480Y-70216520D02*
X143428720Y-70216520D01*
X147320000Y-66929000D02*
X144032480Y-70216520D01*
X142478720Y-72216520D02*
X142478720Y-91836280D01*
X139805000Y-55775000D02*
X139700000Y-55880000D01*
X139805000Y-53280000D02*
X139805000Y-55775000D01*
D22*
X138752580Y-105143300D02*
X137312400Y-105143300D01*
X139176760Y-104719120D02*
X138752580Y-105143300D01*
X133510000Y-80125000D02*
X133510000Y-79007698D01*
X139176760Y-77069658D02*
X139176760Y-104719120D01*
X136664399Y-75853299D02*
X137960401Y-75853299D01*
X137960401Y-75853299D02*
X139176760Y-77069658D01*
X133510000Y-79007698D02*
X136664399Y-75853299D01*
D21*
X133510000Y-100480000D02*
X133985000Y-100005000D01*
X133510000Y-101080000D02*
X133510000Y-100480000D01*
X133985000Y-100005000D02*
X133985000Y-99695000D01*
X156210000Y-98640900D02*
X157632400Y-100063300D01*
X154305000Y-61595000D02*
X156210000Y-63500000D01*
X143170000Y-61595000D02*
X154305000Y-61595000D01*
X141605000Y-60030000D02*
X143170000Y-61595000D01*
X156210000Y-63500000D02*
X156210000Y-98640900D01*
X141605000Y-58480000D02*
X141605000Y-60030000D01*
X143405000Y-58480000D02*
X156270000Y-58480000D01*
X156270000Y-58480000D02*
X159385000Y-61595000D01*
X159385000Y-95770700D02*
X157632400Y-97523300D01*
X159385000Y-61595000D02*
X159385000Y-95770700D01*
X156782401Y-101753301D02*
X157632400Y-102603300D01*
X153764999Y-98735899D02*
X156782401Y-101753301D01*
X153764999Y-64229999D02*
X153764999Y-98735899D01*
X152400000Y-62865000D02*
X153764999Y-64229999D01*
X142640000Y-62865000D02*
X152400000Y-62865000D01*
X139805000Y-60030000D02*
X142640000Y-62865000D01*
X139805000Y-58480000D02*
X139805000Y-60030000D01*
X154940000Y-66929000D02*
X154940000Y-69850000D01*
X140004800Y-78389480D02*
X140076760Y-78389480D01*
X140076760Y-77823795D02*
X140076760Y-78389480D01*
X140076760Y-75872445D02*
X140076760Y-77823795D01*
X139700000Y-75495685D02*
X140076760Y-75872445D01*
X139700000Y-74930000D02*
X139700000Y-75495685D01*
X157480000Y-66929000D02*
X157480000Y-69850000D01*
D23*
G36*
X133032046Y-52354467D02*
G01*
X132403930Y-52774161D01*
X131869761Y-53308330D01*
X131450067Y-53936446D01*
X131160977Y-54634372D01*
X131013600Y-55375285D01*
X131013600Y-56130715D01*
X131160977Y-56871628D01*
X131450067Y-57569554D01*
X131869761Y-58197670D01*
X132403930Y-58731839D01*
X133032046Y-59151533D01*
X133729972Y-59440623D01*
X134470885Y-59588000D01*
X135226315Y-59588000D01*
X135967228Y-59440623D01*
X136665154Y-59151533D01*
X137293270Y-58731839D01*
X137827439Y-58197670D01*
X138247133Y-57569554D01*
X138536223Y-56871628D01*
X138683600Y-56130715D01*
X138683600Y-56075448D01*
X138704774Y-56181898D01*
X138782795Y-56370256D01*
X138896063Y-56539774D01*
X138938416Y-56582127D01*
X138910820Y-56590498D01*
X138800506Y-56649463D01*
X138703815Y-56728815D01*
X138624463Y-56825506D01*
X138565498Y-56935820D01*
X138529188Y-57055518D01*
X138516928Y-57180000D01*
X138516928Y-59780000D01*
X138529188Y-59904482D01*
X138565498Y-60024180D01*
X138624463Y-60134494D01*
X138703815Y-60231185D01*
X138800506Y-60310537D01*
X138910820Y-60369502D01*
X139030518Y-60405812D01*
X139150434Y-60417622D01*
X139170026Y-60454276D01*
X139241201Y-60541002D01*
X139265000Y-60570001D01*
X139293998Y-60593799D01*
X142076205Y-63376008D01*
X142099999Y-63405001D01*
X142128992Y-63428795D01*
X142128996Y-63428799D01*
X142153507Y-63448914D01*
X142215724Y-63499974D01*
X142347753Y-63570546D01*
X142491014Y-63614003D01*
X142602667Y-63625000D01*
X142602676Y-63625000D01*
X142639999Y-63628676D01*
X142677322Y-63625000D01*
X152085199Y-63625000D01*
X153004999Y-64544801D01*
X153004999Y-65568556D01*
X152971034Y-65550401D01*
X152691111Y-65465487D01*
X152472950Y-65444000D01*
X152327050Y-65444000D01*
X152108889Y-65465487D01*
X151828966Y-65550401D01*
X151570986Y-65688294D01*
X151344866Y-65873866D01*
X151159294Y-66099986D01*
X151130000Y-66154791D01*
X151100706Y-66099986D01*
X150915134Y-65873866D01*
X150689014Y-65688294D01*
X150431034Y-65550401D01*
X150151111Y-65465487D01*
X149932950Y-65444000D01*
X149787050Y-65444000D01*
X149568889Y-65465487D01*
X149288966Y-65550401D01*
X149030986Y-65688294D01*
X148804866Y-65873866D01*
X148619294Y-66099986D01*
X148589415Y-66155885D01*
X148473475Y-65982368D01*
X148266632Y-65775525D01*
X148023411Y-65613010D01*
X147753158Y-65501068D01*
X147466260Y-65444000D01*
X147173740Y-65444000D01*
X146886842Y-65501068D01*
X146616589Y-65613010D01*
X146373368Y-65775525D01*
X146166525Y-65982368D01*
X146004010Y-66225589D01*
X145892068Y-66495842D01*
X145835000Y-66782740D01*
X145835000Y-67075260D01*
X145878790Y-67295408D01*
X144014804Y-69159395D01*
X143953202Y-69140708D01*
X143828720Y-69128448D01*
X143028720Y-69128448D01*
X142904238Y-69140708D01*
X142784540Y-69177018D01*
X142674226Y-69235983D01*
X142577535Y-69315335D01*
X142498183Y-69412026D01*
X142439218Y-69522340D01*
X142402908Y-69642038D01*
X142390648Y-69766520D01*
X142390648Y-70666520D01*
X142402908Y-70791002D01*
X142439218Y-70910700D01*
X142498183Y-71021014D01*
X142577535Y-71117705D01*
X142590625Y-71128448D01*
X142078720Y-71128448D01*
X141954238Y-71140708D01*
X141834540Y-71177018D01*
X141724226Y-71235983D01*
X141627535Y-71315335D01*
X141548183Y-71412026D01*
X141489218Y-71522340D01*
X141452908Y-71642038D01*
X141440648Y-71766520D01*
X141440648Y-72666520D01*
X141452908Y-72791002D01*
X141489218Y-72910700D01*
X141548183Y-73021014D01*
X141627535Y-73117705D01*
X141718720Y-73192538D01*
X141718721Y-91132568D01*
X141674783Y-91176506D01*
X141561515Y-91346024D01*
X141483494Y-91534382D01*
X141443720Y-91734341D01*
X141443720Y-91938219D01*
X141483494Y-92138178D01*
X141561515Y-92326536D01*
X141674783Y-92496054D01*
X141818946Y-92640217D01*
X141988464Y-92753485D01*
X142176822Y-92831506D01*
X142376781Y-92871280D01*
X142580659Y-92871280D01*
X142780618Y-92831506D01*
X142968976Y-92753485D01*
X143138494Y-92640217D01*
X143282657Y-92496054D01*
X143395925Y-92326536D01*
X143473946Y-92138178D01*
X143513720Y-91938219D01*
X143513720Y-91734341D01*
X143473946Y-91534382D01*
X143395925Y-91346024D01*
X143282657Y-91176506D01*
X143238720Y-91132569D01*
X143238720Y-73192538D01*
X143329905Y-73117705D01*
X143409257Y-73021014D01*
X143428720Y-72984602D01*
X143448183Y-73021014D01*
X143527535Y-73117705D01*
X143624226Y-73197057D01*
X143734540Y-73256022D01*
X143854238Y-73292332D01*
X143978720Y-73304592D01*
X144092970Y-73301520D01*
X144251720Y-73142770D01*
X144251720Y-72343520D01*
X144505720Y-72343520D01*
X144505720Y-73142770D01*
X144664470Y-73301520D01*
X144778720Y-73304592D01*
X144903202Y-73292332D01*
X145022900Y-73256022D01*
X145133214Y-73197057D01*
X145229905Y-73117705D01*
X145309257Y-73021014D01*
X145368222Y-72910700D01*
X145404532Y-72791002D01*
X145416792Y-72666520D01*
X145413720Y-72502270D01*
X145254970Y-72343520D01*
X144505720Y-72343520D01*
X144251720Y-72343520D01*
X144231720Y-72343520D01*
X144231720Y-72089520D01*
X144251720Y-72089520D01*
X144251720Y-71290270D01*
X144505720Y-71290270D01*
X144505720Y-72089520D01*
X145254970Y-72089520D01*
X145413720Y-71930770D01*
X145416792Y-71766520D01*
X145404532Y-71642038D01*
X145368222Y-71522340D01*
X145309257Y-71412026D01*
X145229905Y-71315335D01*
X145133214Y-71235983D01*
X145022900Y-71177018D01*
X144903202Y-71140708D01*
X144778720Y-71128448D01*
X144664470Y-71131520D01*
X144505720Y-71290270D01*
X144251720Y-71290270D01*
X144167113Y-71205663D01*
X144183214Y-71197057D01*
X144279905Y-71117705D01*
X144359257Y-71021014D01*
X144418222Y-70910700D01*
X144432200Y-70864619D01*
X144456756Y-70851494D01*
X144572481Y-70756521D01*
X144596284Y-70727517D01*
X146953592Y-68370210D01*
X147173740Y-68414000D01*
X147466260Y-68414000D01*
X147753158Y-68356932D01*
X148023411Y-68244990D01*
X148266632Y-68082475D01*
X148473475Y-67875632D01*
X148589415Y-67702115D01*
X148619294Y-67758014D01*
X148804866Y-67984134D01*
X149030986Y-68169706D01*
X149288966Y-68307599D01*
X149568889Y-68392513D01*
X149787050Y-68414000D01*
X149932950Y-68414000D01*
X150151111Y-68392513D01*
X150431034Y-68307599D01*
X150689014Y-68169706D01*
X150915134Y-67984134D01*
X151100706Y-67758014D01*
X151130000Y-67703209D01*
X151159294Y-67758014D01*
X151344866Y-67984134D01*
X151570986Y-68169706D01*
X151828966Y-68307599D01*
X152108889Y-68392513D01*
X152327050Y-68414000D01*
X152472950Y-68414000D01*
X152691111Y-68392513D01*
X152971034Y-68307599D01*
X153004999Y-68289444D01*
X153005000Y-98698566D01*
X153001323Y-98735899D01*
X153015997Y-98884884D01*
X153059453Y-99028145D01*
X153130025Y-99160175D01*
X153196623Y-99241324D01*
X153224999Y-99275900D01*
X153253997Y-99299698D01*
X156191190Y-102236892D01*
X156147400Y-102457040D01*
X156147400Y-102749560D01*
X156204468Y-103036458D01*
X156316410Y-103306711D01*
X156478925Y-103549932D01*
X156685768Y-103756775D01*
X156860160Y-103873300D01*
X156685768Y-103989825D01*
X156478925Y-104196668D01*
X156316410Y-104439889D01*
X156204468Y-104710142D01*
X156147400Y-104997040D01*
X156147400Y-105289560D01*
X156204468Y-105576458D01*
X156316410Y-105846711D01*
X156478925Y-106089932D01*
X156685768Y-106296775D01*
X156860160Y-106413300D01*
X156685768Y-106529825D01*
X156478925Y-106736668D01*
X156316410Y-106979889D01*
X156204468Y-107250142D01*
X156147400Y-107537040D01*
X156147400Y-107829560D01*
X156204468Y-108116458D01*
X156316410Y-108386711D01*
X156478925Y-108629932D01*
X156685768Y-108836775D01*
X156860160Y-108953300D01*
X156685768Y-109069825D01*
X156478925Y-109276668D01*
X156316410Y-109519889D01*
X156204468Y-109790142D01*
X156147400Y-110077040D01*
X156147400Y-110369560D01*
X156204468Y-110656458D01*
X156316410Y-110926711D01*
X156478925Y-111169932D01*
X156685768Y-111376775D01*
X156859129Y-111492611D01*
X156783608Y-111734903D01*
X157632400Y-112583695D01*
X158481192Y-111734903D01*
X158405671Y-111492611D01*
X158579032Y-111376775D01*
X158785875Y-111169932D01*
X158948390Y-110926711D01*
X159060332Y-110656458D01*
X159117400Y-110369560D01*
X159117400Y-110077040D01*
X159060332Y-109790142D01*
X158948390Y-109519889D01*
X158785875Y-109276668D01*
X158579032Y-109069825D01*
X158404640Y-108953300D01*
X158579032Y-108836775D01*
X158785875Y-108629932D01*
X158948390Y-108386711D01*
X159060332Y-108116458D01*
X159117400Y-107829560D01*
X159117400Y-107537040D01*
X159060332Y-107250142D01*
X158948390Y-106979889D01*
X158785875Y-106736668D01*
X158579032Y-106529825D01*
X158404640Y-106413300D01*
X158579032Y-106296775D01*
X158785875Y-106089932D01*
X158948390Y-105846711D01*
X159060332Y-105576458D01*
X159117400Y-105289560D01*
X159117400Y-104997040D01*
X159060332Y-104710142D01*
X158948390Y-104439889D01*
X158785875Y-104196668D01*
X158579032Y-103989825D01*
X158404640Y-103873300D01*
X158579032Y-103756775D01*
X158785875Y-103549932D01*
X158948390Y-103306711D01*
X159060332Y-103036458D01*
X159117400Y-102749560D01*
X159117400Y-102457040D01*
X159060332Y-102170142D01*
X158948390Y-101899889D01*
X158785875Y-101656668D01*
X158579032Y-101449825D01*
X158404640Y-101333300D01*
X158579032Y-101216775D01*
X158785875Y-101009932D01*
X158948390Y-100766711D01*
X159060332Y-100496458D01*
X159117400Y-100209560D01*
X159117400Y-99917040D01*
X159060332Y-99630142D01*
X158948390Y-99359889D01*
X158785875Y-99116668D01*
X158579032Y-98909825D01*
X158404640Y-98793300D01*
X158579032Y-98676775D01*
X158785875Y-98469932D01*
X158948390Y-98226711D01*
X159060332Y-97956458D01*
X159117400Y-97669560D01*
X159117400Y-97377040D01*
X159073610Y-97156892D01*
X159360000Y-96870501D01*
X159360000Y-119347721D01*
X159321091Y-119744545D01*
X159215220Y-120095206D01*
X159043257Y-120418623D01*
X158811748Y-120702482D01*
X158529514Y-120935965D01*
X158207304Y-121110184D01*
X157857385Y-121218502D01*
X157462557Y-121260000D01*
X132747279Y-121260000D01*
X132350455Y-121221091D01*
X131999794Y-121115220D01*
X131676377Y-120943257D01*
X131392518Y-120711748D01*
X131159035Y-120429514D01*
X130984816Y-120107304D01*
X130876498Y-119757385D01*
X130835000Y-119362557D01*
X130835000Y-115157040D01*
X156147400Y-115157040D01*
X156147400Y-115449560D01*
X156204468Y-115736458D01*
X156316410Y-116006711D01*
X156478925Y-116249932D01*
X156685768Y-116456775D01*
X156928989Y-116619290D01*
X157199242Y-116731232D01*
X157486140Y-116788300D01*
X157778660Y-116788300D01*
X158065558Y-116731232D01*
X158335811Y-116619290D01*
X158579032Y-116456775D01*
X158785875Y-116249932D01*
X158948390Y-116006711D01*
X159060332Y-115736458D01*
X159117400Y-115449560D01*
X159117400Y-115157040D01*
X159060332Y-114870142D01*
X158948390Y-114599889D01*
X158785875Y-114356668D01*
X158579032Y-114149825D01*
X158405671Y-114033989D01*
X158481192Y-113791697D01*
X157632400Y-112942905D01*
X156783608Y-113791697D01*
X156859129Y-114033989D01*
X156685768Y-114149825D01*
X156478925Y-114356668D01*
X156316410Y-114599889D01*
X156204468Y-114870142D01*
X156147400Y-115157040D01*
X130835000Y-115157040D01*
X130835000Y-112831831D01*
X156141789Y-112831831D01*
X156183801Y-113121319D01*
X156281481Y-113397047D01*
X156354928Y-113534457D01*
X156604003Y-113612092D01*
X157452795Y-112763300D01*
X157812005Y-112763300D01*
X158660797Y-113612092D01*
X158909872Y-113534457D01*
X159035771Y-113270417D01*
X159107739Y-112986889D01*
X159123011Y-112694769D01*
X159080999Y-112405281D01*
X158983319Y-112129553D01*
X158909872Y-111992143D01*
X158660797Y-111914508D01*
X157812005Y-112763300D01*
X157452795Y-112763300D01*
X156604003Y-111914508D01*
X156354928Y-111992143D01*
X156229029Y-112256183D01*
X156157061Y-112539711D01*
X156141789Y-112831831D01*
X130835000Y-112831831D01*
X130835000Y-105118072D01*
X131050000Y-105118072D01*
X131174482Y-105105812D01*
X131294180Y-105069502D01*
X131404494Y-105010537D01*
X131501185Y-104931185D01*
X131580537Y-104834494D01*
X131639502Y-104724180D01*
X131675812Y-104604482D01*
X131688072Y-104480000D01*
X131688072Y-103480000D01*
X131675812Y-103355518D01*
X131639502Y-103235820D01*
X131580537Y-103125506D01*
X131501185Y-103028815D01*
X131404494Y-102949463D01*
X131294180Y-102890498D01*
X131174482Y-102854188D01*
X131050000Y-102841928D01*
X130835000Y-102841928D01*
X130835000Y-102413555D01*
X130907225Y-102521647D01*
X131058353Y-102672775D01*
X131236060Y-102791515D01*
X131433517Y-102873304D01*
X131643137Y-102915000D01*
X131856863Y-102915000D01*
X132066483Y-102873304D01*
X132121928Y-102850338D01*
X132121928Y-102930000D01*
X132122928Y-102940151D01*
X132105506Y-102949463D01*
X132008815Y-103028815D01*
X131929463Y-103125506D01*
X131870498Y-103235820D01*
X131834188Y-103355518D01*
X131821928Y-103480000D01*
X131821928Y-104480000D01*
X131834188Y-104604482D01*
X131870498Y-104724180D01*
X131929463Y-104834494D01*
X132008815Y-104931185D01*
X132105506Y-105010537D01*
X132215820Y-105069502D01*
X132335518Y-105105812D01*
X132460000Y-105118072D01*
X133260000Y-105118072D01*
X133384482Y-105105812D01*
X133504180Y-105069502D01*
X133614494Y-105010537D01*
X133711185Y-104931185D01*
X133790537Y-104834494D01*
X133838918Y-104743981D01*
X133854901Y-104767901D01*
X133992099Y-104905099D01*
X134153428Y-105012896D01*
X134332686Y-105087147D01*
X134522986Y-105125000D01*
X134717014Y-105125000D01*
X134907314Y-105087147D01*
X135086572Y-105012896D01*
X135247901Y-104905099D01*
X135385099Y-104767901D01*
X135492896Y-104606572D01*
X135567147Y-104427314D01*
X135605000Y-104237014D01*
X135605000Y-104042986D01*
X135567147Y-103852686D01*
X135492896Y-103673428D01*
X135455000Y-103616713D01*
X135455000Y-103331018D01*
X135459040Y-103290000D01*
X135442918Y-103126312D01*
X135395172Y-102968913D01*
X135317636Y-102823854D01*
X135239439Y-102728570D01*
X135239437Y-102728568D01*
X135213291Y-102696709D01*
X135181433Y-102670564D01*
X134898072Y-102387204D01*
X134898072Y-102230000D01*
X134885812Y-102105518D01*
X134849502Y-101985820D01*
X134790537Y-101875506D01*
X134753191Y-101830000D01*
X134790537Y-101784494D01*
X134849502Y-101674180D01*
X134885812Y-101554482D01*
X134898072Y-101430000D01*
X134898072Y-100730000D01*
X134885812Y-100605518D01*
X134849502Y-100485820D01*
X134790537Y-100375506D01*
X134780471Y-100363240D01*
X134788937Y-100354774D01*
X134902205Y-100185256D01*
X134980226Y-99996898D01*
X135020000Y-99796939D01*
X135020000Y-99593061D01*
X134980226Y-99393102D01*
X134902205Y-99204744D01*
X134788937Y-99035226D01*
X134669284Y-98915573D01*
X134711185Y-98881185D01*
X134790537Y-98784494D01*
X134849502Y-98674180D01*
X134885812Y-98554482D01*
X134898072Y-98430000D01*
X134895000Y-98365750D01*
X134736250Y-98207000D01*
X133637000Y-98207000D01*
X133637000Y-98227000D01*
X133383000Y-98227000D01*
X133383000Y-98207000D01*
X133363000Y-98207000D01*
X133363000Y-97953000D01*
X133383000Y-97953000D01*
X133383000Y-97933000D01*
X133637000Y-97933000D01*
X133637000Y-97953000D01*
X134736250Y-97953000D01*
X134895000Y-97794250D01*
X134898072Y-97730000D01*
X134885812Y-97605518D01*
X134849502Y-97485820D01*
X134790537Y-97375506D01*
X134711185Y-97278815D01*
X134614494Y-97199463D01*
X134504180Y-97140498D01*
X134384482Y-97104188D01*
X134260000Y-97091928D01*
X133898072Y-97094323D01*
X133898072Y-96180000D01*
X133885812Y-96055518D01*
X133849502Y-95935820D01*
X133790537Y-95825506D01*
X133711185Y-95728815D01*
X133614494Y-95649463D01*
X133504180Y-95590498D01*
X133384482Y-95554188D01*
X133260000Y-95541928D01*
X132460000Y-95541928D01*
X132335518Y-95554188D01*
X132215820Y-95590498D01*
X132105506Y-95649463D01*
X132008815Y-95728815D01*
X131929463Y-95825506D01*
X131870498Y-95935820D01*
X131834188Y-96055518D01*
X131821928Y-96180000D01*
X131821928Y-97180000D01*
X131834188Y-97304482D01*
X131870498Y-97424180D01*
X131929463Y-97534494D01*
X132008815Y-97631185D01*
X132105506Y-97710537D01*
X132122928Y-97719849D01*
X132121928Y-97730000D01*
X132125000Y-97794250D01*
X132153482Y-97822732D01*
X132066483Y-97786696D01*
X131856863Y-97745000D01*
X131643137Y-97745000D01*
X131433517Y-97786696D01*
X131236060Y-97868485D01*
X131058353Y-97987225D01*
X130907225Y-98138353D01*
X130835000Y-98246445D01*
X130835000Y-97818072D01*
X131050000Y-97818072D01*
X131174482Y-97805812D01*
X131294180Y-97769502D01*
X131404494Y-97710537D01*
X131501185Y-97631185D01*
X131580537Y-97534494D01*
X131639502Y-97424180D01*
X131675812Y-97304482D01*
X131688072Y-97180000D01*
X131688072Y-96180000D01*
X131675812Y-96055518D01*
X131639502Y-95935820D01*
X131580537Y-95825506D01*
X131501185Y-95728815D01*
X131404494Y-95649463D01*
X131294180Y-95590498D01*
X131174482Y-95554188D01*
X131050000Y-95541928D01*
X130835000Y-95541928D01*
X130835000Y-84163072D01*
X131050000Y-84163072D01*
X131174482Y-84150812D01*
X131294180Y-84114502D01*
X131404494Y-84055537D01*
X131501185Y-83976185D01*
X131580537Y-83879494D01*
X131639502Y-83769180D01*
X131675812Y-83649482D01*
X131688072Y-83525000D01*
X131688072Y-82525000D01*
X131675812Y-82400518D01*
X131639502Y-82280820D01*
X131580537Y-82170506D01*
X131501185Y-82073815D01*
X131404494Y-81994463D01*
X131294180Y-81935498D01*
X131174482Y-81899188D01*
X131050000Y-81886928D01*
X130835000Y-81886928D01*
X130835000Y-81458555D01*
X130907225Y-81566647D01*
X131058353Y-81717775D01*
X131236060Y-81836515D01*
X131433517Y-81918304D01*
X131643137Y-81960000D01*
X131856863Y-81960000D01*
X132066483Y-81918304D01*
X132121928Y-81895338D01*
X132121928Y-81975000D01*
X132122928Y-81985151D01*
X132105506Y-81994463D01*
X132008815Y-82073815D01*
X131929463Y-82170506D01*
X131870498Y-82280820D01*
X131834188Y-82400518D01*
X131821928Y-82525000D01*
X131821928Y-83525000D01*
X131834188Y-83649482D01*
X131870498Y-83769180D01*
X131929463Y-83879494D01*
X132008815Y-83976185D01*
X132105506Y-84055537D01*
X132215820Y-84114502D01*
X132335518Y-84150812D01*
X132460000Y-84163072D01*
X133260000Y-84163072D01*
X133384482Y-84150812D01*
X133504180Y-84114502D01*
X133614494Y-84055537D01*
X133711185Y-83976185D01*
X133790537Y-83879494D01*
X133849502Y-83769180D01*
X133885812Y-83649482D01*
X133898072Y-83525000D01*
X133898072Y-82613072D01*
X134260000Y-82613072D01*
X134384482Y-82600812D01*
X134504180Y-82564502D01*
X134614494Y-82505537D01*
X134711185Y-82426185D01*
X134790537Y-82329494D01*
X134849502Y-82219180D01*
X134885812Y-82099482D01*
X134898072Y-81975000D01*
X134898072Y-81275000D01*
X134885812Y-81150518D01*
X134849502Y-81030820D01*
X134790537Y-80920506D01*
X134753191Y-80875000D01*
X134790537Y-80829494D01*
X134849502Y-80719180D01*
X134885812Y-80599482D01*
X134898072Y-80475000D01*
X134898072Y-79775000D01*
X134885812Y-79650518D01*
X134849502Y-79530820D01*
X134790537Y-79420506D01*
X134711185Y-79323815D01*
X134614494Y-79244463D01*
X134509972Y-79188594D01*
X135936497Y-77762069D01*
X135996410Y-77906711D01*
X136158925Y-78149932D01*
X136365768Y-78356775D01*
X136540160Y-78473300D01*
X136365768Y-78589825D01*
X136158925Y-78796668D01*
X135996410Y-79039889D01*
X135884468Y-79310142D01*
X135827400Y-79597040D01*
X135827400Y-79889560D01*
X135884468Y-80176458D01*
X135996410Y-80446711D01*
X136158925Y-80689932D01*
X136365768Y-80896775D01*
X136540160Y-81013300D01*
X136365768Y-81129825D01*
X136158925Y-81336668D01*
X135996410Y-81579889D01*
X135884468Y-81850142D01*
X135827400Y-82137040D01*
X135827400Y-82429560D01*
X135884468Y-82716458D01*
X135996410Y-82986711D01*
X136158925Y-83229932D01*
X136365768Y-83436775D01*
X136540160Y-83553300D01*
X136365768Y-83669825D01*
X136158925Y-83876668D01*
X135996410Y-84119889D01*
X135884468Y-84390142D01*
X135827400Y-84677040D01*
X135827400Y-84969560D01*
X135884468Y-85256458D01*
X135996410Y-85526711D01*
X136158925Y-85769932D01*
X136365768Y-85976775D01*
X136540160Y-86093300D01*
X136365768Y-86209825D01*
X136158925Y-86416668D01*
X135996410Y-86659889D01*
X135884468Y-86930142D01*
X135827400Y-87217040D01*
X135827400Y-87509560D01*
X135884468Y-87796458D01*
X135996410Y-88066711D01*
X136158925Y-88309932D01*
X136365768Y-88516775D01*
X136540160Y-88633300D01*
X136365768Y-88749825D01*
X136158925Y-88956668D01*
X135996410Y-89199889D01*
X135884468Y-89470142D01*
X135827400Y-89757040D01*
X135827400Y-90049560D01*
X135884468Y-90336458D01*
X135996410Y-90606711D01*
X136158925Y-90849932D01*
X136365768Y-91056775D01*
X136540160Y-91173300D01*
X136365768Y-91289825D01*
X136158925Y-91496668D01*
X135996410Y-91739889D01*
X135884468Y-92010142D01*
X135827400Y-92297040D01*
X135827400Y-92589560D01*
X135884468Y-92876458D01*
X135996410Y-93146711D01*
X136158925Y-93389932D01*
X136365768Y-93596775D01*
X136540160Y-93713300D01*
X136365768Y-93829825D01*
X136158925Y-94036668D01*
X135996410Y-94279889D01*
X135884468Y-94550142D01*
X135827400Y-94837040D01*
X135827400Y-95129560D01*
X135884468Y-95416458D01*
X135996410Y-95686711D01*
X136158925Y-95929932D01*
X136365768Y-96136775D01*
X136540160Y-96253300D01*
X136365768Y-96369825D01*
X136158925Y-96576668D01*
X135996410Y-96819889D01*
X135884468Y-97090142D01*
X135827400Y-97377040D01*
X135827400Y-97669560D01*
X135884468Y-97956458D01*
X135996410Y-98226711D01*
X136158925Y-98469932D01*
X136365768Y-98676775D01*
X136540160Y-98793300D01*
X136365768Y-98909825D01*
X136158925Y-99116668D01*
X135996410Y-99359889D01*
X135884468Y-99630142D01*
X135827400Y-99917040D01*
X135827400Y-100209560D01*
X135884468Y-100496458D01*
X135996410Y-100766711D01*
X136158925Y-101009932D01*
X136365768Y-101216775D01*
X136540160Y-101333300D01*
X136365768Y-101449825D01*
X136158925Y-101656668D01*
X135996410Y-101899889D01*
X135884468Y-102170142D01*
X135827400Y-102457040D01*
X135827400Y-102749560D01*
X135884468Y-103036458D01*
X135996410Y-103306711D01*
X136158925Y-103549932D01*
X136365768Y-103756775D01*
X136540160Y-103873300D01*
X136365768Y-103989825D01*
X136158925Y-104196668D01*
X135996410Y-104439889D01*
X135884468Y-104710142D01*
X135827400Y-104997040D01*
X135827400Y-105289560D01*
X135884468Y-105576458D01*
X135996410Y-105846711D01*
X136158925Y-106089932D01*
X136365768Y-106296775D01*
X136608989Y-106459290D01*
X136879242Y-106571232D01*
X137166140Y-106628300D01*
X137458660Y-106628300D01*
X137745558Y-106571232D01*
X138015811Y-106459290D01*
X138259032Y-106296775D01*
X138465875Y-106089932D01*
X138540465Y-105978300D01*
X138711562Y-105978300D01*
X138752580Y-105982340D01*
X138793598Y-105978300D01*
X138793599Y-105978300D01*
X138916269Y-105966218D01*
X139073667Y-105918472D01*
X139218726Y-105840936D01*
X139345871Y-105736591D01*
X139372026Y-105704721D01*
X139738181Y-105338566D01*
X139770051Y-105312411D01*
X139874396Y-105185266D01*
X139951932Y-105040207D01*
X139999678Y-104882809D01*
X140011760Y-104760139D01*
X140015800Y-104719121D01*
X140011760Y-104678102D01*
X140011760Y-79424480D01*
X140178699Y-79424480D01*
X140378658Y-79384706D01*
X140567016Y-79306685D01*
X140736534Y-79193417D01*
X140880697Y-79049254D01*
X140993965Y-78879736D01*
X141071986Y-78691378D01*
X141111760Y-78491419D01*
X141111760Y-78287541D01*
X141071986Y-78087582D01*
X140993965Y-77899224D01*
X140880697Y-77729706D01*
X140836760Y-77685769D01*
X140836760Y-75909767D01*
X140840436Y-75872444D01*
X140836760Y-75835121D01*
X140836760Y-75835112D01*
X140825763Y-75723459D01*
X140782306Y-75580198D01*
X140711734Y-75448169D01*
X140641229Y-75362258D01*
X140695226Y-75231898D01*
X140735000Y-75031939D01*
X140735000Y-74828061D01*
X140695226Y-74628102D01*
X140617205Y-74439744D01*
X140503937Y-74270226D01*
X140359774Y-74126063D01*
X140190256Y-74012795D01*
X140001898Y-73934774D01*
X139801939Y-73895000D01*
X139598061Y-73895000D01*
X139398102Y-73934774D01*
X139209744Y-74012795D01*
X139040226Y-74126063D01*
X138896063Y-74270226D01*
X138782795Y-74439744D01*
X138704774Y-74628102D01*
X138665000Y-74828061D01*
X138665000Y-75031939D01*
X138704774Y-75231898D01*
X138782795Y-75420256D01*
X138896063Y-75589774D01*
X138951013Y-75644724D01*
X138958990Y-75671021D01*
X138579847Y-75291878D01*
X138553692Y-75260008D01*
X138426547Y-75155663D01*
X138281488Y-75078127D01*
X138124090Y-75030381D01*
X138001420Y-75018299D01*
X138001419Y-75018299D01*
X137960401Y-75014259D01*
X137919383Y-75018299D01*
X136705417Y-75018299D01*
X136664399Y-75014259D01*
X136500710Y-75030381D01*
X136343312Y-75078127D01*
X136198253Y-75155663D01*
X136140038Y-75203439D01*
X136090000Y-75244504D01*
X136090000Y-66740667D01*
X136111614Y-66758405D01*
X136265150Y-66840472D01*
X136431746Y-66891008D01*
X136605000Y-66908072D01*
X139605000Y-66908072D01*
X139778254Y-66891008D01*
X139944850Y-66840472D01*
X140098386Y-66758405D01*
X140232962Y-66647962D01*
X140268220Y-66605000D01*
X140354133Y-66605000D01*
X140644546Y-66895413D01*
X140657853Y-66962314D01*
X140732104Y-67141572D01*
X140839901Y-67302901D01*
X140977099Y-67440099D01*
X141138428Y-67547896D01*
X141317686Y-67622147D01*
X141507986Y-67660000D01*
X141702014Y-67660000D01*
X141892314Y-67622147D01*
X142071572Y-67547896D01*
X142232901Y-67440099D01*
X142370099Y-67302901D01*
X142477896Y-67141572D01*
X142552147Y-66962314D01*
X142590000Y-66772014D01*
X142590000Y-66577986D01*
X142552147Y-66387686D01*
X142477896Y-66208428D01*
X142370099Y-66047099D01*
X142232901Y-65909901D01*
X142071572Y-65802104D01*
X141892314Y-65727853D01*
X141825413Y-65714546D01*
X141319446Y-65208579D01*
X141293291Y-65176709D01*
X141166146Y-65072364D01*
X141021087Y-64994828D01*
X140863689Y-64947082D01*
X140741019Y-64935000D01*
X140741018Y-64935000D01*
X140700000Y-64930960D01*
X140658982Y-64935000D01*
X140268220Y-64935000D01*
X140232962Y-64892038D01*
X140098386Y-64781595D01*
X140076693Y-64770000D01*
X140098386Y-64758405D01*
X140232962Y-64647962D01*
X140343405Y-64513386D01*
X140425472Y-64359850D01*
X140476008Y-64193254D01*
X140493072Y-64020000D01*
X140493072Y-63520000D01*
X140476008Y-63346746D01*
X140425472Y-63180150D01*
X140343405Y-63026614D01*
X140232962Y-62892038D01*
X140098386Y-62781595D01*
X139944850Y-62699528D01*
X139778254Y-62648992D01*
X139605000Y-62631928D01*
X136605000Y-62631928D01*
X136431746Y-62648992D01*
X136265150Y-62699528D01*
X136111614Y-62781595D01*
X135977038Y-62892038D01*
X135941780Y-62935000D01*
X135661018Y-62935000D01*
X135620000Y-62930960D01*
X135578981Y-62935000D01*
X135456311Y-62947082D01*
X135298913Y-62994828D01*
X135153854Y-63072364D01*
X135026709Y-63176709D01*
X135000558Y-63208574D01*
X134693578Y-63515555D01*
X134661709Y-63541709D01*
X134593355Y-63625000D01*
X134557364Y-63668855D01*
X134479828Y-63813914D01*
X134432082Y-63971312D01*
X134415960Y-64135000D01*
X134420000Y-64176019D01*
X134420000Y-66981401D01*
X134298386Y-66881595D01*
X134144850Y-66799528D01*
X133978254Y-66748992D01*
X133805000Y-66731928D01*
X130905000Y-66731928D01*
X130835000Y-66738822D01*
X130835000Y-62801178D01*
X130905000Y-62808072D01*
X133805000Y-62808072D01*
X133978254Y-62791008D01*
X134144850Y-62740472D01*
X134298386Y-62658405D01*
X134432962Y-62547962D01*
X134543405Y-62413386D01*
X134625472Y-62259850D01*
X134676008Y-62093254D01*
X134693072Y-61920000D01*
X134693072Y-60920000D01*
X134676008Y-60746746D01*
X134625472Y-60580150D01*
X134543405Y-60426614D01*
X134432962Y-60292038D01*
X134298386Y-60181595D01*
X134144850Y-60099528D01*
X133978254Y-60048992D01*
X133805000Y-60031928D01*
X130905000Y-60031928D01*
X130835000Y-60038822D01*
X130835000Y-54007279D01*
X130873909Y-53610455D01*
X130979780Y-53259792D01*
X131151744Y-52936375D01*
X131383254Y-52652516D01*
X131665486Y-52419035D01*
X131987695Y-52244817D01*
X132337614Y-52136498D01*
X132732443Y-52095000D01*
X133658456Y-52095000D01*
X133032046Y-52354467D01*
X133032046Y-52354467D01*
G37*
X133032046Y-52354467D02*
X132403930Y-52774161D01*
X131869761Y-53308330D01*
X131450067Y-53936446D01*
X131160977Y-54634372D01*
X131013600Y-55375285D01*
X131013600Y-56130715D01*
X131160977Y-56871628D01*
X131450067Y-57569554D01*
X131869761Y-58197670D01*
X132403930Y-58731839D01*
X133032046Y-59151533D01*
X133729972Y-59440623D01*
X134470885Y-59588000D01*
X135226315Y-59588000D01*
X135967228Y-59440623D01*
X136665154Y-59151533D01*
X137293270Y-58731839D01*
X137827439Y-58197670D01*
X138247133Y-57569554D01*
X138536223Y-56871628D01*
X138683600Y-56130715D01*
X138683600Y-56075448D01*
X138704774Y-56181898D01*
X138782795Y-56370256D01*
X138896063Y-56539774D01*
X138938416Y-56582127D01*
X138910820Y-56590498D01*
X138800506Y-56649463D01*
X138703815Y-56728815D01*
X138624463Y-56825506D01*
X138565498Y-56935820D01*
X138529188Y-57055518D01*
X138516928Y-57180000D01*
X138516928Y-59780000D01*
X138529188Y-59904482D01*
X138565498Y-60024180D01*
X138624463Y-60134494D01*
X138703815Y-60231185D01*
X138800506Y-60310537D01*
X138910820Y-60369502D01*
X139030518Y-60405812D01*
X139150434Y-60417622D01*
X139170026Y-60454276D01*
X139241201Y-60541002D01*
X139265000Y-60570001D01*
X139293998Y-60593799D01*
X142076205Y-63376008D01*
X142099999Y-63405001D01*
X142128992Y-63428795D01*
X142128996Y-63428799D01*
X142153507Y-63448914D01*
X142215724Y-63499974D01*
X142347753Y-63570546D01*
X142491014Y-63614003D01*
X142602667Y-63625000D01*
X142602676Y-63625000D01*
X142639999Y-63628676D01*
X142677322Y-63625000D01*
X152085199Y-63625000D01*
X153004999Y-64544801D01*
X153004999Y-65568556D01*
X152971034Y-65550401D01*
X152691111Y-65465487D01*
X152472950Y-65444000D01*
X152327050Y-65444000D01*
X152108889Y-65465487D01*
X151828966Y-65550401D01*
X151570986Y-65688294D01*
X151344866Y-65873866D01*
X151159294Y-66099986D01*
X151130000Y-66154791D01*
X151100706Y-66099986D01*
X150915134Y-65873866D01*
X150689014Y-65688294D01*
X150431034Y-65550401D01*
X150151111Y-65465487D01*
X149932950Y-65444000D01*
X149787050Y-65444000D01*
X149568889Y-65465487D01*
X149288966Y-65550401D01*
X149030986Y-65688294D01*
X148804866Y-65873866D01*
X148619294Y-66099986D01*
X148589415Y-66155885D01*
X148473475Y-65982368D01*
X148266632Y-65775525D01*
X148023411Y-65613010D01*
X147753158Y-65501068D01*
X147466260Y-65444000D01*
X147173740Y-65444000D01*
X146886842Y-65501068D01*
X146616589Y-65613010D01*
X146373368Y-65775525D01*
X146166525Y-65982368D01*
X146004010Y-66225589D01*
X145892068Y-66495842D01*
X145835000Y-66782740D01*
X145835000Y-67075260D01*
X145878790Y-67295408D01*
X144014804Y-69159395D01*
X143953202Y-69140708D01*
X143828720Y-69128448D01*
X143028720Y-69128448D01*
X142904238Y-69140708D01*
X142784540Y-69177018D01*
X142674226Y-69235983D01*
X142577535Y-69315335D01*
X142498183Y-69412026D01*
X142439218Y-69522340D01*
X142402908Y-69642038D01*
X142390648Y-69766520D01*
X142390648Y-70666520D01*
X142402908Y-70791002D01*
X142439218Y-70910700D01*
X142498183Y-71021014D01*
X142577535Y-71117705D01*
X142590625Y-71128448D01*
X142078720Y-71128448D01*
X141954238Y-71140708D01*
X141834540Y-71177018D01*
X141724226Y-71235983D01*
X141627535Y-71315335D01*
X141548183Y-71412026D01*
X141489218Y-71522340D01*
X141452908Y-71642038D01*
X141440648Y-71766520D01*
X141440648Y-72666520D01*
X141452908Y-72791002D01*
X141489218Y-72910700D01*
X141548183Y-73021014D01*
X141627535Y-73117705D01*
X141718720Y-73192538D01*
X141718721Y-91132568D01*
X141674783Y-91176506D01*
X141561515Y-91346024D01*
X141483494Y-91534382D01*
X141443720Y-91734341D01*
X141443720Y-91938219D01*
X141483494Y-92138178D01*
X141561515Y-92326536D01*
X141674783Y-92496054D01*
X141818946Y-92640217D01*
X141988464Y-92753485D01*
X142176822Y-92831506D01*
X142376781Y-92871280D01*
X142580659Y-92871280D01*
X142780618Y-92831506D01*
X142968976Y-92753485D01*
X143138494Y-92640217D01*
X143282657Y-92496054D01*
X143395925Y-92326536D01*
X143473946Y-92138178D01*
X143513720Y-91938219D01*
X143513720Y-91734341D01*
X143473946Y-91534382D01*
X143395925Y-91346024D01*
X143282657Y-91176506D01*
X143238720Y-91132569D01*
X143238720Y-73192538D01*
X143329905Y-73117705D01*
X143409257Y-73021014D01*
X143428720Y-72984602D01*
X143448183Y-73021014D01*
X143527535Y-73117705D01*
X143624226Y-73197057D01*
X143734540Y-73256022D01*
X143854238Y-73292332D01*
X143978720Y-73304592D01*
X144092970Y-73301520D01*
X144251720Y-73142770D01*
X144251720Y-72343520D01*
X144505720Y-72343520D01*
X144505720Y-73142770D01*
X144664470Y-73301520D01*
X144778720Y-73304592D01*
X144903202Y-73292332D01*
X145022900Y-73256022D01*
X145133214Y-73197057D01*
X145229905Y-73117705D01*
X145309257Y-73021014D01*
X145368222Y-72910700D01*
X145404532Y-72791002D01*
X145416792Y-72666520D01*
X145413720Y-72502270D01*
X145254970Y-72343520D01*
X144505720Y-72343520D01*
X144251720Y-72343520D01*
X144231720Y-72343520D01*
X144231720Y-72089520D01*
X144251720Y-72089520D01*
X144251720Y-71290270D01*
X144505720Y-71290270D01*
X144505720Y-72089520D01*
X145254970Y-72089520D01*
X145413720Y-71930770D01*
X145416792Y-71766520D01*
X145404532Y-71642038D01*
X145368222Y-71522340D01*
X145309257Y-71412026D01*
X145229905Y-71315335D01*
X145133214Y-71235983D01*
X145022900Y-71177018D01*
X144903202Y-71140708D01*
X144778720Y-71128448D01*
X144664470Y-71131520D01*
X144505720Y-71290270D01*
X144251720Y-71290270D01*
X144167113Y-71205663D01*
X144183214Y-71197057D01*
X144279905Y-71117705D01*
X144359257Y-71021014D01*
X144418222Y-70910700D01*
X144432200Y-70864619D01*
X144456756Y-70851494D01*
X144572481Y-70756521D01*
X144596284Y-70727517D01*
X146953592Y-68370210D01*
X147173740Y-68414000D01*
X147466260Y-68414000D01*
X147753158Y-68356932D01*
X148023411Y-68244990D01*
X148266632Y-68082475D01*
X148473475Y-67875632D01*
X148589415Y-67702115D01*
X148619294Y-67758014D01*
X148804866Y-67984134D01*
X149030986Y-68169706D01*
X149288966Y-68307599D01*
X149568889Y-68392513D01*
X149787050Y-68414000D01*
X149932950Y-68414000D01*
X150151111Y-68392513D01*
X150431034Y-68307599D01*
X150689014Y-68169706D01*
X150915134Y-67984134D01*
X151100706Y-67758014D01*
X151130000Y-67703209D01*
X151159294Y-67758014D01*
X151344866Y-67984134D01*
X151570986Y-68169706D01*
X151828966Y-68307599D01*
X152108889Y-68392513D01*
X152327050Y-68414000D01*
X152472950Y-68414000D01*
X152691111Y-68392513D01*
X152971034Y-68307599D01*
X153004999Y-68289444D01*
X153005000Y-98698566D01*
X153001323Y-98735899D01*
X153015997Y-98884884D01*
X153059453Y-99028145D01*
X153130025Y-99160175D01*
X153196623Y-99241324D01*
X153224999Y-99275900D01*
X153253997Y-99299698D01*
X156191190Y-102236892D01*
X156147400Y-102457040D01*
X156147400Y-102749560D01*
X156204468Y-103036458D01*
X156316410Y-103306711D01*
X156478925Y-103549932D01*
X156685768Y-103756775D01*
X156860160Y-103873300D01*
X156685768Y-103989825D01*
X156478925Y-104196668D01*
X156316410Y-104439889D01*
X156204468Y-104710142D01*
X156147400Y-104997040D01*
X156147400Y-105289560D01*
X156204468Y-105576458D01*
X156316410Y-105846711D01*
X156478925Y-106089932D01*
X156685768Y-106296775D01*
X156860160Y-106413300D01*
X156685768Y-106529825D01*
X156478925Y-106736668D01*
X156316410Y-106979889D01*
X156204468Y-107250142D01*
X156147400Y-107537040D01*
X156147400Y-107829560D01*
X156204468Y-108116458D01*
X156316410Y-108386711D01*
X156478925Y-108629932D01*
X156685768Y-108836775D01*
X156860160Y-108953300D01*
X156685768Y-109069825D01*
X156478925Y-109276668D01*
X156316410Y-109519889D01*
X156204468Y-109790142D01*
X156147400Y-110077040D01*
X156147400Y-110369560D01*
X156204468Y-110656458D01*
X156316410Y-110926711D01*
X156478925Y-111169932D01*
X156685768Y-111376775D01*
X156859129Y-111492611D01*
X156783608Y-111734903D01*
X157632400Y-112583695D01*
X158481192Y-111734903D01*
X158405671Y-111492611D01*
X158579032Y-111376775D01*
X158785875Y-111169932D01*
X158948390Y-110926711D01*
X159060332Y-110656458D01*
X159117400Y-110369560D01*
X159117400Y-110077040D01*
X159060332Y-109790142D01*
X158948390Y-109519889D01*
X158785875Y-109276668D01*
X158579032Y-109069825D01*
X158404640Y-108953300D01*
X158579032Y-108836775D01*
X158785875Y-108629932D01*
X158948390Y-108386711D01*
X159060332Y-108116458D01*
X159117400Y-107829560D01*
X159117400Y-107537040D01*
X159060332Y-107250142D01*
X158948390Y-106979889D01*
X158785875Y-106736668D01*
X158579032Y-106529825D01*
X158404640Y-106413300D01*
X158579032Y-106296775D01*
X158785875Y-106089932D01*
X158948390Y-105846711D01*
X159060332Y-105576458D01*
X159117400Y-105289560D01*
X159117400Y-104997040D01*
X159060332Y-104710142D01*
X158948390Y-104439889D01*
X158785875Y-104196668D01*
X158579032Y-103989825D01*
X158404640Y-103873300D01*
X158579032Y-103756775D01*
X158785875Y-103549932D01*
X158948390Y-103306711D01*
X159060332Y-103036458D01*
X159117400Y-102749560D01*
X159117400Y-102457040D01*
X159060332Y-102170142D01*
X158948390Y-101899889D01*
X158785875Y-101656668D01*
X158579032Y-101449825D01*
X158404640Y-101333300D01*
X158579032Y-101216775D01*
X158785875Y-101009932D01*
X158948390Y-100766711D01*
X159060332Y-100496458D01*
X159117400Y-100209560D01*
X159117400Y-99917040D01*
X159060332Y-99630142D01*
X158948390Y-99359889D01*
X158785875Y-99116668D01*
X158579032Y-98909825D01*
X158404640Y-98793300D01*
X158579032Y-98676775D01*
X158785875Y-98469932D01*
X158948390Y-98226711D01*
X159060332Y-97956458D01*
X159117400Y-97669560D01*
X159117400Y-97377040D01*
X159073610Y-97156892D01*
X159360000Y-96870501D01*
X159360000Y-119347721D01*
X159321091Y-119744545D01*
X159215220Y-120095206D01*
X159043257Y-120418623D01*
X158811748Y-120702482D01*
X158529514Y-120935965D01*
X158207304Y-121110184D01*
X157857385Y-121218502D01*
X157462557Y-121260000D01*
X132747279Y-121260000D01*
X132350455Y-121221091D01*
X131999794Y-121115220D01*
X131676377Y-120943257D01*
X131392518Y-120711748D01*
X131159035Y-120429514D01*
X130984816Y-120107304D01*
X130876498Y-119757385D01*
X130835000Y-119362557D01*
X130835000Y-115157040D01*
X156147400Y-115157040D01*
X156147400Y-115449560D01*
X156204468Y-115736458D01*
X156316410Y-116006711D01*
X156478925Y-116249932D01*
X156685768Y-116456775D01*
X156928989Y-116619290D01*
X157199242Y-116731232D01*
X157486140Y-116788300D01*
X157778660Y-116788300D01*
X158065558Y-116731232D01*
X158335811Y-116619290D01*
X158579032Y-116456775D01*
X158785875Y-116249932D01*
X158948390Y-116006711D01*
X159060332Y-115736458D01*
X159117400Y-115449560D01*
X159117400Y-115157040D01*
X159060332Y-114870142D01*
X158948390Y-114599889D01*
X158785875Y-114356668D01*
X158579032Y-114149825D01*
X158405671Y-114033989D01*
X158481192Y-113791697D01*
X157632400Y-112942905D01*
X156783608Y-113791697D01*
X156859129Y-114033989D01*
X156685768Y-114149825D01*
X156478925Y-114356668D01*
X156316410Y-114599889D01*
X156204468Y-114870142D01*
X156147400Y-115157040D01*
X130835000Y-115157040D01*
X130835000Y-112831831D01*
X156141789Y-112831831D01*
X156183801Y-113121319D01*
X156281481Y-113397047D01*
X156354928Y-113534457D01*
X156604003Y-113612092D01*
X157452795Y-112763300D01*
X157812005Y-112763300D01*
X158660797Y-113612092D01*
X158909872Y-113534457D01*
X159035771Y-113270417D01*
X159107739Y-112986889D01*
X159123011Y-112694769D01*
X159080999Y-112405281D01*
X158983319Y-112129553D01*
X158909872Y-111992143D01*
X158660797Y-111914508D01*
X157812005Y-112763300D01*
X157452795Y-112763300D01*
X156604003Y-111914508D01*
X156354928Y-111992143D01*
X156229029Y-112256183D01*
X156157061Y-112539711D01*
X156141789Y-112831831D01*
X130835000Y-112831831D01*
X130835000Y-105118072D01*
X131050000Y-105118072D01*
X131174482Y-105105812D01*
X131294180Y-105069502D01*
X131404494Y-105010537D01*
X131501185Y-104931185D01*
X131580537Y-104834494D01*
X131639502Y-104724180D01*
X131675812Y-104604482D01*
X131688072Y-104480000D01*
X131688072Y-103480000D01*
X131675812Y-103355518D01*
X131639502Y-103235820D01*
X131580537Y-103125506D01*
X131501185Y-103028815D01*
X131404494Y-102949463D01*
X131294180Y-102890498D01*
X131174482Y-102854188D01*
X131050000Y-102841928D01*
X130835000Y-102841928D01*
X130835000Y-102413555D01*
X130907225Y-102521647D01*
X131058353Y-102672775D01*
X131236060Y-102791515D01*
X131433517Y-102873304D01*
X131643137Y-102915000D01*
X131856863Y-102915000D01*
X132066483Y-102873304D01*
X132121928Y-102850338D01*
X132121928Y-102930000D01*
X132122928Y-102940151D01*
X132105506Y-102949463D01*
X132008815Y-103028815D01*
X131929463Y-103125506D01*
X131870498Y-103235820D01*
X131834188Y-103355518D01*
X131821928Y-103480000D01*
X131821928Y-104480000D01*
X131834188Y-104604482D01*
X131870498Y-104724180D01*
X131929463Y-104834494D01*
X132008815Y-104931185D01*
X132105506Y-105010537D01*
X132215820Y-105069502D01*
X132335518Y-105105812D01*
X132460000Y-105118072D01*
X133260000Y-105118072D01*
X133384482Y-105105812D01*
X133504180Y-105069502D01*
X133614494Y-105010537D01*
X133711185Y-104931185D01*
X133790537Y-104834494D01*
X133838918Y-104743981D01*
X133854901Y-104767901D01*
X133992099Y-104905099D01*
X134153428Y-105012896D01*
X134332686Y-105087147D01*
X134522986Y-105125000D01*
X134717014Y-105125000D01*
X134907314Y-105087147D01*
X135086572Y-105012896D01*
X135247901Y-104905099D01*
X135385099Y-104767901D01*
X135492896Y-104606572D01*
X135567147Y-104427314D01*
X135605000Y-104237014D01*
X135605000Y-104042986D01*
X135567147Y-103852686D01*
X135492896Y-103673428D01*
X135455000Y-103616713D01*
X135455000Y-103331018D01*
X135459040Y-103290000D01*
X135442918Y-103126312D01*
X135395172Y-102968913D01*
X135317636Y-102823854D01*
X135239439Y-102728570D01*
X135239437Y-102728568D01*
X135213291Y-102696709D01*
X135181433Y-102670564D01*
X134898072Y-102387204D01*
X134898072Y-102230000D01*
X134885812Y-102105518D01*
X134849502Y-101985820D01*
X134790537Y-101875506D01*
X134753191Y-101830000D01*
X134790537Y-101784494D01*
X134849502Y-101674180D01*
X134885812Y-101554482D01*
X134898072Y-101430000D01*
X134898072Y-100730000D01*
X134885812Y-100605518D01*
X134849502Y-100485820D01*
X134790537Y-100375506D01*
X134780471Y-100363240D01*
X134788937Y-100354774D01*
X134902205Y-100185256D01*
X134980226Y-99996898D01*
X135020000Y-99796939D01*
X135020000Y-99593061D01*
X134980226Y-99393102D01*
X134902205Y-99204744D01*
X134788937Y-99035226D01*
X134669284Y-98915573D01*
X134711185Y-98881185D01*
X134790537Y-98784494D01*
X134849502Y-98674180D01*
X134885812Y-98554482D01*
X134898072Y-98430000D01*
X134895000Y-98365750D01*
X134736250Y-98207000D01*
X133637000Y-98207000D01*
X133637000Y-98227000D01*
X133383000Y-98227000D01*
X133383000Y-98207000D01*
X133363000Y-98207000D01*
X133363000Y-97953000D01*
X133383000Y-97953000D01*
X133383000Y-97933000D01*
X133637000Y-97933000D01*
X133637000Y-97953000D01*
X134736250Y-97953000D01*
X134895000Y-97794250D01*
X134898072Y-97730000D01*
X134885812Y-97605518D01*
X134849502Y-97485820D01*
X134790537Y-97375506D01*
X134711185Y-97278815D01*
X134614494Y-97199463D01*
X134504180Y-97140498D01*
X134384482Y-97104188D01*
X134260000Y-97091928D01*
X133898072Y-97094323D01*
X133898072Y-96180000D01*
X133885812Y-96055518D01*
X133849502Y-95935820D01*
X133790537Y-95825506D01*
X133711185Y-95728815D01*
X133614494Y-95649463D01*
X133504180Y-95590498D01*
X133384482Y-95554188D01*
X133260000Y-95541928D01*
X132460000Y-95541928D01*
X132335518Y-95554188D01*
X132215820Y-95590498D01*
X132105506Y-95649463D01*
X132008815Y-95728815D01*
X131929463Y-95825506D01*
X131870498Y-95935820D01*
X131834188Y-96055518D01*
X131821928Y-96180000D01*
X131821928Y-97180000D01*
X131834188Y-97304482D01*
X131870498Y-97424180D01*
X131929463Y-97534494D01*
X132008815Y-97631185D01*
X132105506Y-97710537D01*
X132122928Y-97719849D01*
X132121928Y-97730000D01*
X132125000Y-97794250D01*
X132153482Y-97822732D01*
X132066483Y-97786696D01*
X131856863Y-97745000D01*
X131643137Y-97745000D01*
X131433517Y-97786696D01*
X131236060Y-97868485D01*
X131058353Y-97987225D01*
X130907225Y-98138353D01*
X130835000Y-98246445D01*
X130835000Y-97818072D01*
X131050000Y-97818072D01*
X131174482Y-97805812D01*
X131294180Y-97769502D01*
X131404494Y-97710537D01*
X131501185Y-97631185D01*
X131580537Y-97534494D01*
X131639502Y-97424180D01*
X131675812Y-97304482D01*
X131688072Y-97180000D01*
X131688072Y-96180000D01*
X131675812Y-96055518D01*
X131639502Y-95935820D01*
X131580537Y-95825506D01*
X131501185Y-95728815D01*
X131404494Y-95649463D01*
X131294180Y-95590498D01*
X131174482Y-95554188D01*
X131050000Y-95541928D01*
X130835000Y-95541928D01*
X130835000Y-84163072D01*
X131050000Y-84163072D01*
X131174482Y-84150812D01*
X131294180Y-84114502D01*
X131404494Y-84055537D01*
X131501185Y-83976185D01*
X131580537Y-83879494D01*
X131639502Y-83769180D01*
X131675812Y-83649482D01*
X131688072Y-83525000D01*
X131688072Y-82525000D01*
X131675812Y-82400518D01*
X131639502Y-82280820D01*
X131580537Y-82170506D01*
X131501185Y-82073815D01*
X131404494Y-81994463D01*
X131294180Y-81935498D01*
X131174482Y-81899188D01*
X131050000Y-81886928D01*
X130835000Y-81886928D01*
X130835000Y-81458555D01*
X130907225Y-81566647D01*
X131058353Y-81717775D01*
X131236060Y-81836515D01*
X131433517Y-81918304D01*
X131643137Y-81960000D01*
X131856863Y-81960000D01*
X132066483Y-81918304D01*
X132121928Y-81895338D01*
X132121928Y-81975000D01*
X132122928Y-81985151D01*
X132105506Y-81994463D01*
X132008815Y-82073815D01*
X131929463Y-82170506D01*
X131870498Y-82280820D01*
X131834188Y-82400518D01*
X131821928Y-82525000D01*
X131821928Y-83525000D01*
X131834188Y-83649482D01*
X131870498Y-83769180D01*
X131929463Y-83879494D01*
X132008815Y-83976185D01*
X132105506Y-84055537D01*
X132215820Y-84114502D01*
X132335518Y-84150812D01*
X132460000Y-84163072D01*
X133260000Y-84163072D01*
X133384482Y-84150812D01*
X133504180Y-84114502D01*
X133614494Y-84055537D01*
X133711185Y-83976185D01*
X133790537Y-83879494D01*
X133849502Y-83769180D01*
X133885812Y-83649482D01*
X133898072Y-83525000D01*
X133898072Y-82613072D01*
X134260000Y-82613072D01*
X134384482Y-82600812D01*
X134504180Y-82564502D01*
X134614494Y-82505537D01*
X134711185Y-82426185D01*
X134790537Y-82329494D01*
X134849502Y-82219180D01*
X134885812Y-82099482D01*
X134898072Y-81975000D01*
X134898072Y-81275000D01*
X134885812Y-81150518D01*
X134849502Y-81030820D01*
X134790537Y-80920506D01*
X134753191Y-80875000D01*
X134790537Y-80829494D01*
X134849502Y-80719180D01*
X134885812Y-80599482D01*
X134898072Y-80475000D01*
X134898072Y-79775000D01*
X134885812Y-79650518D01*
X134849502Y-79530820D01*
X134790537Y-79420506D01*
X134711185Y-79323815D01*
X134614494Y-79244463D01*
X134509972Y-79188594D01*
X135936497Y-77762069D01*
X135996410Y-77906711D01*
X136158925Y-78149932D01*
X136365768Y-78356775D01*
X136540160Y-78473300D01*
X136365768Y-78589825D01*
X136158925Y-78796668D01*
X135996410Y-79039889D01*
X135884468Y-79310142D01*
X135827400Y-79597040D01*
X135827400Y-79889560D01*
X135884468Y-80176458D01*
X135996410Y-80446711D01*
X136158925Y-80689932D01*
X136365768Y-80896775D01*
X136540160Y-81013300D01*
X136365768Y-81129825D01*
X136158925Y-81336668D01*
X135996410Y-81579889D01*
X135884468Y-81850142D01*
X135827400Y-82137040D01*
X135827400Y-82429560D01*
X135884468Y-82716458D01*
X135996410Y-82986711D01*
X136158925Y-83229932D01*
X136365768Y-83436775D01*
X136540160Y-83553300D01*
X136365768Y-83669825D01*
X136158925Y-83876668D01*
X135996410Y-84119889D01*
X135884468Y-84390142D01*
X135827400Y-84677040D01*
X135827400Y-84969560D01*
X135884468Y-85256458D01*
X135996410Y-85526711D01*
X136158925Y-85769932D01*
X136365768Y-85976775D01*
X136540160Y-86093300D01*
X136365768Y-86209825D01*
X136158925Y-86416668D01*
X135996410Y-86659889D01*
X135884468Y-86930142D01*
X135827400Y-87217040D01*
X135827400Y-87509560D01*
X135884468Y-87796458D01*
X135996410Y-88066711D01*
X136158925Y-88309932D01*
X136365768Y-88516775D01*
X136540160Y-88633300D01*
X136365768Y-88749825D01*
X136158925Y-88956668D01*
X135996410Y-89199889D01*
X135884468Y-89470142D01*
X135827400Y-89757040D01*
X135827400Y-90049560D01*
X135884468Y-90336458D01*
X135996410Y-90606711D01*
X136158925Y-90849932D01*
X136365768Y-91056775D01*
X136540160Y-91173300D01*
X136365768Y-91289825D01*
X136158925Y-91496668D01*
X135996410Y-91739889D01*
X135884468Y-92010142D01*
X135827400Y-92297040D01*
X135827400Y-92589560D01*
X135884468Y-92876458D01*
X135996410Y-93146711D01*
X136158925Y-93389932D01*
X136365768Y-93596775D01*
X136540160Y-93713300D01*
X136365768Y-93829825D01*
X136158925Y-94036668D01*
X135996410Y-94279889D01*
X135884468Y-94550142D01*
X135827400Y-94837040D01*
X135827400Y-95129560D01*
X135884468Y-95416458D01*
X135996410Y-95686711D01*
X136158925Y-95929932D01*
X136365768Y-96136775D01*
X136540160Y-96253300D01*
X136365768Y-96369825D01*
X136158925Y-96576668D01*
X135996410Y-96819889D01*
X135884468Y-97090142D01*
X135827400Y-97377040D01*
X135827400Y-97669560D01*
X135884468Y-97956458D01*
X135996410Y-98226711D01*
X136158925Y-98469932D01*
X136365768Y-98676775D01*
X136540160Y-98793300D01*
X136365768Y-98909825D01*
X136158925Y-99116668D01*
X135996410Y-99359889D01*
X135884468Y-99630142D01*
X135827400Y-99917040D01*
X135827400Y-100209560D01*
X135884468Y-100496458D01*
X135996410Y-100766711D01*
X136158925Y-101009932D01*
X136365768Y-101216775D01*
X136540160Y-101333300D01*
X136365768Y-101449825D01*
X136158925Y-101656668D01*
X135996410Y-101899889D01*
X135884468Y-102170142D01*
X135827400Y-102457040D01*
X135827400Y-102749560D01*
X135884468Y-103036458D01*
X135996410Y-103306711D01*
X136158925Y-103549932D01*
X136365768Y-103756775D01*
X136540160Y-103873300D01*
X136365768Y-103989825D01*
X136158925Y-104196668D01*
X135996410Y-104439889D01*
X135884468Y-104710142D01*
X135827400Y-104997040D01*
X135827400Y-105289560D01*
X135884468Y-105576458D01*
X135996410Y-105846711D01*
X136158925Y-106089932D01*
X136365768Y-106296775D01*
X136608989Y-106459290D01*
X136879242Y-106571232D01*
X137166140Y-106628300D01*
X137458660Y-106628300D01*
X137745558Y-106571232D01*
X138015811Y-106459290D01*
X138259032Y-106296775D01*
X138465875Y-106089932D01*
X138540465Y-105978300D01*
X138711562Y-105978300D01*
X138752580Y-105982340D01*
X138793598Y-105978300D01*
X138793599Y-105978300D01*
X138916269Y-105966218D01*
X139073667Y-105918472D01*
X139218726Y-105840936D01*
X139345871Y-105736591D01*
X139372026Y-105704721D01*
X139738181Y-105338566D01*
X139770051Y-105312411D01*
X139874396Y-105185266D01*
X139951932Y-105040207D01*
X139999678Y-104882809D01*
X140011760Y-104760139D01*
X140015800Y-104719121D01*
X140011760Y-104678102D01*
X140011760Y-79424480D01*
X140178699Y-79424480D01*
X140378658Y-79384706D01*
X140567016Y-79306685D01*
X140736534Y-79193417D01*
X140880697Y-79049254D01*
X140993965Y-78879736D01*
X141071986Y-78691378D01*
X141111760Y-78491419D01*
X141111760Y-78287541D01*
X141071986Y-78087582D01*
X140993965Y-77899224D01*
X140880697Y-77729706D01*
X140836760Y-77685769D01*
X140836760Y-75909767D01*
X140840436Y-75872444D01*
X140836760Y-75835121D01*
X140836760Y-75835112D01*
X140825763Y-75723459D01*
X140782306Y-75580198D01*
X140711734Y-75448169D01*
X140641229Y-75362258D01*
X140695226Y-75231898D01*
X140735000Y-75031939D01*
X140735000Y-74828061D01*
X140695226Y-74628102D01*
X140617205Y-74439744D01*
X140503937Y-74270226D01*
X140359774Y-74126063D01*
X140190256Y-74012795D01*
X140001898Y-73934774D01*
X139801939Y-73895000D01*
X139598061Y-73895000D01*
X139398102Y-73934774D01*
X139209744Y-74012795D01*
X139040226Y-74126063D01*
X138896063Y-74270226D01*
X138782795Y-74439744D01*
X138704774Y-74628102D01*
X138665000Y-74828061D01*
X138665000Y-75031939D01*
X138704774Y-75231898D01*
X138782795Y-75420256D01*
X138896063Y-75589774D01*
X138951013Y-75644724D01*
X138958990Y-75671021D01*
X138579847Y-75291878D01*
X138553692Y-75260008D01*
X138426547Y-75155663D01*
X138281488Y-75078127D01*
X138124090Y-75030381D01*
X138001420Y-75018299D01*
X138001419Y-75018299D01*
X137960401Y-75014259D01*
X137919383Y-75018299D01*
X136705417Y-75018299D01*
X136664399Y-75014259D01*
X136500710Y-75030381D01*
X136343312Y-75078127D01*
X136198253Y-75155663D01*
X136140038Y-75203439D01*
X136090000Y-75244504D01*
X136090000Y-66740667D01*
X136111614Y-66758405D01*
X136265150Y-66840472D01*
X136431746Y-66891008D01*
X136605000Y-66908072D01*
X139605000Y-66908072D01*
X139778254Y-66891008D01*
X139944850Y-66840472D01*
X140098386Y-66758405D01*
X140232962Y-66647962D01*
X140268220Y-66605000D01*
X140354133Y-66605000D01*
X140644546Y-66895413D01*
X140657853Y-66962314D01*
X140732104Y-67141572D01*
X140839901Y-67302901D01*
X140977099Y-67440099D01*
X141138428Y-67547896D01*
X141317686Y-67622147D01*
X141507986Y-67660000D01*
X141702014Y-67660000D01*
X141892314Y-67622147D01*
X142071572Y-67547896D01*
X142232901Y-67440099D01*
X142370099Y-67302901D01*
X142477896Y-67141572D01*
X142552147Y-66962314D01*
X142590000Y-66772014D01*
X142590000Y-66577986D01*
X142552147Y-66387686D01*
X142477896Y-66208428D01*
X142370099Y-66047099D01*
X142232901Y-65909901D01*
X142071572Y-65802104D01*
X141892314Y-65727853D01*
X141825413Y-65714546D01*
X141319446Y-65208579D01*
X141293291Y-65176709D01*
X141166146Y-65072364D01*
X141021087Y-64994828D01*
X140863689Y-64947082D01*
X140741019Y-64935000D01*
X140741018Y-64935000D01*
X140700000Y-64930960D01*
X140658982Y-64935000D01*
X140268220Y-64935000D01*
X140232962Y-64892038D01*
X140098386Y-64781595D01*
X140076693Y-64770000D01*
X140098386Y-64758405D01*
X140232962Y-64647962D01*
X140343405Y-64513386D01*
X140425472Y-64359850D01*
X140476008Y-64193254D01*
X140493072Y-64020000D01*
X140493072Y-63520000D01*
X140476008Y-63346746D01*
X140425472Y-63180150D01*
X140343405Y-63026614D01*
X140232962Y-62892038D01*
X140098386Y-62781595D01*
X139944850Y-62699528D01*
X139778254Y-62648992D01*
X139605000Y-62631928D01*
X136605000Y-62631928D01*
X136431746Y-62648992D01*
X136265150Y-62699528D01*
X136111614Y-62781595D01*
X135977038Y-62892038D01*
X135941780Y-62935000D01*
X135661018Y-62935000D01*
X135620000Y-62930960D01*
X135578981Y-62935000D01*
X135456311Y-62947082D01*
X135298913Y-62994828D01*
X135153854Y-63072364D01*
X135026709Y-63176709D01*
X135000558Y-63208574D01*
X134693578Y-63515555D01*
X134661709Y-63541709D01*
X134593355Y-63625000D01*
X134557364Y-63668855D01*
X134479828Y-63813914D01*
X134432082Y-63971312D01*
X134415960Y-64135000D01*
X134420000Y-64176019D01*
X134420000Y-66981401D01*
X134298386Y-66881595D01*
X134144850Y-66799528D01*
X133978254Y-66748992D01*
X133805000Y-66731928D01*
X130905000Y-66731928D01*
X130835000Y-66738822D01*
X130835000Y-62801178D01*
X130905000Y-62808072D01*
X133805000Y-62808072D01*
X133978254Y-62791008D01*
X134144850Y-62740472D01*
X134298386Y-62658405D01*
X134432962Y-62547962D01*
X134543405Y-62413386D01*
X134625472Y-62259850D01*
X134676008Y-62093254D01*
X134693072Y-61920000D01*
X134693072Y-60920000D01*
X134676008Y-60746746D01*
X134625472Y-60580150D01*
X134543405Y-60426614D01*
X134432962Y-60292038D01*
X134298386Y-60181595D01*
X134144850Y-60099528D01*
X133978254Y-60048992D01*
X133805000Y-60031928D01*
X130905000Y-60031928D01*
X130835000Y-60038822D01*
X130835000Y-54007279D01*
X130873909Y-53610455D01*
X130979780Y-53259792D01*
X131151744Y-52936375D01*
X131383254Y-52652516D01*
X131665486Y-52419035D01*
X131987695Y-52244817D01*
X132337614Y-52136498D01*
X132732443Y-52095000D01*
X133658456Y-52095000D01*
X133032046Y-52354467D01*
M02*
