G04 #@! TF.GenerationSoftware,KiCad,Pcbnew,(5.1.0-0)*
G04 #@! TF.CreationDate,2019-06-12T16:48:35+08:00*
G04 #@! TF.ProjectId,Palm,50616c6d-2e6b-4696-9361-645f70636258,V1.0*
G04 #@! TF.SameCoordinates,Original*
G04 #@! TF.FileFunction,Paste,Bot*
G04 #@! TF.FilePolarity,Positive*
%FSLAX46Y46*%
G04 Gerber Fmt 4.6, Leading zero omitted, Abs format (unit mm)*
G04 Created by KiCad (PCBNEW (5.1.0-0)) date 2019-06-12 16:48:35*
%MOMM*%
%LPD*%
G04 APERTURE LIST*
%ADD10C,0.100000*%
%ADD11C,1.150000*%
G04 APERTURE END LIST*
D10*
G36*
X139539505Y-62046204D02*
G01*
X139563773Y-62049804D01*
X139587572Y-62055765D01*
X139610671Y-62064030D01*
X139632850Y-62074520D01*
X139653893Y-62087132D01*
X139673599Y-62101747D01*
X139691777Y-62118223D01*
X139708253Y-62136401D01*
X139722868Y-62156107D01*
X139735480Y-62177150D01*
X139745970Y-62199329D01*
X139754235Y-62222428D01*
X139760196Y-62246227D01*
X139763796Y-62270495D01*
X139765000Y-62294999D01*
X139765000Y-62945001D01*
X139763796Y-62969505D01*
X139760196Y-62993773D01*
X139754235Y-63017572D01*
X139745970Y-63040671D01*
X139735480Y-63062850D01*
X139722868Y-63083893D01*
X139708253Y-63103599D01*
X139691777Y-63121777D01*
X139673599Y-63138253D01*
X139653893Y-63152868D01*
X139632850Y-63165480D01*
X139610671Y-63175970D01*
X139587572Y-63184235D01*
X139563773Y-63190196D01*
X139539505Y-63193796D01*
X139515001Y-63195000D01*
X138614999Y-63195000D01*
X138590495Y-63193796D01*
X138566227Y-63190196D01*
X138542428Y-63184235D01*
X138519329Y-63175970D01*
X138497150Y-63165480D01*
X138476107Y-63152868D01*
X138456401Y-63138253D01*
X138438223Y-63121777D01*
X138421747Y-63103599D01*
X138407132Y-63083893D01*
X138394520Y-63062850D01*
X138384030Y-63040671D01*
X138375765Y-63017572D01*
X138369804Y-62993773D01*
X138366204Y-62969505D01*
X138365000Y-62945001D01*
X138365000Y-62294999D01*
X138366204Y-62270495D01*
X138369804Y-62246227D01*
X138375765Y-62222428D01*
X138384030Y-62199329D01*
X138394520Y-62177150D01*
X138407132Y-62156107D01*
X138421747Y-62136401D01*
X138438223Y-62118223D01*
X138456401Y-62101747D01*
X138476107Y-62087132D01*
X138497150Y-62074520D01*
X138519329Y-62064030D01*
X138542428Y-62055765D01*
X138566227Y-62049804D01*
X138590495Y-62046204D01*
X138614999Y-62045000D01*
X139515001Y-62045000D01*
X139539505Y-62046204D01*
X139539505Y-62046204D01*
G37*
D11*
X139065000Y-62620000D03*
D10*
G36*
X139539505Y-59996204D02*
G01*
X139563773Y-59999804D01*
X139587572Y-60005765D01*
X139610671Y-60014030D01*
X139632850Y-60024520D01*
X139653893Y-60037132D01*
X139673599Y-60051747D01*
X139691777Y-60068223D01*
X139708253Y-60086401D01*
X139722868Y-60106107D01*
X139735480Y-60127150D01*
X139745970Y-60149329D01*
X139754235Y-60172428D01*
X139760196Y-60196227D01*
X139763796Y-60220495D01*
X139765000Y-60244999D01*
X139765000Y-60895001D01*
X139763796Y-60919505D01*
X139760196Y-60943773D01*
X139754235Y-60967572D01*
X139745970Y-60990671D01*
X139735480Y-61012850D01*
X139722868Y-61033893D01*
X139708253Y-61053599D01*
X139691777Y-61071777D01*
X139673599Y-61088253D01*
X139653893Y-61102868D01*
X139632850Y-61115480D01*
X139610671Y-61125970D01*
X139587572Y-61134235D01*
X139563773Y-61140196D01*
X139539505Y-61143796D01*
X139515001Y-61145000D01*
X138614999Y-61145000D01*
X138590495Y-61143796D01*
X138566227Y-61140196D01*
X138542428Y-61134235D01*
X138519329Y-61125970D01*
X138497150Y-61115480D01*
X138476107Y-61102868D01*
X138456401Y-61088253D01*
X138438223Y-61071777D01*
X138421747Y-61053599D01*
X138407132Y-61033893D01*
X138394520Y-61012850D01*
X138384030Y-60990671D01*
X138375765Y-60967572D01*
X138369804Y-60943773D01*
X138366204Y-60919505D01*
X138365000Y-60895001D01*
X138365000Y-60244999D01*
X138366204Y-60220495D01*
X138369804Y-60196227D01*
X138375765Y-60172428D01*
X138384030Y-60149329D01*
X138394520Y-60127150D01*
X138407132Y-60106107D01*
X138421747Y-60086401D01*
X138438223Y-60068223D01*
X138456401Y-60051747D01*
X138476107Y-60037132D01*
X138497150Y-60024520D01*
X138519329Y-60014030D01*
X138542428Y-60005765D01*
X138566227Y-59999804D01*
X138590495Y-59996204D01*
X138614999Y-59995000D01*
X139515001Y-59995000D01*
X139539505Y-59996204D01*
X139539505Y-59996204D01*
G37*
D11*
X139065000Y-60570000D03*
D10*
G36*
X142079505Y-62046204D02*
G01*
X142103773Y-62049804D01*
X142127572Y-62055765D01*
X142150671Y-62064030D01*
X142172850Y-62074520D01*
X142193893Y-62087132D01*
X142213599Y-62101747D01*
X142231777Y-62118223D01*
X142248253Y-62136401D01*
X142262868Y-62156107D01*
X142275480Y-62177150D01*
X142285970Y-62199329D01*
X142294235Y-62222428D01*
X142300196Y-62246227D01*
X142303796Y-62270495D01*
X142305000Y-62294999D01*
X142305000Y-62945001D01*
X142303796Y-62969505D01*
X142300196Y-62993773D01*
X142294235Y-63017572D01*
X142285970Y-63040671D01*
X142275480Y-63062850D01*
X142262868Y-63083893D01*
X142248253Y-63103599D01*
X142231777Y-63121777D01*
X142213599Y-63138253D01*
X142193893Y-63152868D01*
X142172850Y-63165480D01*
X142150671Y-63175970D01*
X142127572Y-63184235D01*
X142103773Y-63190196D01*
X142079505Y-63193796D01*
X142055001Y-63195000D01*
X141154999Y-63195000D01*
X141130495Y-63193796D01*
X141106227Y-63190196D01*
X141082428Y-63184235D01*
X141059329Y-63175970D01*
X141037150Y-63165480D01*
X141016107Y-63152868D01*
X140996401Y-63138253D01*
X140978223Y-63121777D01*
X140961747Y-63103599D01*
X140947132Y-63083893D01*
X140934520Y-63062850D01*
X140924030Y-63040671D01*
X140915765Y-63017572D01*
X140909804Y-62993773D01*
X140906204Y-62969505D01*
X140905000Y-62945001D01*
X140905000Y-62294999D01*
X140906204Y-62270495D01*
X140909804Y-62246227D01*
X140915765Y-62222428D01*
X140924030Y-62199329D01*
X140934520Y-62177150D01*
X140947132Y-62156107D01*
X140961747Y-62136401D01*
X140978223Y-62118223D01*
X140996401Y-62101747D01*
X141016107Y-62087132D01*
X141037150Y-62074520D01*
X141059329Y-62064030D01*
X141082428Y-62055765D01*
X141106227Y-62049804D01*
X141130495Y-62046204D01*
X141154999Y-62045000D01*
X142055001Y-62045000D01*
X142079505Y-62046204D01*
X142079505Y-62046204D01*
G37*
D11*
X141605000Y-62620000D03*
D10*
G36*
X142079505Y-59996204D02*
G01*
X142103773Y-59999804D01*
X142127572Y-60005765D01*
X142150671Y-60014030D01*
X142172850Y-60024520D01*
X142193893Y-60037132D01*
X142213599Y-60051747D01*
X142231777Y-60068223D01*
X142248253Y-60086401D01*
X142262868Y-60106107D01*
X142275480Y-60127150D01*
X142285970Y-60149329D01*
X142294235Y-60172428D01*
X142300196Y-60196227D01*
X142303796Y-60220495D01*
X142305000Y-60244999D01*
X142305000Y-60895001D01*
X142303796Y-60919505D01*
X142300196Y-60943773D01*
X142294235Y-60967572D01*
X142285970Y-60990671D01*
X142275480Y-61012850D01*
X142262868Y-61033893D01*
X142248253Y-61053599D01*
X142231777Y-61071777D01*
X142213599Y-61088253D01*
X142193893Y-61102868D01*
X142172850Y-61115480D01*
X142150671Y-61125970D01*
X142127572Y-61134235D01*
X142103773Y-61140196D01*
X142079505Y-61143796D01*
X142055001Y-61145000D01*
X141154999Y-61145000D01*
X141130495Y-61143796D01*
X141106227Y-61140196D01*
X141082428Y-61134235D01*
X141059329Y-61125970D01*
X141037150Y-61115480D01*
X141016107Y-61102868D01*
X140996401Y-61088253D01*
X140978223Y-61071777D01*
X140961747Y-61053599D01*
X140947132Y-61033893D01*
X140934520Y-61012850D01*
X140924030Y-60990671D01*
X140915765Y-60967572D01*
X140909804Y-60943773D01*
X140906204Y-60919505D01*
X140905000Y-60895001D01*
X140905000Y-60244999D01*
X140906204Y-60220495D01*
X140909804Y-60196227D01*
X140915765Y-60172428D01*
X140924030Y-60149329D01*
X140934520Y-60127150D01*
X140947132Y-60106107D01*
X140961747Y-60086401D01*
X140978223Y-60068223D01*
X140996401Y-60051747D01*
X141016107Y-60037132D01*
X141037150Y-60024520D01*
X141059329Y-60014030D01*
X141082428Y-60005765D01*
X141106227Y-59999804D01*
X141130495Y-59996204D01*
X141154999Y-59995000D01*
X142055001Y-59995000D01*
X142079505Y-59996204D01*
X142079505Y-59996204D01*
G37*
D11*
X141605000Y-60570000D03*
D10*
G36*
X144619505Y-62046204D02*
G01*
X144643773Y-62049804D01*
X144667572Y-62055765D01*
X144690671Y-62064030D01*
X144712850Y-62074520D01*
X144733893Y-62087132D01*
X144753599Y-62101747D01*
X144771777Y-62118223D01*
X144788253Y-62136401D01*
X144802868Y-62156107D01*
X144815480Y-62177150D01*
X144825970Y-62199329D01*
X144834235Y-62222428D01*
X144840196Y-62246227D01*
X144843796Y-62270495D01*
X144845000Y-62294999D01*
X144845000Y-62945001D01*
X144843796Y-62969505D01*
X144840196Y-62993773D01*
X144834235Y-63017572D01*
X144825970Y-63040671D01*
X144815480Y-63062850D01*
X144802868Y-63083893D01*
X144788253Y-63103599D01*
X144771777Y-63121777D01*
X144753599Y-63138253D01*
X144733893Y-63152868D01*
X144712850Y-63165480D01*
X144690671Y-63175970D01*
X144667572Y-63184235D01*
X144643773Y-63190196D01*
X144619505Y-63193796D01*
X144595001Y-63195000D01*
X143694999Y-63195000D01*
X143670495Y-63193796D01*
X143646227Y-63190196D01*
X143622428Y-63184235D01*
X143599329Y-63175970D01*
X143577150Y-63165480D01*
X143556107Y-63152868D01*
X143536401Y-63138253D01*
X143518223Y-63121777D01*
X143501747Y-63103599D01*
X143487132Y-63083893D01*
X143474520Y-63062850D01*
X143464030Y-63040671D01*
X143455765Y-63017572D01*
X143449804Y-62993773D01*
X143446204Y-62969505D01*
X143445000Y-62945001D01*
X143445000Y-62294999D01*
X143446204Y-62270495D01*
X143449804Y-62246227D01*
X143455765Y-62222428D01*
X143464030Y-62199329D01*
X143474520Y-62177150D01*
X143487132Y-62156107D01*
X143501747Y-62136401D01*
X143518223Y-62118223D01*
X143536401Y-62101747D01*
X143556107Y-62087132D01*
X143577150Y-62074520D01*
X143599329Y-62064030D01*
X143622428Y-62055765D01*
X143646227Y-62049804D01*
X143670495Y-62046204D01*
X143694999Y-62045000D01*
X144595001Y-62045000D01*
X144619505Y-62046204D01*
X144619505Y-62046204D01*
G37*
D11*
X144145000Y-62620000D03*
D10*
G36*
X144619505Y-59996204D02*
G01*
X144643773Y-59999804D01*
X144667572Y-60005765D01*
X144690671Y-60014030D01*
X144712850Y-60024520D01*
X144733893Y-60037132D01*
X144753599Y-60051747D01*
X144771777Y-60068223D01*
X144788253Y-60086401D01*
X144802868Y-60106107D01*
X144815480Y-60127150D01*
X144825970Y-60149329D01*
X144834235Y-60172428D01*
X144840196Y-60196227D01*
X144843796Y-60220495D01*
X144845000Y-60244999D01*
X144845000Y-60895001D01*
X144843796Y-60919505D01*
X144840196Y-60943773D01*
X144834235Y-60967572D01*
X144825970Y-60990671D01*
X144815480Y-61012850D01*
X144802868Y-61033893D01*
X144788253Y-61053599D01*
X144771777Y-61071777D01*
X144753599Y-61088253D01*
X144733893Y-61102868D01*
X144712850Y-61115480D01*
X144690671Y-61125970D01*
X144667572Y-61134235D01*
X144643773Y-61140196D01*
X144619505Y-61143796D01*
X144595001Y-61145000D01*
X143694999Y-61145000D01*
X143670495Y-61143796D01*
X143646227Y-61140196D01*
X143622428Y-61134235D01*
X143599329Y-61125970D01*
X143577150Y-61115480D01*
X143556107Y-61102868D01*
X143536401Y-61088253D01*
X143518223Y-61071777D01*
X143501747Y-61053599D01*
X143487132Y-61033893D01*
X143474520Y-61012850D01*
X143464030Y-60990671D01*
X143455765Y-60967572D01*
X143449804Y-60943773D01*
X143446204Y-60919505D01*
X143445000Y-60895001D01*
X143445000Y-60244999D01*
X143446204Y-60220495D01*
X143449804Y-60196227D01*
X143455765Y-60172428D01*
X143464030Y-60149329D01*
X143474520Y-60127150D01*
X143487132Y-60106107D01*
X143501747Y-60086401D01*
X143518223Y-60068223D01*
X143536401Y-60051747D01*
X143556107Y-60037132D01*
X143577150Y-60024520D01*
X143599329Y-60014030D01*
X143622428Y-60005765D01*
X143646227Y-59999804D01*
X143670495Y-59996204D01*
X143694999Y-59995000D01*
X144595001Y-59995000D01*
X144619505Y-59996204D01*
X144619505Y-59996204D01*
G37*
D11*
X144145000Y-60570000D03*
D10*
G36*
X147914505Y-62801204D02*
G01*
X147938773Y-62804804D01*
X147962572Y-62810765D01*
X147985671Y-62819030D01*
X148007850Y-62829520D01*
X148028893Y-62842132D01*
X148048599Y-62856747D01*
X148066777Y-62873223D01*
X148083253Y-62891401D01*
X148097868Y-62911107D01*
X148110480Y-62932150D01*
X148120970Y-62954329D01*
X148129235Y-62977428D01*
X148135196Y-63001227D01*
X148138796Y-63025495D01*
X148140000Y-63049999D01*
X148140000Y-63950001D01*
X148138796Y-63974505D01*
X148135196Y-63998773D01*
X148129235Y-64022572D01*
X148120970Y-64045671D01*
X148110480Y-64067850D01*
X148097868Y-64088893D01*
X148083253Y-64108599D01*
X148066777Y-64126777D01*
X148048599Y-64143253D01*
X148028893Y-64157868D01*
X148007850Y-64170480D01*
X147985671Y-64180970D01*
X147962572Y-64189235D01*
X147938773Y-64195196D01*
X147914505Y-64198796D01*
X147890001Y-64200000D01*
X147239999Y-64200000D01*
X147215495Y-64198796D01*
X147191227Y-64195196D01*
X147167428Y-64189235D01*
X147144329Y-64180970D01*
X147122150Y-64170480D01*
X147101107Y-64157868D01*
X147081401Y-64143253D01*
X147063223Y-64126777D01*
X147046747Y-64108599D01*
X147032132Y-64088893D01*
X147019520Y-64067850D01*
X147009030Y-64045671D01*
X147000765Y-64022572D01*
X146994804Y-63998773D01*
X146991204Y-63974505D01*
X146990000Y-63950001D01*
X146990000Y-63049999D01*
X146991204Y-63025495D01*
X146994804Y-63001227D01*
X147000765Y-62977428D01*
X147009030Y-62954329D01*
X147019520Y-62932150D01*
X147032132Y-62911107D01*
X147046747Y-62891401D01*
X147063223Y-62873223D01*
X147081401Y-62856747D01*
X147101107Y-62842132D01*
X147122150Y-62829520D01*
X147144329Y-62819030D01*
X147167428Y-62810765D01*
X147191227Y-62804804D01*
X147215495Y-62801204D01*
X147239999Y-62800000D01*
X147890001Y-62800000D01*
X147914505Y-62801204D01*
X147914505Y-62801204D01*
G37*
D11*
X147565000Y-63500000D03*
D10*
G36*
X149964505Y-62801204D02*
G01*
X149988773Y-62804804D01*
X150012572Y-62810765D01*
X150035671Y-62819030D01*
X150057850Y-62829520D01*
X150078893Y-62842132D01*
X150098599Y-62856747D01*
X150116777Y-62873223D01*
X150133253Y-62891401D01*
X150147868Y-62911107D01*
X150160480Y-62932150D01*
X150170970Y-62954329D01*
X150179235Y-62977428D01*
X150185196Y-63001227D01*
X150188796Y-63025495D01*
X150190000Y-63049999D01*
X150190000Y-63950001D01*
X150188796Y-63974505D01*
X150185196Y-63998773D01*
X150179235Y-64022572D01*
X150170970Y-64045671D01*
X150160480Y-64067850D01*
X150147868Y-64088893D01*
X150133253Y-64108599D01*
X150116777Y-64126777D01*
X150098599Y-64143253D01*
X150078893Y-64157868D01*
X150057850Y-64170480D01*
X150035671Y-64180970D01*
X150012572Y-64189235D01*
X149988773Y-64195196D01*
X149964505Y-64198796D01*
X149940001Y-64200000D01*
X149289999Y-64200000D01*
X149265495Y-64198796D01*
X149241227Y-64195196D01*
X149217428Y-64189235D01*
X149194329Y-64180970D01*
X149172150Y-64170480D01*
X149151107Y-64157868D01*
X149131401Y-64143253D01*
X149113223Y-64126777D01*
X149096747Y-64108599D01*
X149082132Y-64088893D01*
X149069520Y-64067850D01*
X149059030Y-64045671D01*
X149050765Y-64022572D01*
X149044804Y-63998773D01*
X149041204Y-63974505D01*
X149040000Y-63950001D01*
X149040000Y-63049999D01*
X149041204Y-63025495D01*
X149044804Y-63001227D01*
X149050765Y-62977428D01*
X149059030Y-62954329D01*
X149069520Y-62932150D01*
X149082132Y-62911107D01*
X149096747Y-62891401D01*
X149113223Y-62873223D01*
X149131401Y-62856747D01*
X149151107Y-62842132D01*
X149172150Y-62829520D01*
X149194329Y-62819030D01*
X149217428Y-62810765D01*
X149241227Y-62804804D01*
X149265495Y-62801204D01*
X149289999Y-62800000D01*
X149940001Y-62800000D01*
X149964505Y-62801204D01*
X149964505Y-62801204D01*
G37*
D11*
X149615000Y-63500000D03*
M02*
