G04 #@! TF.GenerationSoftware,KiCad,Pcbnew,(5.1.0-0)*
G04 #@! TF.CreationDate,2019-06-12T16:48:35+08:00*
G04 #@! TF.ProjectId,Palm,50616c6d-2e6b-4696-9361-645f70636258,V1.0*
G04 #@! TF.SameCoordinates,Original*
G04 #@! TF.FileFunction,Paste,Top*
G04 #@! TF.FilePolarity,Positive*
%FSLAX46Y46*%
G04 Gerber Fmt 4.6, Leading zero omitted, Abs format (unit mm)*
G04 Created by KiCad (PCBNEW (5.1.0-0)) date 2019-06-12 16:48:35*
%MOMM*%
%LPD*%
G04 APERTURE LIST*
%ADD10R,1.300000X2.600000*%
%ADD11R,0.800000X1.000000*%
%ADD12R,1.500000X0.700000*%
%ADD13R,0.800000X0.900000*%
%ADD14C,0.100000*%
%ADD15C,1.000000*%
%ADD16C,1.500000*%
G04 APERTURE END LIST*
D10*
X139805000Y-58480000D03*
X141605000Y-58480000D03*
X143405000Y-58480000D03*
X139805000Y-53280000D03*
X141605000Y-53280000D03*
X143405000Y-53280000D03*
D11*
X132860000Y-96680000D03*
X132860000Y-103980000D03*
X130650000Y-103980000D03*
X130650000Y-96680000D03*
D12*
X133510000Y-102580000D03*
X133510000Y-101080000D03*
X133510000Y-98080000D03*
D11*
X132860000Y-75725000D03*
X132860000Y-83025000D03*
X130650000Y-83025000D03*
X130650000Y-75725000D03*
D12*
X133510000Y-81625000D03*
X133510000Y-80125000D03*
X133510000Y-77125000D03*
D13*
X143428720Y-70216520D03*
X144378720Y-72216520D03*
X142478720Y-72216520D03*
D14*
G36*
X139629504Y-63271204D02*
G01*
X139653773Y-63274804D01*
X139677571Y-63280765D01*
X139700671Y-63289030D01*
X139722849Y-63299520D01*
X139743893Y-63312133D01*
X139763598Y-63326747D01*
X139781777Y-63343223D01*
X139798253Y-63361402D01*
X139812867Y-63381107D01*
X139825480Y-63402151D01*
X139835970Y-63424329D01*
X139844235Y-63447429D01*
X139850196Y-63471227D01*
X139853796Y-63495496D01*
X139855000Y-63520000D01*
X139855000Y-64020000D01*
X139853796Y-64044504D01*
X139850196Y-64068773D01*
X139844235Y-64092571D01*
X139835970Y-64115671D01*
X139825480Y-64137849D01*
X139812867Y-64158893D01*
X139798253Y-64178598D01*
X139781777Y-64196777D01*
X139763598Y-64213253D01*
X139743893Y-64227867D01*
X139722849Y-64240480D01*
X139700671Y-64250970D01*
X139677571Y-64259235D01*
X139653773Y-64265196D01*
X139629504Y-64268796D01*
X139605000Y-64270000D01*
X136605000Y-64270000D01*
X136580496Y-64268796D01*
X136556227Y-64265196D01*
X136532429Y-64259235D01*
X136509329Y-64250970D01*
X136487151Y-64240480D01*
X136466107Y-64227867D01*
X136446402Y-64213253D01*
X136428223Y-64196777D01*
X136411747Y-64178598D01*
X136397133Y-64158893D01*
X136384520Y-64137849D01*
X136374030Y-64115671D01*
X136365765Y-64092571D01*
X136359804Y-64068773D01*
X136356204Y-64044504D01*
X136355000Y-64020000D01*
X136355000Y-63520000D01*
X136356204Y-63495496D01*
X136359804Y-63471227D01*
X136365765Y-63447429D01*
X136374030Y-63424329D01*
X136384520Y-63402151D01*
X136397133Y-63381107D01*
X136411747Y-63361402D01*
X136428223Y-63343223D01*
X136446402Y-63326747D01*
X136466107Y-63312133D01*
X136487151Y-63299520D01*
X136509329Y-63289030D01*
X136532429Y-63280765D01*
X136556227Y-63274804D01*
X136580496Y-63271204D01*
X136605000Y-63270000D01*
X139605000Y-63270000D01*
X139629504Y-63271204D01*
X139629504Y-63271204D01*
G37*
D15*
X138105000Y-63770000D03*
D14*
G36*
X139629504Y-65271204D02*
G01*
X139653773Y-65274804D01*
X139677571Y-65280765D01*
X139700671Y-65289030D01*
X139722849Y-65299520D01*
X139743893Y-65312133D01*
X139763598Y-65326747D01*
X139781777Y-65343223D01*
X139798253Y-65361402D01*
X139812867Y-65381107D01*
X139825480Y-65402151D01*
X139835970Y-65424329D01*
X139844235Y-65447429D01*
X139850196Y-65471227D01*
X139853796Y-65495496D01*
X139855000Y-65520000D01*
X139855000Y-66020000D01*
X139853796Y-66044504D01*
X139850196Y-66068773D01*
X139844235Y-66092571D01*
X139835970Y-66115671D01*
X139825480Y-66137849D01*
X139812867Y-66158893D01*
X139798253Y-66178598D01*
X139781777Y-66196777D01*
X139763598Y-66213253D01*
X139743893Y-66227867D01*
X139722849Y-66240480D01*
X139700671Y-66250970D01*
X139677571Y-66259235D01*
X139653773Y-66265196D01*
X139629504Y-66268796D01*
X139605000Y-66270000D01*
X136605000Y-66270000D01*
X136580496Y-66268796D01*
X136556227Y-66265196D01*
X136532429Y-66259235D01*
X136509329Y-66250970D01*
X136487151Y-66240480D01*
X136466107Y-66227867D01*
X136446402Y-66213253D01*
X136428223Y-66196777D01*
X136411747Y-66178598D01*
X136397133Y-66158893D01*
X136384520Y-66137849D01*
X136374030Y-66115671D01*
X136365765Y-66092571D01*
X136359804Y-66068773D01*
X136356204Y-66044504D01*
X136355000Y-66020000D01*
X136355000Y-65520000D01*
X136356204Y-65495496D01*
X136359804Y-65471227D01*
X136365765Y-65447429D01*
X136374030Y-65424329D01*
X136384520Y-65402151D01*
X136397133Y-65381107D01*
X136411747Y-65361402D01*
X136428223Y-65343223D01*
X136446402Y-65326747D01*
X136466107Y-65312133D01*
X136487151Y-65299520D01*
X136509329Y-65289030D01*
X136532429Y-65280765D01*
X136556227Y-65274804D01*
X136580496Y-65271204D01*
X136605000Y-65270000D01*
X139605000Y-65270000D01*
X139629504Y-65271204D01*
X139629504Y-65271204D01*
G37*
D15*
X138105000Y-65770000D03*
D14*
G36*
X133829504Y-60671204D02*
G01*
X133853773Y-60674804D01*
X133877571Y-60680765D01*
X133900671Y-60689030D01*
X133922849Y-60699520D01*
X133943893Y-60712133D01*
X133963598Y-60726747D01*
X133981777Y-60743223D01*
X133998253Y-60761402D01*
X134012867Y-60781107D01*
X134025480Y-60802151D01*
X134035970Y-60824329D01*
X134044235Y-60847429D01*
X134050196Y-60871227D01*
X134053796Y-60895496D01*
X134055000Y-60920000D01*
X134055000Y-61920000D01*
X134053796Y-61944504D01*
X134050196Y-61968773D01*
X134044235Y-61992571D01*
X134035970Y-62015671D01*
X134025480Y-62037849D01*
X134012867Y-62058893D01*
X133998253Y-62078598D01*
X133981777Y-62096777D01*
X133963598Y-62113253D01*
X133943893Y-62127867D01*
X133922849Y-62140480D01*
X133900671Y-62150970D01*
X133877571Y-62159235D01*
X133853773Y-62165196D01*
X133829504Y-62168796D01*
X133805000Y-62170000D01*
X130905000Y-62170000D01*
X130880496Y-62168796D01*
X130856227Y-62165196D01*
X130832429Y-62159235D01*
X130809329Y-62150970D01*
X130787151Y-62140480D01*
X130766107Y-62127867D01*
X130746402Y-62113253D01*
X130728223Y-62096777D01*
X130711747Y-62078598D01*
X130697133Y-62058893D01*
X130684520Y-62037849D01*
X130674030Y-62015671D01*
X130665765Y-61992571D01*
X130659804Y-61968773D01*
X130656204Y-61944504D01*
X130655000Y-61920000D01*
X130655000Y-60920000D01*
X130656204Y-60895496D01*
X130659804Y-60871227D01*
X130665765Y-60847429D01*
X130674030Y-60824329D01*
X130684520Y-60802151D01*
X130697133Y-60781107D01*
X130711747Y-60761402D01*
X130728223Y-60743223D01*
X130746402Y-60726747D01*
X130766107Y-60712133D01*
X130787151Y-60699520D01*
X130809329Y-60689030D01*
X130832429Y-60680765D01*
X130856227Y-60674804D01*
X130880496Y-60671204D01*
X130905000Y-60670000D01*
X133805000Y-60670000D01*
X133829504Y-60671204D01*
X133829504Y-60671204D01*
G37*
D16*
X132355000Y-61420000D03*
D14*
G36*
X133829504Y-67371204D02*
G01*
X133853773Y-67374804D01*
X133877571Y-67380765D01*
X133900671Y-67389030D01*
X133922849Y-67399520D01*
X133943893Y-67412133D01*
X133963598Y-67426747D01*
X133981777Y-67443223D01*
X133998253Y-67461402D01*
X134012867Y-67481107D01*
X134025480Y-67502151D01*
X134035970Y-67524329D01*
X134044235Y-67547429D01*
X134050196Y-67571227D01*
X134053796Y-67595496D01*
X134055000Y-67620000D01*
X134055000Y-68620000D01*
X134053796Y-68644504D01*
X134050196Y-68668773D01*
X134044235Y-68692571D01*
X134035970Y-68715671D01*
X134025480Y-68737849D01*
X134012867Y-68758893D01*
X133998253Y-68778598D01*
X133981777Y-68796777D01*
X133963598Y-68813253D01*
X133943893Y-68827867D01*
X133922849Y-68840480D01*
X133900671Y-68850970D01*
X133877571Y-68859235D01*
X133853773Y-68865196D01*
X133829504Y-68868796D01*
X133805000Y-68870000D01*
X130905000Y-68870000D01*
X130880496Y-68868796D01*
X130856227Y-68865196D01*
X130832429Y-68859235D01*
X130809329Y-68850970D01*
X130787151Y-68840480D01*
X130766107Y-68827867D01*
X130746402Y-68813253D01*
X130728223Y-68796777D01*
X130711747Y-68778598D01*
X130697133Y-68758893D01*
X130684520Y-68737849D01*
X130674030Y-68715671D01*
X130665765Y-68692571D01*
X130659804Y-68668773D01*
X130656204Y-68644504D01*
X130655000Y-68620000D01*
X130655000Y-67620000D01*
X130656204Y-67595496D01*
X130659804Y-67571227D01*
X130665765Y-67547429D01*
X130674030Y-67524329D01*
X130684520Y-67502151D01*
X130697133Y-67481107D01*
X130711747Y-67461402D01*
X130728223Y-67443223D01*
X130746402Y-67426747D01*
X130766107Y-67412133D01*
X130787151Y-67399520D01*
X130809329Y-67389030D01*
X130832429Y-67380765D01*
X130856227Y-67374804D01*
X130880496Y-67371204D01*
X130905000Y-67370000D01*
X133805000Y-67370000D01*
X133829504Y-67371204D01*
X133829504Y-67371204D01*
G37*
D16*
X132355000Y-68120000D03*
M02*
