M48
; DRILL file {KiCad (5.1.0-0)} date 2019 June 12, Wednesday 16:48:38
; FORMAT={-:-/ absolute / inch / decimal}
; #@! TF.CreationDate,2019-06-12T16:48:38+08:00
; #@! TF.GenerationSoftware,Kicad,Pcbnew,(5.1.0-0)
; #@! TF.FileFunction,Plated,1,2,PTH
FMAT,2
INCH
T1C0.0157
T2C0.0197
T3C0.0394
%
G90
G05
T1
X5.275Y-3.925
X5.5Y-2.2
X5.5Y-2.95
X5.5148Y-3.0862
X5.575Y-2.2
X5.6094Y-3.6156
X5.65Y-2.2
X6.1Y-2.75
X6.2Y-2.75
T2
X5.3Y-4.1
X5.575Y-2.625
T3
X5.8Y-2.635
X5.9Y-2.635
X6.0Y-2.635
X6.1Y-2.635
X6.2Y-2.635
X5.406Y-3.0395
X5.406Y-3.1395
X5.406Y-3.2395
X5.406Y-3.3395
X5.406Y-3.4395
X5.406Y-3.5395
X5.406Y-3.6395
X5.406Y-3.7395
X5.406Y-3.8395
X5.406Y-3.9395
X5.406Y-4.0395
X5.406Y-4.1395
X6.206Y-3.0395
X6.206Y-3.1395
X6.206Y-3.2395
X6.206Y-3.3395
X6.206Y-3.4395
X6.206Y-3.5395
X6.206Y-3.6395
X6.206Y-3.7395
X6.206Y-3.8395
X6.206Y-3.9395
X6.206Y-4.0395
X6.206Y-4.1395
X6.206Y-4.2395
X6.206Y-4.3395
X6.206Y-4.4395
X6.206Y-4.5395
T0
M30
