G04 #@! TF.GenerationSoftware,KiCad,Pcbnew,(5.1.0-0)*
G04 #@! TF.CreationDate,2019-06-12T16:48:35+08:00*
G04 #@! TF.ProjectId,Palm,50616c6d-2e6b-4696-9361-645f70636258,V1.0*
G04 #@! TF.SameCoordinates,Original*
G04 #@! TF.FileFunction,Soldermask,Top*
G04 #@! TF.FilePolarity,Negative*
%FSLAX46Y46*%
G04 Gerber Fmt 4.6, Leading zero omitted, Abs format (unit mm)*
G04 Created by KiCad (PCBNEW (5.1.0-0)) date 2019-06-12 16:48:35*
%MOMM*%
%LPD*%
G04 APERTURE LIST*
%ADD10C,0.100000*%
G04 APERTURE END LIST*
D10*
G36*
X157745912Y-114407227D02*
G01*
X157895212Y-114436924D01*
X158059184Y-114504844D01*
X158206754Y-114603447D01*
X158332253Y-114728946D01*
X158430856Y-114876516D01*
X158498776Y-115040488D01*
X158533400Y-115214559D01*
X158533400Y-115392041D01*
X158498776Y-115566112D01*
X158430856Y-115730084D01*
X158332253Y-115877654D01*
X158206754Y-116003153D01*
X158059184Y-116101756D01*
X157895212Y-116169676D01*
X157745912Y-116199373D01*
X157721142Y-116204300D01*
X157543658Y-116204300D01*
X157518888Y-116199373D01*
X157369588Y-116169676D01*
X157205616Y-116101756D01*
X157058046Y-116003153D01*
X156932547Y-115877654D01*
X156833944Y-115730084D01*
X156766024Y-115566112D01*
X156731400Y-115392041D01*
X156731400Y-115214559D01*
X156766024Y-115040488D01*
X156833944Y-114876516D01*
X156932547Y-114728946D01*
X157058046Y-114603447D01*
X157205616Y-114504844D01*
X157369588Y-114436924D01*
X157518888Y-114407227D01*
X157543658Y-114402300D01*
X157721142Y-114402300D01*
X157745912Y-114407227D01*
X157745912Y-114407227D01*
G37*
G36*
X157745912Y-111867227D02*
G01*
X157895212Y-111896924D01*
X158059184Y-111964844D01*
X158206754Y-112063447D01*
X158332253Y-112188946D01*
X158430856Y-112336516D01*
X158498776Y-112500488D01*
X158533400Y-112674559D01*
X158533400Y-112852041D01*
X158498776Y-113026112D01*
X158430856Y-113190084D01*
X158332253Y-113337654D01*
X158206754Y-113463153D01*
X158059184Y-113561756D01*
X157895212Y-113629676D01*
X157745912Y-113659373D01*
X157721142Y-113664300D01*
X157543658Y-113664300D01*
X157518888Y-113659373D01*
X157369588Y-113629676D01*
X157205616Y-113561756D01*
X157058046Y-113463153D01*
X156932547Y-113337654D01*
X156833944Y-113190084D01*
X156766024Y-113026112D01*
X156731400Y-112852041D01*
X156731400Y-112674559D01*
X156766024Y-112500488D01*
X156833944Y-112336516D01*
X156932547Y-112188946D01*
X157058046Y-112063447D01*
X157205616Y-111964844D01*
X157369588Y-111896924D01*
X157518888Y-111867227D01*
X157543658Y-111862300D01*
X157721142Y-111862300D01*
X157745912Y-111867227D01*
X157745912Y-111867227D01*
G37*
G36*
X157745912Y-109327227D02*
G01*
X157895212Y-109356924D01*
X158059184Y-109424844D01*
X158206754Y-109523447D01*
X158332253Y-109648946D01*
X158430856Y-109796516D01*
X158498776Y-109960488D01*
X158533400Y-110134559D01*
X158533400Y-110312041D01*
X158498776Y-110486112D01*
X158430856Y-110650084D01*
X158332253Y-110797654D01*
X158206754Y-110923153D01*
X158059184Y-111021756D01*
X157895212Y-111089676D01*
X157745912Y-111119373D01*
X157721142Y-111124300D01*
X157543658Y-111124300D01*
X157518888Y-111119373D01*
X157369588Y-111089676D01*
X157205616Y-111021756D01*
X157058046Y-110923153D01*
X156932547Y-110797654D01*
X156833944Y-110650084D01*
X156766024Y-110486112D01*
X156731400Y-110312041D01*
X156731400Y-110134559D01*
X156766024Y-109960488D01*
X156833944Y-109796516D01*
X156932547Y-109648946D01*
X157058046Y-109523447D01*
X157205616Y-109424844D01*
X157369588Y-109356924D01*
X157518888Y-109327227D01*
X157543658Y-109322300D01*
X157721142Y-109322300D01*
X157745912Y-109327227D01*
X157745912Y-109327227D01*
G37*
G36*
X157745912Y-106787227D02*
G01*
X157895212Y-106816924D01*
X158059184Y-106884844D01*
X158206754Y-106983447D01*
X158332253Y-107108946D01*
X158430856Y-107256516D01*
X158498776Y-107420488D01*
X158533400Y-107594559D01*
X158533400Y-107772041D01*
X158498776Y-107946112D01*
X158430856Y-108110084D01*
X158332253Y-108257654D01*
X158206754Y-108383153D01*
X158059184Y-108481756D01*
X157895212Y-108549676D01*
X157745912Y-108579373D01*
X157721142Y-108584300D01*
X157543658Y-108584300D01*
X157518888Y-108579373D01*
X157369588Y-108549676D01*
X157205616Y-108481756D01*
X157058046Y-108383153D01*
X156932547Y-108257654D01*
X156833944Y-108110084D01*
X156766024Y-107946112D01*
X156731400Y-107772041D01*
X156731400Y-107594559D01*
X156766024Y-107420488D01*
X156833944Y-107256516D01*
X156932547Y-107108946D01*
X157058046Y-106983447D01*
X157205616Y-106884844D01*
X157369588Y-106816924D01*
X157518888Y-106787227D01*
X157543658Y-106782300D01*
X157721142Y-106782300D01*
X157745912Y-106787227D01*
X157745912Y-106787227D01*
G37*
G36*
X157745912Y-104247227D02*
G01*
X157895212Y-104276924D01*
X158059184Y-104344844D01*
X158206754Y-104443447D01*
X158332253Y-104568946D01*
X158430856Y-104716516D01*
X158498776Y-104880488D01*
X158533400Y-105054559D01*
X158533400Y-105232041D01*
X158498776Y-105406112D01*
X158430856Y-105570084D01*
X158332253Y-105717654D01*
X158206754Y-105843153D01*
X158059184Y-105941756D01*
X157895212Y-106009676D01*
X157745912Y-106039373D01*
X157721142Y-106044300D01*
X157543658Y-106044300D01*
X157518888Y-106039373D01*
X157369588Y-106009676D01*
X157205616Y-105941756D01*
X157058046Y-105843153D01*
X156932547Y-105717654D01*
X156833944Y-105570084D01*
X156766024Y-105406112D01*
X156731400Y-105232041D01*
X156731400Y-105054559D01*
X156766024Y-104880488D01*
X156833944Y-104716516D01*
X156932547Y-104568946D01*
X157058046Y-104443447D01*
X157205616Y-104344844D01*
X157369588Y-104276924D01*
X157518888Y-104247227D01*
X157543658Y-104242300D01*
X157721142Y-104242300D01*
X157745912Y-104247227D01*
X157745912Y-104247227D01*
G37*
G36*
X137425912Y-104247227D02*
G01*
X137575212Y-104276924D01*
X137739184Y-104344844D01*
X137886754Y-104443447D01*
X138012253Y-104568946D01*
X138110856Y-104716516D01*
X138178776Y-104880488D01*
X138213400Y-105054559D01*
X138213400Y-105232041D01*
X138178776Y-105406112D01*
X138110856Y-105570084D01*
X138012253Y-105717654D01*
X137886754Y-105843153D01*
X137739184Y-105941756D01*
X137575212Y-106009676D01*
X137425912Y-106039373D01*
X137401142Y-106044300D01*
X137223658Y-106044300D01*
X137198888Y-106039373D01*
X137049588Y-106009676D01*
X136885616Y-105941756D01*
X136738046Y-105843153D01*
X136612547Y-105717654D01*
X136513944Y-105570084D01*
X136446024Y-105406112D01*
X136411400Y-105232041D01*
X136411400Y-105054559D01*
X136446024Y-104880488D01*
X136513944Y-104716516D01*
X136612547Y-104568946D01*
X136738046Y-104443447D01*
X136885616Y-104344844D01*
X137049588Y-104276924D01*
X137198888Y-104247227D01*
X137223658Y-104242300D01*
X137401142Y-104242300D01*
X137425912Y-104247227D01*
X137425912Y-104247227D01*
G37*
G36*
X133311000Y-104531000D02*
G01*
X132409000Y-104531000D01*
X132409000Y-103429000D01*
X133311000Y-103429000D01*
X133311000Y-104531000D01*
X133311000Y-104531000D01*
G37*
G36*
X131101000Y-104531000D02*
G01*
X130199000Y-104531000D01*
X130199000Y-103429000D01*
X131101000Y-103429000D01*
X131101000Y-104531000D01*
X131101000Y-104531000D01*
G37*
G36*
X157745912Y-101707227D02*
G01*
X157895212Y-101736924D01*
X158059184Y-101804844D01*
X158206754Y-101903447D01*
X158332253Y-102028946D01*
X158430856Y-102176516D01*
X158498776Y-102340488D01*
X158533400Y-102514559D01*
X158533400Y-102692041D01*
X158498776Y-102866112D01*
X158430856Y-103030084D01*
X158332253Y-103177654D01*
X158206754Y-103303153D01*
X158059184Y-103401756D01*
X157895212Y-103469676D01*
X157745912Y-103499373D01*
X157721142Y-103504300D01*
X157543658Y-103504300D01*
X157518888Y-103499373D01*
X157369588Y-103469676D01*
X157205616Y-103401756D01*
X157058046Y-103303153D01*
X156932547Y-103177654D01*
X156833944Y-103030084D01*
X156766024Y-102866112D01*
X156731400Y-102692041D01*
X156731400Y-102514559D01*
X156766024Y-102340488D01*
X156833944Y-102176516D01*
X156932547Y-102028946D01*
X157058046Y-101903447D01*
X157205616Y-101804844D01*
X157369588Y-101736924D01*
X157518888Y-101707227D01*
X157543658Y-101702300D01*
X157721142Y-101702300D01*
X157745912Y-101707227D01*
X157745912Y-101707227D01*
G37*
G36*
X137425912Y-101707227D02*
G01*
X137575212Y-101736924D01*
X137739184Y-101804844D01*
X137886754Y-101903447D01*
X138012253Y-102028946D01*
X138110856Y-102176516D01*
X138178776Y-102340488D01*
X138213400Y-102514559D01*
X138213400Y-102692041D01*
X138178776Y-102866112D01*
X138110856Y-103030084D01*
X138012253Y-103177654D01*
X137886754Y-103303153D01*
X137739184Y-103401756D01*
X137575212Y-103469676D01*
X137425912Y-103499373D01*
X137401142Y-103504300D01*
X137223658Y-103504300D01*
X137198888Y-103499373D01*
X137049588Y-103469676D01*
X136885616Y-103401756D01*
X136738046Y-103303153D01*
X136612547Y-103177654D01*
X136513944Y-103030084D01*
X136446024Y-102866112D01*
X136411400Y-102692041D01*
X136411400Y-102514559D01*
X136446024Y-102340488D01*
X136513944Y-102176516D01*
X136612547Y-102028946D01*
X136738046Y-101903447D01*
X136885616Y-101804844D01*
X137049588Y-101736924D01*
X137198888Y-101707227D01*
X137223658Y-101702300D01*
X137401142Y-101702300D01*
X137425912Y-101707227D01*
X137425912Y-101707227D01*
G37*
G36*
X134311000Y-102981000D02*
G01*
X132709000Y-102981000D01*
X132709000Y-102179000D01*
X134311000Y-102179000D01*
X134311000Y-102981000D01*
X134311000Y-102981000D01*
G37*
G36*
X131847740Y-101338626D02*
G01*
X131896136Y-101348253D01*
X131933902Y-101363896D01*
X131987311Y-101386019D01*
X131987312Y-101386020D01*
X132069369Y-101440848D01*
X132139152Y-101510631D01*
X132139153Y-101510633D01*
X132193981Y-101592689D01*
X132231747Y-101683865D01*
X132251000Y-101780655D01*
X132251000Y-101879345D01*
X132231747Y-101976135D01*
X132193981Y-102067311D01*
X132193980Y-102067312D01*
X132139152Y-102149369D01*
X132069369Y-102219152D01*
X132028062Y-102246752D01*
X131987311Y-102273981D01*
X131933902Y-102296104D01*
X131896136Y-102311747D01*
X131847740Y-102321373D01*
X131799345Y-102331000D01*
X131700655Y-102331000D01*
X131652260Y-102321374D01*
X131603864Y-102311747D01*
X131566098Y-102296104D01*
X131512689Y-102273981D01*
X131471938Y-102246752D01*
X131430631Y-102219152D01*
X131360848Y-102149369D01*
X131306020Y-102067312D01*
X131306019Y-102067311D01*
X131268253Y-101976135D01*
X131249000Y-101879345D01*
X131249000Y-101780655D01*
X131268253Y-101683865D01*
X131306019Y-101592689D01*
X131360847Y-101510633D01*
X131360848Y-101510631D01*
X131430631Y-101440848D01*
X131512688Y-101386020D01*
X131512689Y-101386019D01*
X131566098Y-101363896D01*
X131603864Y-101348253D01*
X131652260Y-101338627D01*
X131700655Y-101329000D01*
X131799345Y-101329000D01*
X131847740Y-101338626D01*
X131847740Y-101338626D01*
G37*
G36*
X134311000Y-101481000D02*
G01*
X132709000Y-101481000D01*
X132709000Y-100679000D01*
X134311000Y-100679000D01*
X134311000Y-101481000D01*
X134311000Y-101481000D01*
G37*
G36*
X157745912Y-99167227D02*
G01*
X157895212Y-99196924D01*
X158059184Y-99264844D01*
X158206754Y-99363447D01*
X158332253Y-99488946D01*
X158430856Y-99636516D01*
X158498776Y-99800488D01*
X158533400Y-99974559D01*
X158533400Y-100152041D01*
X158498776Y-100326112D01*
X158430856Y-100490084D01*
X158332253Y-100637654D01*
X158206754Y-100763153D01*
X158059184Y-100861756D01*
X157895212Y-100929676D01*
X157745912Y-100959373D01*
X157721142Y-100964300D01*
X157543658Y-100964300D01*
X157518888Y-100959373D01*
X157369588Y-100929676D01*
X157205616Y-100861756D01*
X157058046Y-100763153D01*
X156932547Y-100637654D01*
X156833944Y-100490084D01*
X156766024Y-100326112D01*
X156731400Y-100152041D01*
X156731400Y-99974559D01*
X156766024Y-99800488D01*
X156833944Y-99636516D01*
X156932547Y-99488946D01*
X157058046Y-99363447D01*
X157205616Y-99264844D01*
X157369588Y-99196924D01*
X157518888Y-99167227D01*
X157543658Y-99162300D01*
X157721142Y-99162300D01*
X157745912Y-99167227D01*
X157745912Y-99167227D01*
G37*
G36*
X137425912Y-99167227D02*
G01*
X137575212Y-99196924D01*
X137739184Y-99264844D01*
X137886754Y-99363447D01*
X138012253Y-99488946D01*
X138110856Y-99636516D01*
X138178776Y-99800488D01*
X138213400Y-99974559D01*
X138213400Y-100152041D01*
X138178776Y-100326112D01*
X138110856Y-100490084D01*
X138012253Y-100637654D01*
X137886754Y-100763153D01*
X137739184Y-100861756D01*
X137575212Y-100929676D01*
X137425912Y-100959373D01*
X137401142Y-100964300D01*
X137223658Y-100964300D01*
X137198888Y-100959373D01*
X137049588Y-100929676D01*
X136885616Y-100861756D01*
X136738046Y-100763153D01*
X136612547Y-100637654D01*
X136513944Y-100490084D01*
X136446024Y-100326112D01*
X136411400Y-100152041D01*
X136411400Y-99974559D01*
X136446024Y-99800488D01*
X136513944Y-99636516D01*
X136612547Y-99488946D01*
X136738046Y-99363447D01*
X136885616Y-99264844D01*
X137049588Y-99196924D01*
X137198888Y-99167227D01*
X137223658Y-99162300D01*
X137401142Y-99162300D01*
X137425912Y-99167227D01*
X137425912Y-99167227D01*
G37*
G36*
X131847740Y-98338626D02*
G01*
X131896136Y-98348253D01*
X131933902Y-98363896D01*
X131987311Y-98386019D01*
X131992784Y-98389676D01*
X132069369Y-98440848D01*
X132139152Y-98510631D01*
X132139153Y-98510633D01*
X132193981Y-98592689D01*
X132231747Y-98683865D01*
X132251000Y-98780655D01*
X132251000Y-98879345D01*
X132231747Y-98976135D01*
X132193981Y-99067311D01*
X132193980Y-99067312D01*
X132139152Y-99149369D01*
X132069369Y-99219152D01*
X132028062Y-99246752D01*
X131987311Y-99273981D01*
X131933902Y-99296104D01*
X131896136Y-99311747D01*
X131847740Y-99321373D01*
X131799345Y-99331000D01*
X131700655Y-99331000D01*
X131652260Y-99321373D01*
X131603864Y-99311747D01*
X131566098Y-99296104D01*
X131512689Y-99273981D01*
X131471938Y-99246752D01*
X131430631Y-99219152D01*
X131360848Y-99149369D01*
X131306020Y-99067312D01*
X131306019Y-99067311D01*
X131268253Y-98976135D01*
X131249000Y-98879345D01*
X131249000Y-98780655D01*
X131268253Y-98683865D01*
X131306019Y-98592689D01*
X131360847Y-98510633D01*
X131360848Y-98510631D01*
X131430631Y-98440848D01*
X131507216Y-98389676D01*
X131512689Y-98386019D01*
X131566098Y-98363896D01*
X131603864Y-98348253D01*
X131652260Y-98338627D01*
X131700655Y-98329000D01*
X131799345Y-98329000D01*
X131847740Y-98338626D01*
X131847740Y-98338626D01*
G37*
G36*
X134311000Y-98481000D02*
G01*
X132709000Y-98481000D01*
X132709000Y-97679000D01*
X134311000Y-97679000D01*
X134311000Y-98481000D01*
X134311000Y-98481000D01*
G37*
G36*
X157745912Y-96627227D02*
G01*
X157895212Y-96656924D01*
X158059184Y-96724844D01*
X158206754Y-96823447D01*
X158332253Y-96948946D01*
X158430856Y-97096516D01*
X158498776Y-97260488D01*
X158533400Y-97434559D01*
X158533400Y-97612041D01*
X158498776Y-97786112D01*
X158430856Y-97950084D01*
X158332253Y-98097654D01*
X158206754Y-98223153D01*
X158059184Y-98321756D01*
X157895212Y-98389676D01*
X157745912Y-98419373D01*
X157721142Y-98424300D01*
X157543658Y-98424300D01*
X157518888Y-98419373D01*
X157369588Y-98389676D01*
X157205616Y-98321756D01*
X157058046Y-98223153D01*
X156932547Y-98097654D01*
X156833944Y-97950084D01*
X156766024Y-97786112D01*
X156731400Y-97612041D01*
X156731400Y-97434559D01*
X156766024Y-97260488D01*
X156833944Y-97096516D01*
X156932547Y-96948946D01*
X157058046Y-96823447D01*
X157205616Y-96724844D01*
X157369588Y-96656924D01*
X157518888Y-96627227D01*
X157543658Y-96622300D01*
X157721142Y-96622300D01*
X157745912Y-96627227D01*
X157745912Y-96627227D01*
G37*
G36*
X137425912Y-96627227D02*
G01*
X137575212Y-96656924D01*
X137739184Y-96724844D01*
X137886754Y-96823447D01*
X138012253Y-96948946D01*
X138110856Y-97096516D01*
X138178776Y-97260488D01*
X138213400Y-97434559D01*
X138213400Y-97612041D01*
X138178776Y-97786112D01*
X138110856Y-97950084D01*
X138012253Y-98097654D01*
X137886754Y-98223153D01*
X137739184Y-98321756D01*
X137575212Y-98389676D01*
X137425912Y-98419373D01*
X137401142Y-98424300D01*
X137223658Y-98424300D01*
X137198888Y-98419373D01*
X137049588Y-98389676D01*
X136885616Y-98321756D01*
X136738046Y-98223153D01*
X136612547Y-98097654D01*
X136513944Y-97950084D01*
X136446024Y-97786112D01*
X136411400Y-97612041D01*
X136411400Y-97434559D01*
X136446024Y-97260488D01*
X136513944Y-97096516D01*
X136612547Y-96948946D01*
X136738046Y-96823447D01*
X136885616Y-96724844D01*
X137049588Y-96656924D01*
X137198888Y-96627227D01*
X137223658Y-96622300D01*
X137401142Y-96622300D01*
X137425912Y-96627227D01*
X137425912Y-96627227D01*
G37*
G36*
X133311000Y-97231000D02*
G01*
X132409000Y-97231000D01*
X132409000Y-96129000D01*
X133311000Y-96129000D01*
X133311000Y-97231000D01*
X133311000Y-97231000D01*
G37*
G36*
X131101000Y-97231000D02*
G01*
X130199000Y-97231000D01*
X130199000Y-96129000D01*
X131101000Y-96129000D01*
X131101000Y-97231000D01*
X131101000Y-97231000D01*
G37*
G36*
X157745912Y-94087227D02*
G01*
X157895212Y-94116924D01*
X158059184Y-94184844D01*
X158206754Y-94283447D01*
X158332253Y-94408946D01*
X158430856Y-94556516D01*
X158498776Y-94720488D01*
X158533400Y-94894559D01*
X158533400Y-95072041D01*
X158498776Y-95246112D01*
X158430856Y-95410084D01*
X158332253Y-95557654D01*
X158206754Y-95683153D01*
X158059184Y-95781756D01*
X157895212Y-95849676D01*
X157745912Y-95879373D01*
X157721142Y-95884300D01*
X157543658Y-95884300D01*
X157518888Y-95879373D01*
X157369588Y-95849676D01*
X157205616Y-95781756D01*
X157058046Y-95683153D01*
X156932547Y-95557654D01*
X156833944Y-95410084D01*
X156766024Y-95246112D01*
X156731400Y-95072041D01*
X156731400Y-94894559D01*
X156766024Y-94720488D01*
X156833944Y-94556516D01*
X156932547Y-94408946D01*
X157058046Y-94283447D01*
X157205616Y-94184844D01*
X157369588Y-94116924D01*
X157518888Y-94087227D01*
X157543658Y-94082300D01*
X157721142Y-94082300D01*
X157745912Y-94087227D01*
X157745912Y-94087227D01*
G37*
G36*
X137425912Y-94087227D02*
G01*
X137575212Y-94116924D01*
X137739184Y-94184844D01*
X137886754Y-94283447D01*
X138012253Y-94408946D01*
X138110856Y-94556516D01*
X138178776Y-94720488D01*
X138213400Y-94894559D01*
X138213400Y-95072041D01*
X138178776Y-95246112D01*
X138110856Y-95410084D01*
X138012253Y-95557654D01*
X137886754Y-95683153D01*
X137739184Y-95781756D01*
X137575212Y-95849676D01*
X137425912Y-95879373D01*
X137401142Y-95884300D01*
X137223658Y-95884300D01*
X137198888Y-95879373D01*
X137049588Y-95849676D01*
X136885616Y-95781756D01*
X136738046Y-95683153D01*
X136612547Y-95557654D01*
X136513944Y-95410084D01*
X136446024Y-95246112D01*
X136411400Y-95072041D01*
X136411400Y-94894559D01*
X136446024Y-94720488D01*
X136513944Y-94556516D01*
X136612547Y-94408946D01*
X136738046Y-94283447D01*
X136885616Y-94184844D01*
X137049588Y-94116924D01*
X137198888Y-94087227D01*
X137223658Y-94082300D01*
X137401142Y-94082300D01*
X137425912Y-94087227D01*
X137425912Y-94087227D01*
G37*
G36*
X137425912Y-91547227D02*
G01*
X137575212Y-91576924D01*
X137739184Y-91644844D01*
X137886754Y-91743447D01*
X138012253Y-91868946D01*
X138110856Y-92016516D01*
X138178776Y-92180488D01*
X138213400Y-92354559D01*
X138213400Y-92532041D01*
X138178776Y-92706112D01*
X138110856Y-92870084D01*
X138012253Y-93017654D01*
X137886754Y-93143153D01*
X137739184Y-93241756D01*
X137575212Y-93309676D01*
X137425912Y-93339373D01*
X137401142Y-93344300D01*
X137223658Y-93344300D01*
X137198888Y-93339373D01*
X137049588Y-93309676D01*
X136885616Y-93241756D01*
X136738046Y-93143153D01*
X136612547Y-93017654D01*
X136513944Y-92870084D01*
X136446024Y-92706112D01*
X136411400Y-92532041D01*
X136411400Y-92354559D01*
X136446024Y-92180488D01*
X136513944Y-92016516D01*
X136612547Y-91868946D01*
X136738046Y-91743447D01*
X136885616Y-91644844D01*
X137049588Y-91576924D01*
X137198888Y-91547227D01*
X137223658Y-91542300D01*
X137401142Y-91542300D01*
X137425912Y-91547227D01*
X137425912Y-91547227D01*
G37*
G36*
X157745912Y-91547227D02*
G01*
X157895212Y-91576924D01*
X158059184Y-91644844D01*
X158206754Y-91743447D01*
X158332253Y-91868946D01*
X158430856Y-92016516D01*
X158498776Y-92180488D01*
X158533400Y-92354559D01*
X158533400Y-92532041D01*
X158498776Y-92706112D01*
X158430856Y-92870084D01*
X158332253Y-93017654D01*
X158206754Y-93143153D01*
X158059184Y-93241756D01*
X157895212Y-93309676D01*
X157745912Y-93339373D01*
X157721142Y-93344300D01*
X157543658Y-93344300D01*
X157518888Y-93339373D01*
X157369588Y-93309676D01*
X157205616Y-93241756D01*
X157058046Y-93143153D01*
X156932547Y-93017654D01*
X156833944Y-92870084D01*
X156766024Y-92706112D01*
X156731400Y-92532041D01*
X156731400Y-92354559D01*
X156766024Y-92180488D01*
X156833944Y-92016516D01*
X156932547Y-91868946D01*
X157058046Y-91743447D01*
X157205616Y-91644844D01*
X157369588Y-91576924D01*
X157518888Y-91547227D01*
X157543658Y-91542300D01*
X157721142Y-91542300D01*
X157745912Y-91547227D01*
X157745912Y-91547227D01*
G37*
G36*
X157745912Y-89007227D02*
G01*
X157895212Y-89036924D01*
X158059184Y-89104844D01*
X158206754Y-89203447D01*
X158332253Y-89328946D01*
X158430856Y-89476516D01*
X158498776Y-89640488D01*
X158533400Y-89814559D01*
X158533400Y-89992041D01*
X158498776Y-90166112D01*
X158430856Y-90330084D01*
X158332253Y-90477654D01*
X158206754Y-90603153D01*
X158059184Y-90701756D01*
X157895212Y-90769676D01*
X157745912Y-90799373D01*
X157721142Y-90804300D01*
X157543658Y-90804300D01*
X157518888Y-90799373D01*
X157369588Y-90769676D01*
X157205616Y-90701756D01*
X157058046Y-90603153D01*
X156932547Y-90477654D01*
X156833944Y-90330084D01*
X156766024Y-90166112D01*
X156731400Y-89992041D01*
X156731400Y-89814559D01*
X156766024Y-89640488D01*
X156833944Y-89476516D01*
X156932547Y-89328946D01*
X157058046Y-89203447D01*
X157205616Y-89104844D01*
X157369588Y-89036924D01*
X157518888Y-89007227D01*
X157543658Y-89002300D01*
X157721142Y-89002300D01*
X157745912Y-89007227D01*
X157745912Y-89007227D01*
G37*
G36*
X137425912Y-89007227D02*
G01*
X137575212Y-89036924D01*
X137739184Y-89104844D01*
X137886754Y-89203447D01*
X138012253Y-89328946D01*
X138110856Y-89476516D01*
X138178776Y-89640488D01*
X138213400Y-89814559D01*
X138213400Y-89992041D01*
X138178776Y-90166112D01*
X138110856Y-90330084D01*
X138012253Y-90477654D01*
X137886754Y-90603153D01*
X137739184Y-90701756D01*
X137575212Y-90769676D01*
X137425912Y-90799373D01*
X137401142Y-90804300D01*
X137223658Y-90804300D01*
X137198888Y-90799373D01*
X137049588Y-90769676D01*
X136885616Y-90701756D01*
X136738046Y-90603153D01*
X136612547Y-90477654D01*
X136513944Y-90330084D01*
X136446024Y-90166112D01*
X136411400Y-89992041D01*
X136411400Y-89814559D01*
X136446024Y-89640488D01*
X136513944Y-89476516D01*
X136612547Y-89328946D01*
X136738046Y-89203447D01*
X136885616Y-89104844D01*
X137049588Y-89036924D01*
X137198888Y-89007227D01*
X137223658Y-89002300D01*
X137401142Y-89002300D01*
X137425912Y-89007227D01*
X137425912Y-89007227D01*
G37*
G36*
X137425912Y-86467227D02*
G01*
X137575212Y-86496924D01*
X137739184Y-86564844D01*
X137886754Y-86663447D01*
X138012253Y-86788946D01*
X138110856Y-86936516D01*
X138178776Y-87100488D01*
X138213400Y-87274559D01*
X138213400Y-87452041D01*
X138178776Y-87626112D01*
X138110856Y-87790084D01*
X138012253Y-87937654D01*
X137886754Y-88063153D01*
X137739184Y-88161756D01*
X137575212Y-88229676D01*
X137425912Y-88259373D01*
X137401142Y-88264300D01*
X137223658Y-88264300D01*
X137198888Y-88259373D01*
X137049588Y-88229676D01*
X136885616Y-88161756D01*
X136738046Y-88063153D01*
X136612547Y-87937654D01*
X136513944Y-87790084D01*
X136446024Y-87626112D01*
X136411400Y-87452041D01*
X136411400Y-87274559D01*
X136446024Y-87100488D01*
X136513944Y-86936516D01*
X136612547Y-86788946D01*
X136738046Y-86663447D01*
X136885616Y-86564844D01*
X137049588Y-86496924D01*
X137198888Y-86467227D01*
X137223658Y-86462300D01*
X137401142Y-86462300D01*
X137425912Y-86467227D01*
X137425912Y-86467227D01*
G37*
G36*
X157745912Y-86467227D02*
G01*
X157895212Y-86496924D01*
X158059184Y-86564844D01*
X158206754Y-86663447D01*
X158332253Y-86788946D01*
X158430856Y-86936516D01*
X158498776Y-87100488D01*
X158533400Y-87274559D01*
X158533400Y-87452041D01*
X158498776Y-87626112D01*
X158430856Y-87790084D01*
X158332253Y-87937654D01*
X158206754Y-88063153D01*
X158059184Y-88161756D01*
X157895212Y-88229676D01*
X157745912Y-88259373D01*
X157721142Y-88264300D01*
X157543658Y-88264300D01*
X157518888Y-88259373D01*
X157369588Y-88229676D01*
X157205616Y-88161756D01*
X157058046Y-88063153D01*
X156932547Y-87937654D01*
X156833944Y-87790084D01*
X156766024Y-87626112D01*
X156731400Y-87452041D01*
X156731400Y-87274559D01*
X156766024Y-87100488D01*
X156833944Y-86936516D01*
X156932547Y-86788946D01*
X157058046Y-86663447D01*
X157205616Y-86564844D01*
X157369588Y-86496924D01*
X157518888Y-86467227D01*
X157543658Y-86462300D01*
X157721142Y-86462300D01*
X157745912Y-86467227D01*
X157745912Y-86467227D01*
G37*
G36*
X157745912Y-83927227D02*
G01*
X157895212Y-83956924D01*
X158059184Y-84024844D01*
X158206754Y-84123447D01*
X158332253Y-84248946D01*
X158430856Y-84396516D01*
X158498776Y-84560488D01*
X158533400Y-84734559D01*
X158533400Y-84912041D01*
X158498776Y-85086112D01*
X158430856Y-85250084D01*
X158332253Y-85397654D01*
X158206754Y-85523153D01*
X158059184Y-85621756D01*
X157895212Y-85689676D01*
X157745912Y-85719373D01*
X157721142Y-85724300D01*
X157543658Y-85724300D01*
X157518888Y-85719373D01*
X157369588Y-85689676D01*
X157205616Y-85621756D01*
X157058046Y-85523153D01*
X156932547Y-85397654D01*
X156833944Y-85250084D01*
X156766024Y-85086112D01*
X156731400Y-84912041D01*
X156731400Y-84734559D01*
X156766024Y-84560488D01*
X156833944Y-84396516D01*
X156932547Y-84248946D01*
X157058046Y-84123447D01*
X157205616Y-84024844D01*
X157369588Y-83956924D01*
X157518888Y-83927227D01*
X157543658Y-83922300D01*
X157721142Y-83922300D01*
X157745912Y-83927227D01*
X157745912Y-83927227D01*
G37*
G36*
X137425912Y-83927227D02*
G01*
X137575212Y-83956924D01*
X137739184Y-84024844D01*
X137886754Y-84123447D01*
X138012253Y-84248946D01*
X138110856Y-84396516D01*
X138178776Y-84560488D01*
X138213400Y-84734559D01*
X138213400Y-84912041D01*
X138178776Y-85086112D01*
X138110856Y-85250084D01*
X138012253Y-85397654D01*
X137886754Y-85523153D01*
X137739184Y-85621756D01*
X137575212Y-85689676D01*
X137425912Y-85719373D01*
X137401142Y-85724300D01*
X137223658Y-85724300D01*
X137198888Y-85719373D01*
X137049588Y-85689676D01*
X136885616Y-85621756D01*
X136738046Y-85523153D01*
X136612547Y-85397654D01*
X136513944Y-85250084D01*
X136446024Y-85086112D01*
X136411400Y-84912041D01*
X136411400Y-84734559D01*
X136446024Y-84560488D01*
X136513944Y-84396516D01*
X136612547Y-84248946D01*
X136738046Y-84123447D01*
X136885616Y-84024844D01*
X137049588Y-83956924D01*
X137198888Y-83927227D01*
X137223658Y-83922300D01*
X137401142Y-83922300D01*
X137425912Y-83927227D01*
X137425912Y-83927227D01*
G37*
G36*
X131101000Y-83576000D02*
G01*
X130199000Y-83576000D01*
X130199000Y-82474000D01*
X131101000Y-82474000D01*
X131101000Y-83576000D01*
X131101000Y-83576000D01*
G37*
G36*
X133311000Y-83576000D02*
G01*
X132409000Y-83576000D01*
X132409000Y-82474000D01*
X133311000Y-82474000D01*
X133311000Y-83576000D01*
X133311000Y-83576000D01*
G37*
G36*
X137425912Y-81387227D02*
G01*
X137575212Y-81416924D01*
X137739184Y-81484844D01*
X137886754Y-81583447D01*
X138012253Y-81708946D01*
X138110856Y-81856516D01*
X138178776Y-82020488D01*
X138213400Y-82194559D01*
X138213400Y-82372041D01*
X138178776Y-82546112D01*
X138110856Y-82710084D01*
X138012253Y-82857654D01*
X137886754Y-82983153D01*
X137739184Y-83081756D01*
X137575212Y-83149676D01*
X137425912Y-83179373D01*
X137401142Y-83184300D01*
X137223658Y-83184300D01*
X137198888Y-83179373D01*
X137049588Y-83149676D01*
X136885616Y-83081756D01*
X136738046Y-82983153D01*
X136612547Y-82857654D01*
X136513944Y-82710084D01*
X136446024Y-82546112D01*
X136411400Y-82372041D01*
X136411400Y-82194559D01*
X136446024Y-82020488D01*
X136513944Y-81856516D01*
X136612547Y-81708946D01*
X136738046Y-81583447D01*
X136885616Y-81484844D01*
X137049588Y-81416924D01*
X137198888Y-81387227D01*
X137223658Y-81382300D01*
X137401142Y-81382300D01*
X137425912Y-81387227D01*
X137425912Y-81387227D01*
G37*
G36*
X157745912Y-81387227D02*
G01*
X157895212Y-81416924D01*
X158059184Y-81484844D01*
X158206754Y-81583447D01*
X158332253Y-81708946D01*
X158430856Y-81856516D01*
X158498776Y-82020488D01*
X158533400Y-82194559D01*
X158533400Y-82372041D01*
X158498776Y-82546112D01*
X158430856Y-82710084D01*
X158332253Y-82857654D01*
X158206754Y-82983153D01*
X158059184Y-83081756D01*
X157895212Y-83149676D01*
X157745912Y-83179373D01*
X157721142Y-83184300D01*
X157543658Y-83184300D01*
X157518888Y-83179373D01*
X157369588Y-83149676D01*
X157205616Y-83081756D01*
X157058046Y-82983153D01*
X156932547Y-82857654D01*
X156833944Y-82710084D01*
X156766024Y-82546112D01*
X156731400Y-82372041D01*
X156731400Y-82194559D01*
X156766024Y-82020488D01*
X156833944Y-81856516D01*
X156932547Y-81708946D01*
X157058046Y-81583447D01*
X157205616Y-81484844D01*
X157369588Y-81416924D01*
X157518888Y-81387227D01*
X157543658Y-81382300D01*
X157721142Y-81382300D01*
X157745912Y-81387227D01*
X157745912Y-81387227D01*
G37*
G36*
X134311000Y-82026000D02*
G01*
X132709000Y-82026000D01*
X132709000Y-81224000D01*
X134311000Y-81224000D01*
X134311000Y-82026000D01*
X134311000Y-82026000D01*
G37*
G36*
X131847740Y-80383626D02*
G01*
X131896136Y-80393253D01*
X131933902Y-80408896D01*
X131987311Y-80431019D01*
X131987312Y-80431020D01*
X132069369Y-80485848D01*
X132139152Y-80555631D01*
X132139153Y-80555633D01*
X132193981Y-80637689D01*
X132231747Y-80728865D01*
X132251000Y-80825655D01*
X132251000Y-80924345D01*
X132231747Y-81021135D01*
X132193981Y-81112311D01*
X132193980Y-81112312D01*
X132139152Y-81194369D01*
X132069369Y-81264152D01*
X132028062Y-81291752D01*
X131987311Y-81318981D01*
X131933902Y-81341104D01*
X131896136Y-81356747D01*
X131847740Y-81366374D01*
X131799345Y-81376000D01*
X131700655Y-81376000D01*
X131652260Y-81366374D01*
X131603864Y-81356747D01*
X131566098Y-81341104D01*
X131512689Y-81318981D01*
X131471938Y-81291752D01*
X131430631Y-81264152D01*
X131360848Y-81194369D01*
X131306020Y-81112312D01*
X131306019Y-81112311D01*
X131268253Y-81021135D01*
X131249000Y-80924345D01*
X131249000Y-80825655D01*
X131268253Y-80728865D01*
X131306019Y-80637689D01*
X131360847Y-80555633D01*
X131360848Y-80555631D01*
X131430631Y-80485848D01*
X131512688Y-80431020D01*
X131512689Y-80431019D01*
X131566098Y-80408896D01*
X131603864Y-80393253D01*
X131652260Y-80383626D01*
X131700655Y-80374000D01*
X131799345Y-80374000D01*
X131847740Y-80383626D01*
X131847740Y-80383626D01*
G37*
G36*
X157745912Y-78847227D02*
G01*
X157895212Y-78876924D01*
X158059184Y-78944844D01*
X158206754Y-79043447D01*
X158332253Y-79168946D01*
X158430856Y-79316516D01*
X158498776Y-79480488D01*
X158533400Y-79654559D01*
X158533400Y-79832041D01*
X158498776Y-80006112D01*
X158430856Y-80170084D01*
X158332253Y-80317654D01*
X158206754Y-80443153D01*
X158059184Y-80541756D01*
X157895212Y-80609676D01*
X157745912Y-80639373D01*
X157721142Y-80644300D01*
X157543658Y-80644300D01*
X157518888Y-80639373D01*
X157369588Y-80609676D01*
X157205616Y-80541756D01*
X157058046Y-80443153D01*
X156932547Y-80317654D01*
X156833944Y-80170084D01*
X156766024Y-80006112D01*
X156731400Y-79832041D01*
X156731400Y-79654559D01*
X156766024Y-79480488D01*
X156833944Y-79316516D01*
X156932547Y-79168946D01*
X157058046Y-79043447D01*
X157205616Y-78944844D01*
X157369588Y-78876924D01*
X157518888Y-78847227D01*
X157543658Y-78842300D01*
X157721142Y-78842300D01*
X157745912Y-78847227D01*
X157745912Y-78847227D01*
G37*
G36*
X137425912Y-78847227D02*
G01*
X137575212Y-78876924D01*
X137739184Y-78944844D01*
X137886754Y-79043447D01*
X138012253Y-79168946D01*
X138110856Y-79316516D01*
X138178776Y-79480488D01*
X138213400Y-79654559D01*
X138213400Y-79832041D01*
X138178776Y-80006112D01*
X138110856Y-80170084D01*
X138012253Y-80317654D01*
X137886754Y-80443153D01*
X137739184Y-80541756D01*
X137575212Y-80609676D01*
X137425912Y-80639373D01*
X137401142Y-80644300D01*
X137223658Y-80644300D01*
X137198888Y-80639373D01*
X137049588Y-80609676D01*
X136885616Y-80541756D01*
X136738046Y-80443153D01*
X136612547Y-80317654D01*
X136513944Y-80170084D01*
X136446024Y-80006112D01*
X136411400Y-79832041D01*
X136411400Y-79654559D01*
X136446024Y-79480488D01*
X136513944Y-79316516D01*
X136612547Y-79168946D01*
X136738046Y-79043447D01*
X136885616Y-78944844D01*
X137049588Y-78876924D01*
X137198888Y-78847227D01*
X137223658Y-78842300D01*
X137401142Y-78842300D01*
X137425912Y-78847227D01*
X137425912Y-78847227D01*
G37*
G36*
X134311000Y-80526000D02*
G01*
X132709000Y-80526000D01*
X132709000Y-79724000D01*
X134311000Y-79724000D01*
X134311000Y-80526000D01*
X134311000Y-80526000D01*
G37*
G36*
X131847740Y-77383626D02*
G01*
X131896136Y-77393253D01*
X131933902Y-77408896D01*
X131987311Y-77431019D01*
X131987312Y-77431020D01*
X132069369Y-77485848D01*
X132139152Y-77555631D01*
X132139153Y-77555633D01*
X132193981Y-77637689D01*
X132231747Y-77728865D01*
X132251000Y-77825655D01*
X132251000Y-77924345D01*
X132231747Y-78021135D01*
X132193981Y-78112311D01*
X132193980Y-78112312D01*
X132139152Y-78194369D01*
X132069369Y-78264152D01*
X132028062Y-78291752D01*
X131987311Y-78318981D01*
X131933902Y-78341104D01*
X131896136Y-78356747D01*
X131847740Y-78366374D01*
X131799345Y-78376000D01*
X131700655Y-78376000D01*
X131652260Y-78366374D01*
X131603864Y-78356747D01*
X131566098Y-78341104D01*
X131512689Y-78318981D01*
X131471938Y-78291752D01*
X131430631Y-78264152D01*
X131360848Y-78194369D01*
X131306020Y-78112312D01*
X131306019Y-78112311D01*
X131268253Y-78021135D01*
X131249000Y-77924345D01*
X131249000Y-77825655D01*
X131268253Y-77728865D01*
X131306019Y-77637689D01*
X131360847Y-77555633D01*
X131360848Y-77555631D01*
X131430631Y-77485848D01*
X131512688Y-77431020D01*
X131512689Y-77431019D01*
X131566098Y-77408896D01*
X131603864Y-77393253D01*
X131652260Y-77383626D01*
X131700655Y-77374000D01*
X131799345Y-77374000D01*
X131847740Y-77383626D01*
X131847740Y-77383626D01*
G37*
G36*
X157745912Y-76307227D02*
G01*
X157895212Y-76336924D01*
X158059184Y-76404844D01*
X158206754Y-76503447D01*
X158332253Y-76628946D01*
X158430856Y-76776516D01*
X158498776Y-76940488D01*
X158533400Y-77114559D01*
X158533400Y-77292041D01*
X158498776Y-77466112D01*
X158430856Y-77630084D01*
X158332253Y-77777654D01*
X158206754Y-77903153D01*
X158059184Y-78001756D01*
X157895212Y-78069676D01*
X157745912Y-78099373D01*
X157721142Y-78104300D01*
X157543658Y-78104300D01*
X157518888Y-78099373D01*
X157369588Y-78069676D01*
X157205616Y-78001756D01*
X157058046Y-77903153D01*
X156932547Y-77777654D01*
X156833944Y-77630084D01*
X156766024Y-77466112D01*
X156731400Y-77292041D01*
X156731400Y-77114559D01*
X156766024Y-76940488D01*
X156833944Y-76776516D01*
X156932547Y-76628946D01*
X157058046Y-76503447D01*
X157205616Y-76404844D01*
X157369588Y-76336924D01*
X157518888Y-76307227D01*
X157543658Y-76302300D01*
X157721142Y-76302300D01*
X157745912Y-76307227D01*
X157745912Y-76307227D01*
G37*
G36*
X137425912Y-76307227D02*
G01*
X137575212Y-76336924D01*
X137739184Y-76404844D01*
X137886754Y-76503447D01*
X138012253Y-76628946D01*
X138110856Y-76776516D01*
X138178776Y-76940488D01*
X138213400Y-77114559D01*
X138213400Y-77292041D01*
X138178776Y-77466112D01*
X138110856Y-77630084D01*
X138012253Y-77777654D01*
X137886754Y-77903153D01*
X137739184Y-78001756D01*
X137575212Y-78069676D01*
X137425912Y-78099373D01*
X137401142Y-78104300D01*
X137223658Y-78104300D01*
X137198888Y-78099373D01*
X137049588Y-78069676D01*
X136885616Y-78001756D01*
X136738046Y-77903153D01*
X136612547Y-77777654D01*
X136513944Y-77630084D01*
X136446024Y-77466112D01*
X136411400Y-77292041D01*
X136411400Y-77114559D01*
X136446024Y-76940488D01*
X136513944Y-76776516D01*
X136612547Y-76628946D01*
X136738046Y-76503447D01*
X136885616Y-76404844D01*
X137049588Y-76336924D01*
X137198888Y-76307227D01*
X137223658Y-76302300D01*
X137401142Y-76302300D01*
X137425912Y-76307227D01*
X137425912Y-76307227D01*
G37*
G36*
X134311000Y-77526000D02*
G01*
X132709000Y-77526000D01*
X132709000Y-76724000D01*
X134311000Y-76724000D01*
X134311000Y-77526000D01*
X134311000Y-77526000D01*
G37*
G36*
X133311000Y-76276000D02*
G01*
X132409000Y-76276000D01*
X132409000Y-75174000D01*
X133311000Y-75174000D01*
X133311000Y-76276000D01*
X133311000Y-76276000D01*
G37*
G36*
X131101000Y-76276000D02*
G01*
X130199000Y-76276000D01*
X130199000Y-75174000D01*
X131101000Y-75174000D01*
X131101000Y-76276000D01*
X131101000Y-76276000D01*
G37*
G36*
X144829720Y-72717520D02*
G01*
X143927720Y-72717520D01*
X143927720Y-71715520D01*
X144829720Y-71715520D01*
X144829720Y-72717520D01*
X144829720Y-72717520D01*
G37*
G36*
X142929720Y-72717520D02*
G01*
X142027720Y-72717520D01*
X142027720Y-71715520D01*
X142929720Y-71715520D01*
X142929720Y-72717520D01*
X142929720Y-72717520D01*
G37*
G36*
X143879720Y-70717520D02*
G01*
X142977720Y-70717520D01*
X142977720Y-69715520D01*
X143879720Y-69715520D01*
X143879720Y-70717520D01*
X143879720Y-70717520D01*
G37*
G36*
X133958048Y-67323122D02*
G01*
X133992387Y-67333539D01*
X134024036Y-67350456D01*
X134051778Y-67373222D01*
X134074544Y-67400964D01*
X134091461Y-67432613D01*
X134101878Y-67466952D01*
X134106000Y-67508807D01*
X134106000Y-68731193D01*
X134101878Y-68773048D01*
X134091461Y-68807387D01*
X134074544Y-68839036D01*
X134051778Y-68866778D01*
X134024036Y-68889544D01*
X133992387Y-68906461D01*
X133958048Y-68916878D01*
X133916193Y-68921000D01*
X130793807Y-68921000D01*
X130751952Y-68916878D01*
X130717613Y-68906461D01*
X130685964Y-68889544D01*
X130658222Y-68866778D01*
X130635456Y-68839036D01*
X130618539Y-68807387D01*
X130608122Y-68773048D01*
X130604000Y-68731193D01*
X130604000Y-67508807D01*
X130608122Y-67466952D01*
X130618539Y-67432613D01*
X130635456Y-67400964D01*
X130658222Y-67373222D01*
X130685964Y-67350456D01*
X130717613Y-67333539D01*
X130751952Y-67323122D01*
X130793807Y-67319000D01*
X133916193Y-67319000D01*
X133958048Y-67323122D01*
X133958048Y-67323122D01*
G37*
G36*
X149970442Y-66034518D02*
G01*
X150036627Y-66041037D01*
X150206466Y-66092557D01*
X150362991Y-66176222D01*
X150378907Y-66189284D01*
X150500186Y-66288814D01*
X150583448Y-66390271D01*
X150612778Y-66426009D01*
X150696443Y-66582534D01*
X150747963Y-66752373D01*
X150765359Y-66929000D01*
X150747963Y-67105627D01*
X150696443Y-67275466D01*
X150612778Y-67431991D01*
X150608123Y-67437663D01*
X150500186Y-67569186D01*
X150427480Y-67628853D01*
X150362991Y-67681778D01*
X150206466Y-67765443D01*
X150036627Y-67816963D01*
X149970442Y-67823482D01*
X149904260Y-67830000D01*
X149815740Y-67830000D01*
X149749558Y-67823482D01*
X149683373Y-67816963D01*
X149513534Y-67765443D01*
X149357009Y-67681778D01*
X149292520Y-67628853D01*
X149219814Y-67569186D01*
X149111877Y-67437663D01*
X149107222Y-67431991D01*
X149023557Y-67275466D01*
X148972037Y-67105627D01*
X148954641Y-66929000D01*
X148972037Y-66752373D01*
X149023557Y-66582534D01*
X149107222Y-66426009D01*
X149136552Y-66390271D01*
X149219814Y-66288814D01*
X149341093Y-66189284D01*
X149357009Y-66176222D01*
X149513534Y-66092557D01*
X149683373Y-66041037D01*
X149749558Y-66034518D01*
X149815740Y-66028000D01*
X149904260Y-66028000D01*
X149970442Y-66034518D01*
X149970442Y-66034518D01*
G37*
G36*
X152510442Y-66034518D02*
G01*
X152576627Y-66041037D01*
X152746466Y-66092557D01*
X152902991Y-66176222D01*
X152918907Y-66189284D01*
X153040186Y-66288814D01*
X153123448Y-66390271D01*
X153152778Y-66426009D01*
X153236443Y-66582534D01*
X153287963Y-66752373D01*
X153305359Y-66929000D01*
X153287963Y-67105627D01*
X153236443Y-67275466D01*
X153152778Y-67431991D01*
X153148123Y-67437663D01*
X153040186Y-67569186D01*
X152967480Y-67628853D01*
X152902991Y-67681778D01*
X152746466Y-67765443D01*
X152576627Y-67816963D01*
X152510442Y-67823482D01*
X152444260Y-67830000D01*
X152355740Y-67830000D01*
X152289558Y-67823482D01*
X152223373Y-67816963D01*
X152053534Y-67765443D01*
X151897009Y-67681778D01*
X151832520Y-67628853D01*
X151759814Y-67569186D01*
X151651877Y-67437663D01*
X151647222Y-67431991D01*
X151563557Y-67275466D01*
X151512037Y-67105627D01*
X151494641Y-66929000D01*
X151512037Y-66752373D01*
X151563557Y-66582534D01*
X151647222Y-66426009D01*
X151676552Y-66390271D01*
X151759814Y-66288814D01*
X151881093Y-66189284D01*
X151897009Y-66176222D01*
X152053534Y-66092557D01*
X152223373Y-66041037D01*
X152289558Y-66034518D01*
X152355740Y-66028000D01*
X152444260Y-66028000D01*
X152510442Y-66034518D01*
X152510442Y-66034518D01*
G37*
G36*
X157590442Y-66034518D02*
G01*
X157656627Y-66041037D01*
X157826466Y-66092557D01*
X157982991Y-66176222D01*
X157998907Y-66189284D01*
X158120186Y-66288814D01*
X158203448Y-66390271D01*
X158232778Y-66426009D01*
X158316443Y-66582534D01*
X158367963Y-66752373D01*
X158385359Y-66929000D01*
X158367963Y-67105627D01*
X158316443Y-67275466D01*
X158232778Y-67431991D01*
X158228123Y-67437663D01*
X158120186Y-67569186D01*
X158047480Y-67628853D01*
X157982991Y-67681778D01*
X157826466Y-67765443D01*
X157656627Y-67816963D01*
X157590442Y-67823482D01*
X157524260Y-67830000D01*
X157435740Y-67830000D01*
X157369558Y-67823482D01*
X157303373Y-67816963D01*
X157133534Y-67765443D01*
X156977009Y-67681778D01*
X156912520Y-67628853D01*
X156839814Y-67569186D01*
X156731877Y-67437663D01*
X156727222Y-67431991D01*
X156643557Y-67275466D01*
X156592037Y-67105627D01*
X156574641Y-66929000D01*
X156592037Y-66752373D01*
X156643557Y-66582534D01*
X156727222Y-66426009D01*
X156756552Y-66390271D01*
X156839814Y-66288814D01*
X156961093Y-66189284D01*
X156977009Y-66176222D01*
X157133534Y-66092557D01*
X157303373Y-66041037D01*
X157369558Y-66034518D01*
X157435740Y-66028000D01*
X157524260Y-66028000D01*
X157590442Y-66034518D01*
X157590442Y-66034518D01*
G37*
G36*
X155050442Y-66034518D02*
G01*
X155116627Y-66041037D01*
X155286466Y-66092557D01*
X155442991Y-66176222D01*
X155458907Y-66189284D01*
X155580186Y-66288814D01*
X155663448Y-66390271D01*
X155692778Y-66426009D01*
X155776443Y-66582534D01*
X155827963Y-66752373D01*
X155845359Y-66929000D01*
X155827963Y-67105627D01*
X155776443Y-67275466D01*
X155692778Y-67431991D01*
X155688123Y-67437663D01*
X155580186Y-67569186D01*
X155507480Y-67628853D01*
X155442991Y-67681778D01*
X155286466Y-67765443D01*
X155116627Y-67816963D01*
X155050442Y-67823482D01*
X154984260Y-67830000D01*
X154895740Y-67830000D01*
X154829558Y-67823482D01*
X154763373Y-67816963D01*
X154593534Y-67765443D01*
X154437009Y-67681778D01*
X154372520Y-67628853D01*
X154299814Y-67569186D01*
X154191877Y-67437663D01*
X154187222Y-67431991D01*
X154103557Y-67275466D01*
X154052037Y-67105627D01*
X154034641Y-66929000D01*
X154052037Y-66752373D01*
X154103557Y-66582534D01*
X154187222Y-66426009D01*
X154216552Y-66390271D01*
X154299814Y-66288814D01*
X154421093Y-66189284D01*
X154437009Y-66176222D01*
X154593534Y-66092557D01*
X154763373Y-66041037D01*
X154829558Y-66034518D01*
X154895740Y-66028000D01*
X154984260Y-66028000D01*
X155050442Y-66034518D01*
X155050442Y-66034518D01*
G37*
G36*
X147433512Y-66032927D02*
G01*
X147582812Y-66062624D01*
X147746784Y-66130544D01*
X147894354Y-66229147D01*
X148019853Y-66354646D01*
X148118456Y-66502216D01*
X148186376Y-66666188D01*
X148221000Y-66840259D01*
X148221000Y-67017741D01*
X148186376Y-67191812D01*
X148118456Y-67355784D01*
X148019853Y-67503354D01*
X147894354Y-67628853D01*
X147746784Y-67727456D01*
X147582812Y-67795376D01*
X147433512Y-67825073D01*
X147408742Y-67830000D01*
X147231258Y-67830000D01*
X147206488Y-67825073D01*
X147057188Y-67795376D01*
X146893216Y-67727456D01*
X146745646Y-67628853D01*
X146620147Y-67503354D01*
X146521544Y-67355784D01*
X146453624Y-67191812D01*
X146419000Y-67017741D01*
X146419000Y-66840259D01*
X146453624Y-66666188D01*
X146521544Y-66502216D01*
X146620147Y-66354646D01*
X146745646Y-66229147D01*
X146893216Y-66130544D01*
X147057188Y-66062624D01*
X147206488Y-66032927D01*
X147231258Y-66028000D01*
X147408742Y-66028000D01*
X147433512Y-66032927D01*
X147433512Y-66032927D01*
G37*
G36*
X139734434Y-65223686D02*
G01*
X139774284Y-65235774D01*
X139810999Y-65255399D01*
X139843186Y-65281814D01*
X139869601Y-65314001D01*
X139889226Y-65350716D01*
X139901314Y-65390566D01*
X139906000Y-65438141D01*
X139906000Y-66101859D01*
X139901314Y-66149434D01*
X139889226Y-66189284D01*
X139869601Y-66225999D01*
X139843186Y-66258186D01*
X139810999Y-66284601D01*
X139774284Y-66304226D01*
X139734434Y-66316314D01*
X139686859Y-66321000D01*
X136523141Y-66321000D01*
X136475566Y-66316314D01*
X136435716Y-66304226D01*
X136399001Y-66284601D01*
X136366814Y-66258186D01*
X136340399Y-66225999D01*
X136320774Y-66189284D01*
X136308686Y-66149434D01*
X136304000Y-66101859D01*
X136304000Y-65438141D01*
X136308686Y-65390566D01*
X136320774Y-65350716D01*
X136340399Y-65314001D01*
X136366814Y-65281814D01*
X136399001Y-65255399D01*
X136435716Y-65235774D01*
X136475566Y-65223686D01*
X136523141Y-65219000D01*
X139686859Y-65219000D01*
X139734434Y-65223686D01*
X139734434Y-65223686D01*
G37*
G36*
X139734434Y-63223686D02*
G01*
X139774284Y-63235774D01*
X139810999Y-63255399D01*
X139843186Y-63281814D01*
X139869601Y-63314001D01*
X139889226Y-63350716D01*
X139901314Y-63390566D01*
X139906000Y-63438141D01*
X139906000Y-64101859D01*
X139901314Y-64149434D01*
X139889226Y-64189284D01*
X139869601Y-64225999D01*
X139843186Y-64258186D01*
X139810999Y-64284601D01*
X139774284Y-64304226D01*
X139734434Y-64316314D01*
X139686859Y-64321000D01*
X136523141Y-64321000D01*
X136475566Y-64316314D01*
X136435716Y-64304226D01*
X136399001Y-64284601D01*
X136366814Y-64258186D01*
X136340399Y-64225999D01*
X136320774Y-64189284D01*
X136308686Y-64149434D01*
X136304000Y-64101859D01*
X136304000Y-63438141D01*
X136308686Y-63390566D01*
X136320774Y-63350716D01*
X136340399Y-63314001D01*
X136366814Y-63281814D01*
X136399001Y-63255399D01*
X136435716Y-63235774D01*
X136475566Y-63223686D01*
X136523141Y-63219000D01*
X139686859Y-63219000D01*
X139734434Y-63223686D01*
X139734434Y-63223686D01*
G37*
G36*
X133958048Y-60623122D02*
G01*
X133992387Y-60633539D01*
X134024036Y-60650456D01*
X134051778Y-60673222D01*
X134074544Y-60700964D01*
X134091461Y-60732613D01*
X134101878Y-60766952D01*
X134106000Y-60808807D01*
X134106000Y-62031193D01*
X134101878Y-62073048D01*
X134091461Y-62107387D01*
X134074544Y-62139036D01*
X134051778Y-62166778D01*
X134024036Y-62189544D01*
X133992387Y-62206461D01*
X133958048Y-62216878D01*
X133916193Y-62221000D01*
X130793807Y-62221000D01*
X130751952Y-62216878D01*
X130717613Y-62206461D01*
X130685964Y-62189544D01*
X130658222Y-62166778D01*
X130635456Y-62139036D01*
X130618539Y-62107387D01*
X130608122Y-62073048D01*
X130604000Y-62031193D01*
X130604000Y-60808807D01*
X130608122Y-60766952D01*
X130618539Y-60732613D01*
X130635456Y-60700964D01*
X130658222Y-60673222D01*
X130685964Y-60650456D01*
X130717613Y-60633539D01*
X130751952Y-60623122D01*
X130793807Y-60619000D01*
X133916193Y-60619000D01*
X133958048Y-60623122D01*
X133958048Y-60623122D01*
G37*
G36*
X140506000Y-59831000D02*
G01*
X139104000Y-59831000D01*
X139104000Y-57129000D01*
X140506000Y-57129000D01*
X140506000Y-59831000D01*
X140506000Y-59831000D01*
G37*
G36*
X142306000Y-59831000D02*
G01*
X140904000Y-59831000D01*
X140904000Y-57129000D01*
X142306000Y-57129000D01*
X142306000Y-59831000D01*
X142306000Y-59831000D01*
G37*
G36*
X144106000Y-59831000D02*
G01*
X142704000Y-59831000D01*
X142704000Y-57129000D01*
X144106000Y-57129000D01*
X144106000Y-59831000D01*
X144106000Y-59831000D01*
G37*
G36*
X135482839Y-52564467D02*
G01*
X135796882Y-52626934D01*
X136388526Y-52872001D01*
X136920992Y-53227784D01*
X137373816Y-53680608D01*
X137729599Y-54213074D01*
X137974666Y-54804718D01*
X138099600Y-55432804D01*
X138099600Y-56073196D01*
X137974666Y-56701282D01*
X137729599Y-57292926D01*
X137373816Y-57825392D01*
X136920992Y-58278216D01*
X136388526Y-58633999D01*
X135796882Y-58879066D01*
X135482839Y-58941533D01*
X135168797Y-59004000D01*
X134528403Y-59004000D01*
X134214361Y-58941533D01*
X133900318Y-58879066D01*
X133308674Y-58633999D01*
X132776208Y-58278216D01*
X132323384Y-57825392D01*
X131967601Y-57292926D01*
X131722534Y-56701282D01*
X131597600Y-56073196D01*
X131597600Y-55432804D01*
X131722534Y-54804718D01*
X131967601Y-54213074D01*
X132323384Y-53680608D01*
X132776208Y-53227784D01*
X133308674Y-52872001D01*
X133900318Y-52626934D01*
X134214361Y-52564467D01*
X134528403Y-52502000D01*
X135168797Y-52502000D01*
X135482839Y-52564467D01*
X135482839Y-52564467D01*
G37*
G36*
X147695256Y-53382298D02*
G01*
X147801579Y-53403447D01*
X148102042Y-53527903D01*
X148372451Y-53708585D01*
X148602415Y-53938549D01*
X148602416Y-53938551D01*
X148783098Y-54208960D01*
X148907553Y-54509422D01*
X148966292Y-54804719D01*
X148971000Y-54828391D01*
X148971000Y-55153609D01*
X148907553Y-55472579D01*
X148783097Y-55773042D01*
X148602415Y-56043451D01*
X148372451Y-56273415D01*
X148102042Y-56454097D01*
X147801579Y-56578553D01*
X147695256Y-56599702D01*
X147482611Y-56642000D01*
X147157389Y-56642000D01*
X146944744Y-56599702D01*
X146838421Y-56578553D01*
X146537958Y-56454097D01*
X146267549Y-56273415D01*
X146037585Y-56043451D01*
X145856903Y-55773042D01*
X145732447Y-55472579D01*
X145669000Y-55153609D01*
X145669000Y-54828391D01*
X145673709Y-54804719D01*
X145732447Y-54509422D01*
X145856902Y-54208960D01*
X146037584Y-53938551D01*
X146037585Y-53938549D01*
X146267549Y-53708585D01*
X146537958Y-53527903D01*
X146838421Y-53403447D01*
X146944744Y-53382298D01*
X147157389Y-53340000D01*
X147482611Y-53340000D01*
X147695256Y-53382298D01*
X147695256Y-53382298D01*
G37*
G36*
X157855256Y-53382298D02*
G01*
X157961579Y-53403447D01*
X158262042Y-53527903D01*
X158532451Y-53708585D01*
X158762415Y-53938549D01*
X158762416Y-53938551D01*
X158943098Y-54208960D01*
X159067553Y-54509422D01*
X159126292Y-54804719D01*
X159131000Y-54828391D01*
X159131000Y-55153609D01*
X159067553Y-55472579D01*
X158943097Y-55773042D01*
X158762415Y-56043451D01*
X158532451Y-56273415D01*
X158262042Y-56454097D01*
X157961579Y-56578553D01*
X157855256Y-56599702D01*
X157642611Y-56642000D01*
X157317389Y-56642000D01*
X157104744Y-56599702D01*
X156998421Y-56578553D01*
X156697958Y-56454097D01*
X156427549Y-56273415D01*
X156197585Y-56043451D01*
X156016903Y-55773042D01*
X155892447Y-55472579D01*
X155829000Y-55153609D01*
X155829000Y-54828391D01*
X155833709Y-54804719D01*
X155892447Y-54509422D01*
X156016902Y-54208960D01*
X156197584Y-53938551D01*
X156197585Y-53938549D01*
X156427549Y-53708585D01*
X156697958Y-53527903D01*
X156998421Y-53403447D01*
X157104744Y-53382298D01*
X157317389Y-53340000D01*
X157642611Y-53340000D01*
X157855256Y-53382298D01*
X157855256Y-53382298D01*
G37*
G36*
X144106000Y-54631000D02*
G01*
X142704000Y-54631000D01*
X142704000Y-51929000D01*
X144106000Y-51929000D01*
X144106000Y-54631000D01*
X144106000Y-54631000D01*
G37*
G36*
X142306000Y-54631000D02*
G01*
X140904000Y-54631000D01*
X140904000Y-51929000D01*
X142306000Y-51929000D01*
X142306000Y-54631000D01*
X142306000Y-54631000D01*
G37*
G36*
X140506000Y-54631000D02*
G01*
X139104000Y-54631000D01*
X139104000Y-51929000D01*
X140506000Y-51929000D01*
X140506000Y-54631000D01*
X140506000Y-54631000D01*
G37*
M02*
